SplineFontDB: 3.0
FontName: AbhayaLibreTamil-ExtraBold
FullName: AbhayaLibre ExtraBold
FamilyName: AbhayaLibre
Weight: ExtraBold
Copyright: Copyright (c) 2000, Modular Infotech, Pune, INDIA.
Version: 1.00
ItalicAngle: 0
UnderlinePosition: -282
UnderlineWidth: 20
Ascent: 700
Descent: 300
InvalidEm: 0
sfntRevision: 0x00010000
LayerCount: 2
Layer: 0 0 "Back" 1
Layer: 1 0 "Fore" 0
XUID: [1021 779 -1439063335 8111123]
FSType: 0
OS2Version: 4
OS2_WeightWidthSlopeOnly: 0
OS2_UseTypoMetrics: 1
CreationTime: 1442707200
ModificationTime: 1496605093
PfmFamily: 17
TTFWeight: 800
TTFWidth: 5
LineGap: 147
VLineGap: 0
Panose: 2 0 8 0 0 0 0 0 0 0
OS2TypoAscent: 700
OS2TypoAOffset: 0
OS2TypoDescent: -300
OS2TypoDOffset: 0
OS2TypoLinegap: 147
OS2WinAscent: 845
OS2WinAOffset: 0
OS2WinDescent: 302
OS2WinDOffset: 0
HheadAscent: 700
HheadAOffset: 0
HheadDescent: -300
HheadDOffset: 0
OS2SubXSize: 700
OS2SubYSize: 650
OS2SubXOff: 0
OS2SubYOff: 200
OS2SupXSize: 700
OS2SupYSize: 650
OS2SupXOff: 0
OS2SupYOff: 500
OS2StrikeYSize: 50
OS2StrikeYPos: 250
OS2CapHeight: 604
OS2XHeight: 409
OS2Vendor: 'MODI'
OS2CodePages: 00000003.00000000
OS2UnicodeRanges: 80108003.00000000.00000000.00000000
Lookup: 4 0 0 "'akhn' Akhand in Tamil lookup 0" { "'akhn' Akhand in Tamil lookup 0 subtable"  } ['akhn' ('taml' <'dflt' > ) ]
Lookup: 4 0 0 "'abvs' Above Base Substitutions in Tamil lookup 1" { "'abvs' Above Base Substitutions in Tamil lookup 1 subtable"  } ['abvs' ('taml' <'dflt' > ) ]
Lookup: 4 0 0 "'abvs' Above Base Substitutions in Tamil lookup 2" { "'abvs' Above Base Substitutions in Tamil lookup 2 subtable"  } ['abvs' ('taml' <'dflt' > ) ]
Lookup: 4 0 0 "'blws' Below Base Substitutions in Tamil lookup 3" { "'blws' Below Base Substitutions in Tamil lookup 3 subtable"  } ['blws' ('taml' <'dflt' > ) ]
Lookup: 4 0 0 "'haln' Halant Forms in Tamil lookup 4" { "'haln' Halant Forms in Tamil lookup 4 subtable"  } ['haln' ('taml' <'dflt' > ) ]

StartChar: .notdef
Encoding: 256 -1 0
Width: 800
GlyphClass: 2
Flags: HW
LayerCount: 2
Fore
SplineSet
100 0 m 1
 100 700 l 1
 700 700 l 1
 700 0 l 1
 100 0 l 1
150 50 m 1
 650 50 l 1
 650 650 l 1
 150 650 l 1
 150 50 l 1
EndSplineSet
EndChar

StartChar: tml_Visarga
Encoding: 2 2947 4
Width: 720
GlyphClass: 2
Flags: HW
LayerCount: 2
Fore
SplineSet
17 136.5 m 128
 17 224.419790928 80.8348527008 279 170 279 c 256
 259.177289307 279 323 224.427496752 323 136.5 c 128
 323 48.5656306869 259.156865473 -5 170 -5 c 256
 80.830954031 -5 17 48.5579943228 17 136.5 c 128
52 136.5 m 128
 52 91.2308063717 79.1064302768 45 122 45 c 256
 164.900436961 45 193 91.2235360357 193 136.5 c 128
 193 181.734902685 164.895175142 229 122 229 c 256
 79.155601415 229 52 181.672912076 52 136.5 c 128
397 136.5 m 128
 397 224.419790928 460.834852701 279 550 279 c 256
 639.177289307 279 703 224.427496752 703 136.5 c 128
 703 48.5656306869 639.156865473 -5 550 -5 c 256
 460.830954031 -5 397 48.5579943228 397 136.5 c 128
432 136.5 m 128
 432 91.2308063717 459.106430277 45 502 45 c 256
 544.900436961 45 573 91.2235360357 573 136.5 c 128
 573 181.734902685 544.895175142 229 502 229 c 256
 459.155601415 229 432 181.672912076 432 136.5 c 128
212 541.5 m 128
 212 629.419790928 275.834852701 684 365 684 c 256
 454.177289307 684 518 629.427496752 518 541.5 c 128
 518 453.565630687 454.156865473 400 365 400 c 256
 275.830954031 400 212 453.557994323 212 541.5 c 128
247 541.5 m 128
 247 496.230806372 274.106430277 450 317 450 c 256
 359.900436961 450 388 496.223536036 388 541.5 c 128
 388 586.734902685 359.895175142 634 317 634 c 256
 274.155601415 634 247 586.672912076 247 541.5 c 128
EndSplineSet
EndChar

StartChar: tml_A
Encoding: 3 2949 5
Width: 951
GlyphClass: 2
Flags: HW
LayerCount: 2
Fore
SplineSet
8 32 m 0
 8 60.2828352425 33.478556032 83 62 83 c 2
 572 83 l 1
 592 120.333333333 602 162.833333333 602 210.5 c 128
 602 294.204192722 553.919154352 377 475 377 c 1
 508.008569007 358.137960568 535 320.942607048 535 272 c 0
 535 199.039426868 462.520201259 148 387 148 c 256
 308.320013937 148 239 200.506072358 239 278.5 c 128
 239 368.462908174 337.237357062 412 436 412 c 0
 518 412 587.833333333 392.666666667 645.5 354 c 128
 703.166666667 315.333333333 732 267.666666667 732 211 c 128
 732 154.333333333 724.666666667 111.666666667 710 83 c 1
 776 83 l 1
 776 400 l 1
 906 400 l 1
 906 -134 l 1
 776 -134 l 1
 776 48 l 1
 702 48 l 1
 672 -4 620.333333333 -45 547 -75 c 256
 473.666666667 -105 393.166666667 -120 305.5 -120 c 128
 217.833333333 -120 146.333333333 -105.166666667 91 -75.5 c 128
 35.6666666667 -45.8333333333 8 -10 8 32 c 0
274 272 m 128
 274 231.012559379 298.911361973 193 338 193 c 128
 377.11007979 193 405 230.951736974 405 272 c 128
 405 312.666787515 376.96422755 358 338 358 c 128
 299.080119242 358 274 312.556363502 274 272 c 128
43 28 m 0
 43 -50.3474473486 176.420121082 -85 266 -85 c 128
 392.09243787 -85 493.478453514 -30.3083970534 544 48 c 1
 64 48 l 2
 52.6176538274 48 43 39.0875180689 43 28 c 0
EndSplineSet
EndChar

StartChar: tml_Aa
Encoding: 4 2950 6
Width: 1120
GlyphClass: 2
Flags: HW
LayerCount: 2
Fore
SplineSet
8 32 m 0
 8 60.2828352425 33.478556032 83 62 83 c 2
 571 83 l 1
 591.666666667 121.666666667 602 164.5 602 211.5 c 128
 602 294.435743992 553.47704828 377 475 377 c 1
 508.008569007 358.137960568 535 320.942607048 535 272 c 0
 535 199.720145597 460.804515392 148 386 148 c 128
 307.25037074 148 240 200.493524574 240 278.5 c 128
 240 368.504750869 337.146220398 412 436 412 c 0
 518 412 587.833333333 392.666666667 645.5 354 c 128
 703.166666667 315.333333333 732 267.666666667 732 211 c 128
 732 154.333333333 724.666666667 111.666666667 710 83 c 1
 776 83 l 1
 776 400 l 1
 906 400 l 1
 906 58 l 1
 938.666666667 76 967 85 991 85 c 0
 1069.89368061 85 1120 31.1273580806 1120 -48 c 0
 1120 -123.333333333 1082.33333333 -183.833333333 1007 -229.5 c 128
 931.666666667 -275.166666667 831.333333333 -298 706 -298 c 0
 628 -298 561.333333333 -287.666666667 506 -267 c 256
 450.666666667 -246.333333333 423 -221.666666667 423 -193 c 0
 423 -158.468174118 469.155259978 -141 507 -141 c 2
 638 -141 l 1
 638 -176 l 1
 505 -176 l 2
 488.815162816 -176 458 -181.01395585 458 -194 c 0
 458 -214.666666667 481.666666667 -231.333333333 529 -244 c 128
 576.333333333 -256.666666667 639.166666667 -263 717.5 -263 c 128
 860.468816215 -263 990 -189.38499783 990 -52 c 0
 990 -17.9172315436 972.324615896 30 942.5 30 c 128
 919.45180857 30 906 12.7877891806 906 -10 c 2
 906 -183 l 1
 776 -183 l 1
 776 48 l 1
 702 48 l 1
 672 -4 620.333333333 -45 547 -75 c 256
 473.666666667 -105 393.166666667 -120 305.5 -120 c 128
 217.833333333 -120 146.333333333 -105.166666667 91 -75.5 c 128
 35.6666666667 -45.8333333333 8 -10 8 32 c 0
275 272 m 128
 275 231.040997162 298.924003557 193 338 193 c 128
 377.11007979 193 405 230.951736974 405 272 c 128
 405 312.666787515 376.96422755 358 338 358 c 128
 299.091629356 358 275 312.527568522 275 272 c 128
43 33 m 0
 43 -47.6535842393 175.73573875 -85 267 -85 c 128
 393.09243787 -85 494.478453514 -30.3083970534 545 48 c 1
 64 48 l 2
 53.9056588505 48 43 42.307594193 43 33 c 0
EndSplineSet
EndChar

StartChar: tml_I
Encoding: 5 2951 7
Width: 914
GlyphClass: 2
Flags: HW
LayerCount: 2
Fore
SplineSet
0 -182.5 m 128
 0 -152.833333333 12.1666666667 -122.5 36.5 -91.5 c 128
 60.8333333333 -60.5 93.6666666667 -35 135 -15 c 1
 75.6666666667 58.1317829457 46 149.465116279 46 259 c 0
 46 383.666666667 84.1666666667 483.5 160.5 558.5 c 128
 236.833333333 633.5 337.833333333 671 463.5 671 c 128
 589.166666667 671 689.166666667 627 763.5 539 c 128
 837.833333333 451 875 334 875 188 c 2
 875 -273 l 1
 840 -273 l 1
 840 189 l 2
 840 307 805.833333333 401.5 737.5 472.5 c 128
 669.166666667 543.5 579.166666667 579 467.5 579 c 128
 355.833333333 579 267 547.833333333 201 485.5 c 128
 135 423.166666667 102 340 102 236 c 0
 102 152 127.333333333 75 178 5 c 1
 240.666666667 37 324.333333333 53 429 53 c 0
 470.333333333 53 511.333333333 48.3333333333 552 39 c 1
 591.333333333 90.5402298853 611 157.873563219 611 241 c 0
 611 307.970353954 566.355208307 373 502 373 c 1
 536.464514937 354.536866998 562 312.125160275 562 261 c 0
 562 173.962382056 500.133651201 121 412 121 c 256
 320.110728377 121 263 178.104667978 263 271 c 128
 263 375.208347943 355.993538844 433 466 433 c 0
 610.386930805 433 736 368.447222026 736 233 c 0
 736 143.666666667 713.333333333 66.6666666667 668 2 c 1
 708 -14 740 -34.8333333333 764 -60.5 c 128
 788 -86.1666666667 800 -112.333333333 800 -139 c 0
 800 -179 777.333333333 -213.333333333 732 -242 c 256
 686.666666667 -270.666666667 627.833333333 -285 555.5 -285 c 128
 483.166666667 -285 417 -269 357 -237 c 1
 299 -269 231 -285 153 -285 c 0
 81.4119933586 -285 0 -249.539524541 0 -182.5 c 128
298 263.5 m 128
 298 221.16448086 322.496899957 176 363 176 c 128
 403.932379825 176 432 219.096468658 432 262 c 128
 432 304.861313201 403.927386738 349 363 349 c 128
 322.46355591 349 298 305.925813575 298 263.5 c 128
202 -32 m 1
 251.333333333 -94.6666666667 301.333333333 -142 352 -174 c 1
 416 -132.666666667 472 -77.6666666667 520 -9 c 1
 485.333333333 1.66666666667 450 7 414 7 c 0
 324 7 253.333333333 -6 202 -32 c 1
411 -204 m 1
 443.666666667 -220.666666667 482 -229 526 -229 c 128
 570 -229 605 -220 631 -202 c 256
 657 -184 670 -164.166666667 670 -142.5 c 128
 670 -100.626664023 648.863504467 -69.2158761168 616 -61 c 1
 556.666666667 -120.333333333 488.333333333 -168 411 -204 c 1
37 -181.5 m 128
 37 -228.355375173 96.2080124324 -250 147 -250 c 0
 199.666666667 -250 251.666666667 -232.666666667 303 -198 c 1
 239 -151.333333333 189 -103.333333333 153 -54 c 1
 117.666666667 -71.3333333333 89.3333333333 -91.6666666667 68 -115 c 0
 47.3333333333 -139 37 -161.166666667 37 -181.5 c 128
EndSplineSet
EndChar

StartChar: tml_Ii
Encoding: 6 2952 8
Width: 671
GlyphClass: 2
Flags: HW
LayerCount: 2
Fore
SplineSet
45 0 m 1
 45 400 l 1
 659 400 l 1
 659 370 l 1
 452 370 l 1
 452 0 l 1
 322 0 l 1
 322 370 l 1
 80 370 l 1
 80 0 l 1
 45 0 l 1
138 199 m 256
 138 237.354038676 168.620917572 269 207 269 c 256
 245.327986343 269 278 237.352938406 278 199 c 128
 278 160.672013657 245.326794384 128 207 128 c 256
 168.619908991 128 138 160.673205616 138 199 c 256
512 199 m 256
 512 237.354038676 541.594773551 269 580 269 c 128
 618.301934011 269 652 237.352938406 652 199 c 128
 652 160.672013657 618.300650363 128 580 128 c 128
 541.593856659 128 512 160.673205616 512 199 c 256
EndSplineSet
EndChar

StartChar: tml_U
Encoding: 7 2953 9
Width: 743
GlyphClass: 2
Flags: HW
LayerCount: 2
Fore
SplineSet
18 64 m 256
 18 105.157378506 66.8086675588 130 111 130 c 2
 270 130 l 2
 327.812922827 130 367 191.254460921 367 252 c 128
 367 313.530466481 325.768934359 372 267 372 c 2
 222 372 l 1
 260.929015678 361.989681683 301 330.061743048 301 285 c 0
 301 212.545129844 242.314198301 171 168 171 c 128
 96.8207838458 171 29 217.050694911 29 285 c 0
 29 325 46.6666666667 355.333333333 82 376 c 256
 117.333333333 396.666666667 171.833333333 407 245.5 407 c 128
 366.457602069 407 497 361.507664471 497 251.5 c 128
 497 145.163481636 393.286576281 95 279 95 c 2
 189 95 l 2
 168.580134593 95 148 82.0156265629 148 62.5 c 128
 148 42.5472813733 170.974822666 30 192 30 c 2
 740 30 l 1
 740 0 l 1
 125 0 l 2
 77.9950465056 0 18 21.3066879506 18 64 c 256
64 286 m 256
 64 251.907452168 83.6047969065 216 116 216 c 128
 148.461260813 216 171 251.827751555 171 286 c 128
 171 320.19245094 148.478613446 356 116 356 c 128
 83.6200451706 356 64 320.071807719 64 286 c 256
EndSplineSet
EndChar

StartChar: tml_Uu
Encoding: 8 2954 10
Width: 1363
GlyphClass: 2
Flags: HW
LayerCount: 2
Fore
SplineSet
551 231.5 m 128
 551 276.5 570.666666667 316 610 350 c 0
 650 383.333333333 695.666666667 400 747 400 c 0
 849.344086021 400 919.677419355 378 958 334 c 1
 958 400 l 1
 1279 400 l 1
 1279 370 l 1
 1260 370 l 1
 1260 95 l 1
 1130 95 l 1
 1130 370 l 1
 1057 370 l 1
 1057 95 l 1
 927 95 l 1
 927 285 l 1
 880.25 341.666666667 822.916666667 370 755 370 c 0
 668.105497664 370 586 308.291822926 586 224 c 0
 586 184.916666667 603 151.916666667 637 125 c 1
 620.333333333 147.222222222 612 168.888888889 612 190 c 0
 612 265.629071306 670.120271889 308 748 308 c 256
 825.614808197 308 884 265.702365706 884 190.5 c 128
 884 110.675924952 822.471478485 73 737 73 c 128
 689 73 646 88.1666666667 608 118.5 c 128
 570 148.833333333 551 186.5 551 231.5 c 128
647 189 m 128
 647 154.149784516 666.172937352 118 699 118 c 128
 732.093571693 118 754 154.541685016 754 190 c 128
 754 224.820900086 731.870251973 263 699 263 c 128
 666.276741833 263 647 223.611661717 647 189 c 128
18 64 m 256
 18 105.157378506 66.8086675588 130 111 130 c 2
 270 130 l 2
 327.812922827 130 367 191.254460921 367 252 c 128
 367 313.530466481 325.768934359 372 267 372 c 2
 222 372 l 1
 260.929015678 361.989681683 301 330.061743048 301 285 c 0
 301 212.545129844 242.314198301 171 168 171 c 128
 96.8207838458 171 29 217.050694911 29 285 c 0
 29 325 46.6666666667 355.333333333 82 376 c 256
 117.333333333 396.666666667 171.833333333 407 245.5 407 c 128
 366.457602069 407 497 361.507664471 497 251.5 c 128
 497 145.163481636 393.286576281 95 279 95 c 2
 189 95 l 2
 168.580134593 95 148 82.0156265629 148 62.5 c 128
 148 42.5472813733 170.974822666 30 192 30 c 2
 1360 30 l 1
 1360 0 l 1
 110 0 l 2
 66.6057408714 0 18 23.3202153032 18 64 c 256
64 286 m 256
 64 251.907452168 83.6047969065 216 116 216 c 128
 148.461260813 216 171 251.827751555 171 286 c 128
 171 320.19245094 148.478613446 356 116 356 c 128
 83.6200451706 356 64 320.071807719 64 286 c 256
EndSplineSet
EndChar

StartChar: tml_E
Encoding: 9 2958 11
Width: 726
GlyphClass: 2
Flags: HW
LayerCount: 2
Fore
SplineSet
19 188 m 128
 19 244.666666667 41.3333333333 294.166666667 86 336.5 c 128
 130.666666667 378.833333333 184.333333333 400 247 400 c 2
 723 400 l 1
 723 370 l 1
 637 370 l 1
 637 0 l 1
 507 0 l 1
 507 370 l 1
 247 370 l 2
 141.728414022 370 54 285.02623409 54 180 c 0
 54 125.490281527 76.6268427186 76.513001654 113 59 c 1
 97.6666666667 78.5151515151 90 98.8484848485 90 120 c 0
 90 199.260557881 161.454645736 260 242 260 c 256
 321.351522713 260 394 205.610544348 394 128 c 128
 394 49.5201137853 316.811341334 -10 236 -10 c 0
 176 -10 124.833333333 8.83333333333 82.5 46.5 c 128
 40.1666666667 84.1666666667 19 131.333333333 19 188 c 128
125 117.5 m 128
 125 75.7672511065 152.400057859 37 193 37 c 128
 233.808972745 37 264 76.8856374448 264 119 c 128
 264 161.179509975 233.835025347 200 193 200 c 128
 152.437292121 200 125 159.124107651 125 117.5 c 128
EndSplineSet
EndChar

StartChar: tml_Ee
Encoding: 10 2959 12
Width: 726
GlyphClass: 2
Flags: HW
LayerCount: 2
Fore
SplineSet
19 188 m 128
 19 244.666666667 41.3333333333 294.166666667 86 336.5 c 128
 130.666666667 378.833333333 184.333333333 400 247 400 c 2
 723 400 l 1
 723 370 l 1
 639 370 l 1
 639 0 l 1
 277 -141 l 1
 262 -117 l 1
 509 -1 l 1
 509 370 l 1
 247 370 l 2
 141.728414022 370 54 285.02623409 54 180 c 0
 54 124.935884651 76.6184080484 76.3557391204 114 59 c 1
 98 79 90 99.3333333333 90 120 c 0
 90 199.269345805 160.416202139 260 241 260 c 256
 320.322416493 260 394 204.59115133 394 127 c 128
 394 47.8548057477 317.458632693 -10 236 -10 c 0
 176 -10 124.833333333 8.83333333333 82.5 46.5 c 128
 40.1666666667 84.1666666667 19 131.333333333 19 188 c 128
125 117.5 m 128
 125 75.7672511065 152.400057859 37 193 37 c 128
 233.808972745 37 264 76.8856374448 264 119 c 128
 264 161.179509975 233.835025347 200 193 200 c 128
 152.437292121 200 125 159.124107651 125 117.5 c 128
EndSplineSet
EndChar

StartChar: tml_Ai
Encoding: 11 2960 13
Width: 759
GlyphClass: 2
Flags: HW
LayerCount: 2
Fore
SplineSet
14 -63.5 m 128
 14 36.7227619257 97.5206156688 85 202 85 c 2
 504 85 l 2
 569.784771743 85 610 161.682665434 610 231.5 c 128
 610 294.47302224 582.7881298 378 527 378 c 0
 489.729126688 378 475 313.323733493 475 270 c 2
 475 138 l 1
 345 138 l 1
 345 259 l 2
 345 329.570219799 273.742590194 378 200 378 c 128
 125.754961205 378 52 328.424448599 52 257 c 0
 52 212.139586037 77.3222027024 176.473258258 111 164 c 1
 91.6666666667 183.333333333 82 206 82 232 c 128
 82 287.284954531 134.124081114 330 191.5 330 c 128
 252.933903002 330 296 290.355596612 296 229 c 128
 296 161.425271149 234.402823886 127 163 127 c 256
 84.2281972321 127 17 184.293341216 17 263 c 128
 17 302.333333333 35.6666666667 337.166666667 73 367.5 c 128
 110.333333333 397.833333333 153 413 201 413 c 128
 296.719520983 413 369.832333388 378.406333248 407 320 c 1
 425.712224449 369.11958918 474.010304298 413 538 413 c 0
 655.018014632 413 740 343.779856211 740 229.5 c 128
 740 108.189313699 631.376960856 50 503 50 c 2
 257 50 l 2
 196.936204339 50 147 1.12091429332 147 -58.5 c 128
 147 -115.39922103 187.956604931 -166 244 -166 c 128
 299.218711876 -166 345 -116.746570097 345 -61 c 2
 345 2 l 1
 475 2 l 1
 475 -71 l 2
 475 -123.838822741 513.986935665 -176 565 -176 c 128
 616.846633367 -176 649 -121.093640104 649 -67 c 2
 649 2 l 1
 684 2 l 1
 684 -67 l 2
 684 -160.485736419 620.744925142 -221 527 -221 c 0
 454.329518464 -221 395.255701912 -184.788019715 371 -135 c 1
 337.500465556 -182.856477778 276.415677671 -221 199 -221 c 0
 95.5813132611 -221 14 -162.747059772 14 -63.5 c 128
117 228.5 m 128
 117 197.479649359 133.096573678 162 162 162 c 128
 191.774449725 162 210 194.573650221 210 226.5 c 128
 210 257.504231626 190.970812323 295 162 295 c 128
 133.112981629 295 117 259.49318749 117 228.5 c 128
EndSplineSet
EndChar

StartChar: tml_O
Encoding: 12 2962 14
Width: 767
GlyphClass: 2
Flags: HW
LayerCount: 2
Fore
SplineSet
20 156 m 0
 20 329.61772238 168.164218033 420 350 420 c 0
 553.414543827 420 748 340.448869137 748 154 c 0
 748 57.1730319239 679.236229266 -2 581 -2 c 0
 512.762557785 -2 446 42.3324189541 446 108 c 1
 451 131 l 1
 419.666666667 109.636363636 404 79.303030303 404 40 c 0
 404 -23.8697989575 468.835124513 -69 535 -69 c 2
 644 -69 l 1
 644 -104 l 1
 489 -104 l 2
 458.121002899 -104 440 -142.598875569 440 -176 c 0
 440 -208 419.166666667 -233.666666667 377.5 -253 c 128
 335.833333333 -272.333333333 280.666666667 -282 212 -282 c 0
 129.109191467 -282 55 -245.625175388 55 -168 c 0
 55 -133.419831355 82.8366617275 -107.098002963 108 -92 c 1
 125 -110 l 1
 101.666666667 -127.843137255 90 -147.970588235 90 -170.382352941 c 128
 90 -223.014237109 139.675547871 -247 197 -247 c 128
 254.632201883 -247 310 -224.848989765 310 -171 c 128
 310 -114.917925869 381.113745768 -80 442 -80 c 1
 396.344818444 -64.7816061479 369 -14.3546639255 369 48 c 128
 369 114.745902126 430.104392602 173 498 173 c 1
 486.666666667 160.25 481 141.5625 481 116.9375 c 128
 481 71.7895470063 506.589938919 40 549.5 40 c 128
 597.65532704 40 618 98.4423247842 618 153 c 0
 618 217 591.333333333 271.666666667 538 317 c 0
 484 362.333333333 418.166666667 385 340.5 385 c 128
 262.833333333 385 195.833333333 362.666666667 139.5 318 c 128
 83.1666666667 273.333333333 55 219.333333333 55 156 c 0
 55 97.2815427776 83.9425890019 43.657240363 127 28 c 1
 102.333333333 49.9259259259 90 76.4074074073 90 107.444444444 c 128
 90 172.98208056 149.727305673 223 217.5 223 c 128
 289.021073447 223 340 174.083878512 340 103 c 128
 340 29.154968618 283.744156684 -10 208 -10 c 0
 100.010096756 -10 20 50.8132057435 20 156 c 0
125 106.5 m 128
 125 71.8120552845 150.589984518 40 184.5 40 c 128
 218.683163073 40 243 69.8491575354 243 105 c 128
 243 140.024672612 218.647686561 173 184.5 173 c 128
 150.595728524 173 125 141.178189426 125 106.5 c 128
EndSplineSet
EndChar

StartChar: tml_Oo
Encoding: 13 2963 15
Width: 767
GlyphClass: 2
Flags: HW
LayerCount: 2
Fore
SplineSet
20 156 m 0
 20 329.61772238 168.164218033 420 350 420 c 0
 553.414543827 420 748 340.448869137 748 154 c 0
 748 57.1730319239 679.236229266 -2 581 -2 c 0
 512.762557785 -2 446 42.3324189541 446 108 c 1
 451 131 l 1
 419.666666667 109.636363636 404 79.303030303 404 40 c 0
 404 -23.8697989575 468.835124513 -69 535 -69 c 2
 644 -69 l 1
 644 -104 l 1
 534 -104 l 2
 489.918569784 -104 446 -133.423305307 446 -176 c 0
 446 -214 424.833333333 -244.5 382.5 -267.5 c 128
 340.166666667 -290.5 283.666666667 -302 213 -302 c 0
 129.267063522 -302 40 -252.028157811 40 -173 c 256
 40 -137.666666667 54.6666666667 -107.333333333 84 -82 c 256
 113.333333333 -56.6666666667 145.833333333 -44 181.5 -44 c 128
 244.353704922 -44 297 -78.2978932171 297 -137 c 256
 297 -187.514756841 260.021632744 -230 210 -230 c 128
 165.203993559 -230 120 -201.01873261 120 -158 c 0
 120 -140 126 -125.666666667 138 -115 c 1
 106.260523326 -115 80 -142.287584239 80 -174 c 0
 80 -234.465035445 142.437206938 -267 205.5 -267 c 128
 269.072208835 -267 310 -235.280002122 310 -175.5 c 128
 310 -115.248489891 378.176494421 -80 442 -80 c 1
 396.279470886 -64.7598236285 369 -17.4978417591 369 45 c 128
 369 77.6666666667 381.666666667 107.166666667 407 133.5 c 128
 432.333333333 159.833333333 462.666666667 173 498 173 c 1
 486.666666667 160.25 481 141.5625 481 116.9375 c 128
 481 72.7857456191 506.443127061 38 548 38 c 128
 593.310382694 38 618 102.551299656 618 153 c 0
 618 303.190375419 497.151780726 385 340.5 385 c 128
 184.886508288 385 55 305.139362624 55 156 c 0
 55 97.2815427776 83.9425890019 43.657240363 127 28 c 1
 102.333333333 49.9259259259 90 76.4074074073 90 107.444444444 c 128
 90 172.734285259 149.626838116 223 217 223 c 128
 288.077370095 223 340 173.821619683 340 103 c 128
 340 29.154968618 283.744156684 -10 208 -10 c 0
 100.010096756 -10 20 50.8132057435 20 156 c 0
125 106.5 m 128
 125 71.8120552845 150.589984518 40 184.5 40 c 128
 218.412286911 40 243 71.8352852888 243 106.5 c 128
 243 141.174544952 218.417879866 173 184.5 173 c 128
 150.595728524 173 125 141.178189426 125 106.5 c 128
162 -159 m 256
 162 -182.250091706 182.861242613 -200 206.5 -200 c 128
 230.143616525 -200 251 -182.252889227 251 -159 c 128
 251 -135.76303955 230.148359308 -117 206.5 -117 c 128
 182.846832479 -117 162 -135.76015677 162 -159 c 256
EndSplineSet
EndChar

StartChar: tml_Ka
Encoding: 15 2965 17
Width: 619
GlyphClass: 2
Flags: HW
LayerCount: 2
Fore
SplineSet
13 134 m 0
 13 189.362956441 55.974809285 220 113 220 c 2
 138 220 l 1
 138 400 l 1
 522 400 l 1
 522 370 l 1
 399 370 l 1
 399 220 l 1
 480 220 l 2
 554.342411076 220 605 181.300776579 605 107.5 c 128
 605 71.1666666667 589 44.1666666667 557 26.5 c 128
 525 8.83333333333 472.333333333 0 399 0 c 1
 399 30 l 1
 457.124095104 30 475 53.5118316713 475 113 c 0
 475 161 456.666666667 185 420 185 c 2
 399 185 l 1
 399 131 l 2
 399 42.3333333333 321.666666667 -2 167 -2 c 0
 86.8434245217 -2 13 55.9396249617 13 134 c 0
173 220 m 1
 283 220 l 1
 283 370 l 1
 173 370 l 1
 173 220 l 1
48 135 m 0
 48 71.485510516 100.210438574 33 165 33 c 128
 228.137117659 33 283 77.1187971007 283 138 c 2
 283 185 l 1
 115 185 l 2
 79.3505504109 185 48 168.756175767 48 135 c 0
EndSplineSet
EndChar

StartChar: tml_Nga
Encoding: 16 2969 18
Width: 790
GlyphClass: 2
Flags: HW
LayerCount: 2
Fore
SplineSet
45 0 m 1
 45 400 l 1
 509 400 l 1
 509 370 l 1
 348 370 l 1
 348 257 l 1
 376 275.666666667 408.666666667 285 446 285 c 128
 523.803997391 285 574 226.893045801 574 147 c 0
 574 89.8005415927 533.7890627 47.2851563291 490 30 c 1
 615 30 l 1
 615 400 l 1
 745 400 l 1
 745 0 l 1
 218 0 l 1
 218 30 l 1
 384 30 l 1
 419.614076625 49.0789696205 444 93.3034556964 444 147 c 256
 444 189.753618046 422.153715002 240 383 240 c 0
 362.522839805 240 348 218.466580592 348 197 c 2
 348 110 l 1
 218 110 l 1
 218 370 l 1
 80 370 l 1
 80 0 l 1
 45 0 l 1
EndSplineSet
EndChar

StartChar: tml_Ca
Encoding: 17 2970 19
Width: 532
GlyphClass: 2
Flags: HW
LayerCount: 2
Fore
SplineSet
14 137 m 0
 14 190.809594756 58.2645967714 220 114 220 c 2
 128 220 l 1
 128 400 l 1
 524 400 l 1
 524 370 l 1
 414 370 l 1
 414 220 l 1
 524 220 l 1
 524 185 l 1
 414 185 l 1
 414 137 l 2
 414 41.6928633479 304.930920241 -2 202.5 -2 c 128
 98.1042428719 -2 14 40.8272002541 14 137 c 0
163 220 m 1
 284 220 l 1
 284 370 l 1
 163 370 l 1
 163 220 l 1
49 137 m 0
 49 66.112621859 117.797330998 33 194 33 c 0
 251.373801746 33 284 77.9602482208 284 137 c 2
 284 185 l 1
 116 185 l 2
 81.0158530325 185 49 169.796854891 49 137 c 0
EndSplineSet
EndChar

StartChar: tml_Ja
Encoding: 18 2972 20
Width: 771
GlyphClass: 2
Flags: HW
LayerCount: 2
Fore
SplineSet
8 -68 m 128
 8 27.8326123862 111.954811655 85 212 85 c 2
 494 85 l 2
 567.343225884 85 621 155.567027008 621 230.5 c 128
 621 288.58029514 598.639264485 373 548.5 373 c 128
 503.845798639 373 477 318.724069168 477 271 c 2
 477 138 l 1
 347 138 l 1
 347 259 l 2
 347 327.723473897 265.873135816 373 194 373 c 128
 122.845554227 373 52 327.353526479 52 260.5 c 128
 52 208.843343352 77.2116473055 158.529829589 121 154 c 1
 96.6928636282 162.578989308 82 194.728592231 82 229 c 0
 82 291.62164237 125.514761092 330 189 330 c 256
 252.508236663 330 296 289.596152617 296 227 c 128
 296 157.906872052 236.752765598 127 162.5 127 c 128
 79.9657620931 127 17 177.634851325 17 259.5 c 128
 17 345.407602605 113.134623855 408 202 408 c 128
 296.486834782 408 370.107075872 376.02258849 407 320 c 1
 426.689519493 372.505385315 487.986689662 408 560 408 c 0
 687.333333333 408 751 349.666666667 751 233 c 0
 751 111 665 50 493 50 c 2
 237 50 l 2
 171.937658062 50 117 -0.452259437006 117 -65 c 128
 117 -119.555914663 152.474688258 -183 203.5 -183 c 0
 247.920289855 -183 300.420289855 -151.333333333 361 -88 c 0
 408.328091974 -39.6201726484 476.323443472 9 560 9 c 0
 654.853087674 9 751 -26.5541944004 751 -112 c 128
 751 -197.341133026 653.043739434 -228 558 -228 c 0
 503.304347826 -228 460.971014493 -212.333333333 431 -181 c 1
 446 -157 l 1
 475.647058823 -181 512.980392157 -193 558 -193 c 0
 597.135838043 -193 621 -152.732040576 621 -111.5 c 128
 621 -68.5308749244 590.886546272 -26 549 -26 c 0
 502.333333333 -26 444.666666667 -58 376 -122 c 256
 307.333333333 -186 249.666666667 -218 203 -218 c 0
 98.9942867529 -218 8 -166.350826398 8 -68 c 128
117 228.5 m 128
 117 197.479649359 133.096573678 162 162 162 c 128
 191.774449725 162 210 194.573650221 210 226.5 c 128
 210 257.504231626 190.970812323 295 162 295 c 128
 133.112981629 295 117 259.49318749 117 228.5 c 128
EndSplineSet
EndChar

StartChar: tml_Nya
Encoding: 19 2974 21
Width: 1016
GlyphClass: 2
Flags: HW
LayerCount: 2
Fore
SplineSet
24 126 m 0
 24 222 65.6666666667 311.666666667 149 395 c 1
 169 373 l 1
 95.6666666667 296.899371069 59 214.232704403 59 125 c 0
 59 24.3333333333 96.5 -59 171.5 -125 c 128
 246.5 -191 341.333333333 -224 456 -224 c 0
 688.728200393 -224 868 -130.049344757 868 89 c 0
 868 145.261162296 832.665605843 202 779 202 c 0
 756.396217716 202 741 178.323828724 741 155 c 2
 741 0 l 1
 611 0 l 1
 611 370 l 1
 442 370 l 2
 376.666666667 370 320.833333333 352 274.5 316 c 128
 228.166666667 280 205 236.333333333 205 185 c 0
 205 124.30380851 227.972099733 71.7302287243 266 50 c 1
 251.333333333 66 244 89.3333333333 244 120 c 0
 244 207.00610368 305.851526681 262 394 262 c 256
 479.887363399 262 544 212.619417519 544 129 c 256
 544 38.0272051681 462.289887626 -3 364 -3 c 128
 248.907239982 -3 170 71.819918892 170 188.5 c 128
 170 248.166666667 195.833333333 298.333333333 247.5 339 c 128
 299.166666667 379.666666667 364.666666667 400 444 400 c 2
 837 400 l 1
 837 370 l 1
 741 370 l 1
 741 228 l 1
 765.666666667 244 793.333333333 252 824 252 c 0
 926.233435598 252 998 188.799343072 998 88 c 0
 998 -22 950.5 -107.333333333 855.5 -168 c 128
 760.5 -228.666666667 627.333333333 -259 456 -259 c 0
 331.333333333 -259 228 -222.666666667 146 -150 c 0
 64.6666666667 -77.3333333333 24 14.6666666667 24 126 c 0
279 117.5 m 128
 279 75.0180085375 304.437679762 32 345 32 c 128
 385.563441422 32 414 76.0165938249 414 118.5 c 128
 414 161.127416763 385.624020676 203 345 203 c 128
 304.450238418 203 279 159.955580028 279 117.5 c 128
EndSplineSet
EndChar

StartChar: tml_Tta
Encoding: 20 2975 22
Width: 802
GlyphClass: 2
Flags: HW
LayerCount: 2
Fore
SplineSet
45 0 m 1
 45 400 l 1
 175 400 l 1
 175 30 l 1
 799 30 l 1
 799 0 l 1
 45 0 l 1
EndSplineSet
EndChar

StartChar: tml_Nna
Encoding: 21 2979 23
Width: 1229
GlyphClass: 2
Flags: HW
LayerCount: 2
Fore
SplineSet
20 173 m 0
 20 324.196378312 147.746895196 405 306 405 c 0
 417.181818182 405 491.181818182 390 528 360 c 1
 564.818181818 390 608.818181818 405 660 405 c 0
 733.594202899 405 791.260869565 389 833 357 c 1
 872.333333333 385.666666667 914.666666667 400 960 400 c 2
 1226 400 l 1
 1226 370 l 1
 1144 370 l 1
 1144 0 l 1
 1014 0 l 1
 1014 370 l 1
 963 370 l 2
 929.666666667 370 899.666666667 360 873 340 c 1
 937.666666667 279.550724638 970 211.884057971 970 137 c 0
 970 58.2649080575 909.360373381 -11 831.5 -11 c 128
 752.984802204 -11 693 57.6110621488 693 137 c 0
 693 206.03030303 716 267.03030303 762 320 c 1
 732.833333333 353.333333333 696.5 370 653 370 c 0
 622.490196079 370 592.823529412 358.333333333 564 335 c 1
 632.666666667 274.741496599 667 208.741496599 667 137 c 0
 667 57.4253016782 603.064041255 -11 524 -11 c 256
 444.938572725 -11 381 57.4330048374 381 137 c 0
 381 209.606060606 404 269.606060606 450 317 c 1
 410.58974359 352.333333333 357.403846154 370 290.442307692 370 c 128
 223.480769231 370 167.5 351 122.5 313 c 128
 77.5 275 55 229 55 175 c 0
 55 113.997888794 78.1335335153 54.7177043777 121 39 c 1
 103.666666667 57.6666666667 95 85.8333333333 95 123.5 c 128
 95 199.424349684 150.967064315 254 227.5 254 c 128
 304.404791446 254 366 195.15655383 366 118.5 c 128
 366 34.1285731594 282.922034518 -11 194 -11 c 128
 93.9653396855 -11 20 72.5032753618 20 173 c 0
728 137 m 0
 728 95.7450551622 747.903029392 44 785 44 c 128
 822.986161361 44 840 96.8268844273 840 140 c 128
 840 201.098615481 815.939149945 254.877918576 784 288 c 1
 746.666666667 250.666666667 728 200.333333333 728 137 c 0
416 137 m 0
 416 94.3030100531 436.906480956 44 476 44 c 256
 515.904911832 44 537 94.8395224106 537 139 c 0
 537 196.931034483 516.666666667 246.931034483 476 289 c 1
 436 246.241379311 416 195.574712644 416 137 c 0
130 117 m 256
 130 82.3315730134 148.267279486 44 181 44 c 128
 213.851318621 44 236 82.2031635717 236 117 c 128
 236 152.478545131 214.118450266 189 181 189 c 128
 148.254287058 189 130 151.715236289 130 117 c 256
EndSplineSet
EndChar

StartChar: tml_Ta
Encoding: 22 2980 24
Width: 638
GlyphClass: 2
Flags: HW
LayerCount: 2
Fore
SplineSet
-7 -169 m 0
 -7 -107.33314772 51.5049722699 -63 115 -63 c 2
 341 -63 l 2
 424.348691686 -63 492 4.65360054309 492 88 c 0
 492 128.809989272 474.167437543 185 438 185 c 2
 413 185 l 1
 413 131 l 2
 413 42.3333333333 335.666666667 -2 181 -2 c 0
 96.5707902809 -2 13 53.2355742673 13 134 c 0
 13 190.256493164 58.5078466948 220 117 220 c 2
 133 220 l 1
 133 400 l 1
 522 400 l 1
 522 370 l 1
 413 370 l 1
 413 220 l 1
 484 220 l 2
 558.837426533 220 622 159.593464046 622 85 c 0
 622 -40.6600073035 497.430320536 -98 362 -98 c 2
 111 -98 l 2
 76.4475211534 -98 33 -115.464841696 33 -147 c 1
 42.3333333333 -139 54 -135 68 -135 c 128
 93.8516376514 -135 123 -152.776028633 123 -178 c 256
 123 -205.707318867 85.8771058648 -222 56 -222 c 128
 23.0890550201 -222 -7 -200.546727895 -7 -169 c 0
168 220 m 1
 283 220 l 1
 283 370 l 1
 168 370 l 1
 168 220 l 1
48 135 m 0
 48 66.9920721422 109.825508295 33 182 33 c 0
 238.078098273 33 283 81.7086475554 283 138 c 2
 283 185 l 1
 115 185 l 2
 82.1935239887 185 48 166.07586648 48 135 c 0
EndSplineSet
EndChar

StartChar: tml_Na
Encoding: 23 2984 25
Width: 614
GlyphClass: 2
Flags: HW
LayerCount: 2
Fore
SplineSet
5 -169 m 0
 5 -107.348349069 64.5526029438 -63 128 -63 c 2
 304 -63 l 2
 417.651585992 -63 466 -9.60470392115 466 105 c 0
 466 156.333533858 438.61049629 217 391 217 c 0
 369.031339997 217 351 200.695727515 351 179 c 2
 351 0 l 1
 221 0 l 1
 221 370 l 1
 80 370 l 1
 80 0 l 1
 45 0 l 1
 45 400 l 1
 512 400 l 1
 512 370 l 1
 351 370 l 1
 351 230 l 1
 375.666666667 248 407.5 257 446.5 257 c 128
 485.5 257 520.166666667 242 550.5 212 c 128
 580.833333333 182 596 145.666666667 596 103 c 0
 596 -42.6276141238 459.930149424 -98 301 -98 c 2
 124 -98 l 2
 91.4844241645 -98 50 -112.87091076 50 -142 c 1
 73 -135 l 1
 100.916889723 -135 130 -153.231279951 130 -179.5 c 128
 130 -206.975477195 96.5383677347 -220 67 -220 c 256
 35.4894679075 -220 5 -199.187378902 5 -169 c 0
EndSplineSet
EndChar

StartChar: tml_Nnna
Encoding: 24 2985 26
Width: 926
GlyphClass: 2
Flags: HW
LayerCount: 2
Fore
SplineSet
21 170 m 0
 21 324.825235699 142.085354412 412 302 412 c 0
 410.923076923 412 488.923076923 394 536 358 c 1
 559.8 386 601.133333333 400 660 400 c 2
 922 400 l 1
 922 367 l 1
 840 367 l 1
 840 0 l 1
 710 0 l 1
 710 367 l 1
 659 367 l 2
 616.944444445 367 588.277777778 358.666666667 573 342 c 1
 624.32445035 299.229624708 661 226.352645854 661 136 c 128
 661 52.3907849884 606.686271739 -5 523 -5 c 256
 440.350994996 -5 385 52.0506425653 385 134 c 0
 385 216.333333333 407.666666667 277.333333333 453 317 c 1
 403.344827586 357 345.931034483 377 280.75862069 377 c 128
 153.79325279 377 56 297.886472127 56 172 c 0
 56 109.010159177 84.3309109217 49.1421482056 131 35 c 1
 107.666666667 51.0416666667 96 80.0520833333 96 122.03125 c 128
 96 205.084107946 149.046131231 254 231.5 254 c 128
 311.838427168 254 367 204.656811293 367 125 c 256
 367 37.4876534568 294.735005887 -5 201.5 -5 c 128
 97.1781631791 -5 21 65.3694620809 21 170 c 0
420 144 m 128
 420 98.2624811379 434.848224677 42 474 42 c 128
 510.980938315 42 531 95.9883036603 531 137 c 0
 531 206.571428571 511.666666667 257.238095238 473 289 c 1
 439.552372086 263.579802785 420 203.550241393 420 144 c 128
131 121.5 m 128
 131 85.2996281103 148.388022 42 182 42 c 128
 216.057594117 42 237 83.4469959497 237 120.5 c 128
 237 157.582579025 216.085947305 199 182 199 c 128
 148.337594534 199 131 157.825833054 131 121.5 c 128
EndSplineSet
EndChar

StartChar: tml_Pa
Encoding: 25 2986 27
Width: 692
GlyphClass: 2
Flags: HW
LayerCount: 2
Fore
SplineSet
45 0 m 1
 45 400 l 1
 175 400 l 1
 175 30 l 1
 517 30 l 1
 517 400 l 1
 647 400 l 1
 647 0 l 1
 45 0 l 1
EndSplineSet
EndChar

StartChar: tml_Ma
Encoding: 26 2990 28
Width: 667
GlyphClass: 2
Flags: HW
LayerCount: 2
Fore
SplineSet
45 0 m 1
 45 400 l 1
 175 400 l 1
 175 30 l 1
 319 30 l 1
 319 272 l 2
 319 347.63524244 385.640456618 406 462 406 c 0
 576.317618982 406 643 305.685578011 643 189 c 128
 643 127.666666667 632 80.8333333333 610 48.5 c 128
 588 16.1666666667 558.666666667 0 522 0 c 2
 45 0 l 1
449 30 m 1
 512 30 l 2
 583.010176966 30 608 106.707577887 608 187 c 128
 608 268.1039674 578.576202132 361 505 361 c 0
 468.975540248 361 449 314.343772803 449 275 c 2
 449 30 l 1
EndSplineSet
EndChar

StartChar: tml_Ya
Encoding: 27 2991 29
Width: 712
GlyphClass: 2
Flags: HW
LayerCount: 2
Fore
SplineSet
40 119 m 2
 40 400 l 1
 170 400 l 1
 170 113 l 2
 170 88.1694580151 177.313775997 51 198.5 51 c 128
 219.594390647 51 229 87.6933445799 229 112 c 2
 229 400 l 1
 359 400 l 1
 359 30 l 1
 537 30 l 1
 537 400 l 1
 667 400 l 1
 667 0 l 1
 247 0 l 1
 247 66 l 1
 237.450731986 26.6092694441 201.717629445 -9 155 -9 c 0
 88.9779658547 -9 40 51.7161496862 40 119 c 2
EndSplineSet
EndChar

StartChar: tml_Ra
Encoding: 28 2992 30
Width: 454
GlyphClass: 2
Flags: HW
LayerCount: 2
Fore
SplineSet
42 -142 m 1
 224 0 l 1
 224 370 l 1
 80 370 l 1
 80 0 l 1
 45 0 l 1
 45 400 l 1
 451 400 l 1
 451 370 l 1
 354 370 l 1
 354 14 l 1
 58 -165 l 1
 42 -142 l 1
EndSplineSet
EndChar

StartChar: tml_Rra
Encoding: 29 2993 31
Width: 647
GlyphClass: 2
Flags: HW
LayerCount: 2
Fore
SplineSet
9 -169 m 0
 9 -108.282443618 64.9954188913 -63 127 -63 c 2
 337 -63 l 2
 379.666666667 -63 416.333333333 -40 447 6 c 0
 477 52 492 105.166666667 492 165.5 c 128
 492 225.833333333 483.666666667 275.666666667 467 315 c 256
 450.333333333 354.333333333 430.333333333 374 407 374 c 0
 361.823328211 374 338 315.236367921 338 266 c 2
 338 0 l 1
 208 0 l 1
 208 305 l 2
 208 342.577320311 177.63522105 374 140.5 374 c 128
 103.319457816 374 76 341.520123082 76 304 c 2
 76 0 l 1
 41 0 l 1
 41 307 l 2
 41 366.011937968 97.1373729232 409 158 409 c 128
 223.666057171 409 279.283245464 377.791886341 298 331 c 1
 315.302353668 371.372158558 355.923100597 409 410 409 c 0
 560.041971928 409 622 329.44619619 622 177 c 128
 622 99 594.5 33.6666666667 539.5 -19 c 128
 484.5 -71.6666666667 418.333333333 -98 341 -98 c 2
 128 -98 l 2
 90.2976306023 -98 52.4225450581 -113.794328779 45 -142 c 1
 73 -135 l 1
 98.7843722084 -135 124 -154.651140823 124 -179.5 c 128
 124 -205.675066444 96.8912212111 -220 69 -220 c 128
 39.0422038865 -220 9 -198.241995093 9 -169 c 0
EndSplineSet
EndChar

StartChar: tml_La
Encoding: 30 2994 32
Width: 746
GlyphClass: 2
Flags: HW
LayerCount: 2
Fore
SplineSet
19 180 m 0
 19 242 43 294.833333333 91 338.5 c 128
 139 382.166666667 199.5 404 272.5 404 c 128
 393.905741519 404 522 357.199039641 522 246 c 2
 522 117 l 2
 522 75.4720725225 549.04717356 36 589 36 c 0
 658.768935456 36 683 124.836518637 683 204 c 0
 683 230.666666667 675.333333333 257.666666667 660 285 c 0
 645.333333333 312.333333333 624.333333333 337.333333333 597 360 c 0
 587.666666667 368 583 376.833333333 583 386.5 c 128
 583 406.920977322 601.893450955 422 623 422 c 0
 649 422 671.333333333 400.666666667 690 358 c 256
 708.666666667 315.333333333 718 261.833333333 718 197.5 c 128
 718 79.7833664857 666.60936904 -4 554.5 -4 c 128
 465.213271867 -4 392 31.6932148584 392 114 c 2
 392 247 l 2
 392 322.041492921 337.154943748 369 261 369 c 0
 203.666666667 369 154.833333333 350.666666667 114.5 314 c 128
 74.1666666667 277.333333333 54 233.333333333 54 182 c 0
 54 119.886819157 81.0080895941 69.3279402706 119 44 c 1
 101.666666667 61.3333333333 93 88.1666666667 93 124.5 c 128
 93 198.378444461 154.062896908 258 229 258 c 128
 306.719779201 258 360 201.627488126 360 123.5 c 128
 360 37.7973227493 294.322942375 -4 204.5 -4 c 128
 155.5 -4 112.333333333 14 75 50 c 256
 37.6666666667 86 19 129.333333333 19 180 c 0
128 114.5 m 128
 128 77.7947846193 143.747977299 31 177 31 c 128
 210.505167742 31 230 77.5858623988 230 114.5 c 128
 230 151.460734916 210.53088398 198 177 198 c 128
 143.768984888 198 128 151.156872042 128 114.5 c 128
EndSplineSet
EndChar

StartChar: tml_Lla
Encoding: 31 2995 33
Width: 917
GlyphClass: 2
Flags: HW
LayerCount: 2
Fore
SplineSet
19 196.5 m 128
 19 252.166666667 43 300.333333333 91 341 c 256
 139 381.666666667 196.666666667 402 264 402 c 0
 353.939393939 402 424.272727273 371 475 309 c 1
 475 400 l 1
 913 400 l 1
 913 367 l 1
 844 367 l 1
 844 0 l 1
 714 0 l 1
 714 367 l 1
 582 367 l 1
 582 0 l 1
 452 0 l 1
 452 218 l 1
 425.282385445 292.586673965 357.209510392 367 264 367 c 0
 206 367 156.5 350.166666667 115.5 316.5 c 128
 74.5 282.833333333 54 242.333333333 54 195 c 0
 54 124.649402656 83.0667241202 57.9777586266 134 41 c 1
 116 60.3846153846 107 89.5641025639 107 128.538461538 c 128
 107 207.934892613 162.529423503 260 243 260 c 256
 324.044086964 260 379 205.739741743 379 125.5 c 128
 379 38.1127462652 298.424020668 -1 206 -1 c 128
 154 -1 109.666666667 18 73 56 c 0
 37 94 19 140.833333333 19 196.5 c 128
142 116.5 m 128
 142 79.6870568328 160.017347122 34 194 34 c 128
 228.135989074 34 249 79.8821776236 249 117 c 128
 249 154.560273145 228.783576075 195 194 195 c 128
 159.889912468 195 142 153.608263912 142 116.5 c 128
EndSplineSet
EndChar

StartChar: tml_Llla
Encoding: 32 2996 34
Width: 667
GlyphClass: 2
Flags: HW
LayerCount: 2
Fore
SplineSet
24 -174.5 m 128
 24 -142.833333333 37.1666666667 -116.333333333 63.5 -95 c 128
 89.8333333333 -73.6666666667 118.833333333 -63 150.5 -63 c 128
 182.166666667 -63 207 -68.6666666667 225 -80 c 256
 243 -91.3333333333 252 -103.833333333 252 -117.5 c 128
 252 -147.344385654 207.992136199 -163 177 -163 c 128
 148.216131222 -163 122 -151.143524429 122 -126 c 0
 121.309926929 -122.894671182 120.964890394 -119.992678811 120.964890394 -117.294022889 c 0
 120.964890394 -108.891389677 124.309926929 -102.460048714 131 -98 c 1
 91.3126279907 -98 59 -133.392160326 59 -173 c 128
 59 -218.190429407 125.030996873 -245 173 -245 c 128
 227.213604537 -245 266 -210.01030499 266 -157.5 c 128
 266 -106.678087169 310.427262183 -63 362 -63 c 1
 335.545528724 -58.8229782196 319 -31.449030757 319 0 c 1
 45 0 l 1
 45 400 l 1
 175 400 l 1
 175 30 l 1
 319 30 l 1
 319 267 l 2
 319 350.125727411 396.453839363 411 481.5 411 c 128
 580.854133661 411 643 298.473110254 643 194 c 128
 643 97.0992470936 608.121521236 0 521 0 c 2
 448 0 l 1
 448 -33.8358233358 474.407377071 -63 508 -63 c 2
 616 -63 l 1
 616 -98 l 1
 508 -98 l 2
 452.219931555 -98 396 -132.847002875 396 -186.5 c 128
 396 -250.645455992 264.505886711 -280 190 -280 c 128
 103.531301908 -280 24 -251.139087141 24 -174.5 c 128
449 30 m 1
 522 30 l 2
 582.252844403 30 608 127.80623457 608 197 c 128
 608 273.220661356 570.069298031 370 500 370 c 0
 464.78350164 370 449 311.401798787 449 271 c 2
 449 30 l 1
EndSplineSet
EndChar

StartChar: tml_Va
Encoding: 33 2997 35
Width: 819
GlyphClass: 2
Flags: HW
LayerCount: 2
Fore
SplineSet
21 182 m 0
 21 333.210740574 135.175145305 421 290.5 421 c 128
 440.974533953 421 560 342.379027648 560 198 c 0
 560 124.602765333 537.225257865 59.9663120336 495 30 c 1
 644 30 l 1
 644 400 l 1
 774 400 l 1
 774 0 l 1
 343 0 l 1
 343 27 l 1
 395.269554712 51.8280384883 430 119.441619894 430 196 c 0
 430 296.26046062 343.714965112 376 243 376 c 256
 139.625125488 376 56 286.146271905 56 182 c 0
 56 119.886819157 83.0080895941 69.3279402706 121 44 c 1
 103.666666667 64 95 92.3333333333 95 129 c 128
 95 204.957431262 151.176566674 258 229 258 c 256
 308.710277142 258 363 204.406840244 363 125.5 c 128
 363 39.1690639802 286.167628907 1 194.5 1 c 128
 89.337905253 1 21 75.5181814306 21 182 c 0
130 118.5 m 128
 130 82.4387232785 147.046684896 36 180 36 c 128
 213.117436991 36 233 82.304608403 233 118.5 c 128
 233 154.999744186 213.264104004 198 180 198 c 128
 146.948987416 198 130 154.780255597 130 118.5 c 128
EndSplineSet
EndChar

StartChar: tml_Ssa
Encoding: 35 2999 36
Width: 1060
GlyphClass: 2
Flags: HW
LayerCount: 2
Fore
SplineSet
20 185 m 0
 20 332.716677215 139.343158919 415 292 415 c 256
 442.105167764 415 564 338.647089668 564 195 c 0
 564 121.778519667 534.037576293 61.6452766862 491 30 c 1
 707 30 l 1
 707 164 l 1
 636.49769317 164 574 214.451463508 574 284 c 128
 574 354.666488182 627.583627837 400 700 400 c 256
 764.862699887 400 837 364.60830041 837 304 c 2
 837 193 l 1
 859 193 881.5 203 904.5 223 c 128
 927.5 243 947.666666667 270 965 304 c 1
 1026 304 l 1
 1026 0 l 1
 837 0 l 1
 837 -242 l 1
 707 -242 l 1
 707 0 l 1
 347 0 l 1
 347 30 l 1
 397.373826739 57.7056047062 434 119.654570722 434 196 c 0
 434 304.418635488 354.369905383 370 244 370 c 256
 130.299303276 370 55 295.386211199 55 182 c 0
 55 119.649519585 85.1628485208 69.3509145777 125 44 c 1
 107.666666667 64 99 90.8333333333 99 124.5 c 128
 99 196.611992247 157.795656624 243 233 243 c 256
 310.739223293 243 367 198.037713671 367 122 c 256
 367 39.822171082 291.832781042 0 204 0 c 128
 154 0 110.666666667 18 74 54 c 0
 38 90 20 133.666666667 20 185 c 0
609 277.5 m 128
 609 229.548732246 657.005585034 192 707 192 c 1
 707 302 l 2
 707 330.279380587 689.45200893 354 661.5 354 c 128
 628.601499346 354 609 313.898687175 609 277.5 c 128
134 119.5 m 128
 134 85.116242174 151.995518194 46 184 46 c 128
 215.906569983 46 237 84.8816725216 237 119 c 128
 237 153.146271271 215.927074428 192 184 192 c 128
 151.979991686 192 134 153.932667078 134 119.5 c 128
837 30 m 1
 896 30 l 1
 896 179 l 1
 881.714285714 169 862.047619047 164 837 164 c 1
 837 30 l 1
EndSplineSet
EndChar

StartChar: tml_Sa
Encoding: 36 3000 37
Width: 1049
GlyphClass: 2
Flags: HW
LayerCount: 2
Fore
SplineSet
20 188 m 0
 20 328.543942354 126.487387085 411 270 411 c 0
 379.469960215 411 481.419593005 374.737597711 517 305 c 1
 533.212316169 363.613758459 591.210884856 411 664 411 c 0
 753.297162639 411 832 343.709272032 832 256 c 2
 832 117 l 2
 832 80.2897115555 852.481989645 39 887 39 c 0
 959.149273821 39 987 122.982236919 987 204 c 0
 987 234 979.333333333 260.666666667 964 284 c 128
 948.666666667 307.333333333 927.333333333 332.666666667 900 360 c 0
 894.666666667 365.333333333 892 373.166666667 892 383.5 c 128
 892 403.133668139 907.747242901 422 927 422 c 0
 953 422 975.333333333 400.666666667 994 358 c 256
 1012.66666667 315.333333333 1022 262.666666667 1022 200 c 128
 1022 87.9209578054 965.79788353 -11 859.5 -11 c 128
 772.025218853 -11 702 30.4691301692 702 114 c 2
 702 257 l 2
 702 308.878597068 679.405160067 376 632.5 376 c 128
 586.298202474 376 558 318.744660836 558 269 c 2
 558 0 l 1
 428 0 l 1
 428 235 l 2
 428 315.694795645 351.778683608 376 269 376 c 0
 147.425321726 376 55 307.896882221 55 190 c 0
 55 122.306897689 81.768285531 58.0229580479 130 41 c 1
 111.333333333 62.3333333333 102 91.3333333333 102 128 c 128
 102 204.930202843 161.711589414 255 241 255 c 256
 321.705209912 255 380 203.577117033 380 124.5 c 128
 380 44.2159912828 303.407791862 -11 221 -11 c 0
 165.666666667 -11 118.333333333 8.5 79 47.5 c 128
 39.6666666667 86.5 20 133.333333333 20 188 c 0
137 121 m 128
 137 85.0353649866 157.904147926 44 192 44 c 128
 226.434958557 44 250 82.2248881257 250 119 c 128
 250 155.774457429 226.910331327 195 192 195 c 128
 157.837435499 195 137 157.149484357 137 121 c 128
EndSplineSet
EndChar

StartChar: tml_Ha
Encoding: 37 3001 38
Width: 1230
GlyphClass: 2
Flags: HW
LayerCount: 2
Fore
SplineSet
20 -164 m 0
 20 -105.002173297 77.2041206522 -63 138 -63 c 2
 906 -63 l 2
 952 -63 991.333333333 -40.3333333333 1024 5 c 256
 1056.66666667 50.3333333333 1073 104.333333333 1073 167 c 128
 1073 229.666666667 1065.16666667 279.166666667 1049.5 315.5 c 128
 1033.83333333 351.833333333 1013 370 987 370 c 0
 951.09475372 370 926 331.415841054 926 294 c 2
 926 0 l 1
 796 0 l 1
 796 295 l 2
 796 331.795445555 772.460380858 370 738 370 c 128
 703.925851113 370 684 329.971506641 684 294 c 2
 684 0 l 1
 343 0 l 1
 343 30 l 1
 392.211636818 57.0664002498 430 117.262451378 430 191 c 0
 430 301.109443902 352.844265985 370 242 370 c 256
 127.566907558 370 55 292.294012789 55 177 c 0
 55 116.98911954 83.1045758501 68.4486607419 121 44 c 1
 103.666666667 61.3333333333 95 88.1666666667 95 124.5 c 128
 95 200.072419996 151.516023725 248 229 248 c 256
 307.327061578 248 363 199.869162168 363 123 c 128
 363 40.2458627349 291.902779318 0 204 0 c 128
 154.666666667 0 111.666666667 17.5 75 52.5 c 128
 38.3333333333 87.5 20 130 20 180 c 0
 20 331.662141227 134.371806329 420 290 420 c 256
 442.715642628 420 560 337.301128403 560 190 c 0
 560 119.422669605 537.330977596 59.5760502373 497 30 c 1
 649 30 l 1
 649 292 l 2
 649 356.560408736 696.877973349 400 761 400 c 128
 821.520059193 400 870.614562567 374.358960039 886 331 c 1
 900.949439494 373.130238575 952.045867625 400 1010 400 c 0
 1138.66666667 400 1203 324 1203 172 c 0
 1203 -20.3371164113 1102.78667521 -98 906 -98 c 2
 139 -98 l 2
 103.468066245 -98 55 -112.654912188 55 -144 c 1
 88 -135 l 1
 111.377880785 -135 130 -156.02594179 130 -179.5 c 128
 130 -205.328523453 106.341378558 -220 79 -220 c 128
 48.6720136566 -220 20 -194.405226449 20 -164 c 0
130 120 m 128
 130 86.2325946613 147.976583915 46 180 46 c 128
 211.417230901 46 233 86.7738335383 233 120 c 128
 233 153.683458291 211.617664704 188 180 188 c 128
 147.822759801 188 130 154.181051093 130 120 c 128
EndSplineSet
EndChar

StartChar: tml_MatraAa
Encoding: 38 3006 39
Width: 454
GlyphClass: 2
Flags: HW
LayerCount: 2
Fore
SplineSet
45 0 m 1
 45 400 l 1
 451 400 l 1
 451 370 l 1
 354 370 l 1
 354 0 l 1
 224 0 l 1
 224 370 l 1
 80 370 l 1
 80 0 l 1
 45 0 l 1
EndSplineSet
EndChar

StartChar: tml_MatraI
Encoding: 39 3007 40
Width: 390
GlyphClass: 2
Flags: HW
LayerCount: 2
Fore
SplineSet
45 505 m 0
 45 588.549802463 111.96164527 660 195 660 c 256
 282.390574592 660 345 574.227473821 345 484 c 2
 345 0 l 1
 310 0 l 1
 310 482 l 2
 310 542.769188463 250.75338787 591 189.5 591 c 128
 128.144394634 591 80 544.95483004 80 484.5 c 128
 80 454.833333333 93.3333333333 426.666666667 120 400 c 1
 81 400 l 1
 57 440 45 475 45 505 c 0
EndSplineSet
EndChar

StartChar: tml_MatraIi
Encoding: 40 3008 41
Width: 495
GlyphClass: 2
Flags: HW
LayerCount: 2
Fore
SplineSet
228 535.5 m 128
 228 506.410502452 246.224298017 476 274 476 c 256
 302.447761674 476 320 505.786776924 320 535.5 c 128
 320 564.589497548 301.775701983 595 274 595 c 256
 245.552238326 595 228 565.213223076 228 535.5 c 128
45 489 m 0
 45 534.333333333 64.5 573.166666667 103.5 605.5 c 128
 142.5 637.833333333 191.333333333 654 250 654 c 128
 343.986835732 654 450 620.320807449 450 536 c 128
 450 462.856261661 396.164750878 421 321.5 421 c 128
 248.765729849 421 193 462.41356448 193 532.571428571 c 128
 193 565.619047619 203 591.428571429 223 610 c 1
 150.70705599 610 80 561.638117669 80 491.863636364 c 128
 80 459.106060606 95.6666666667 428.484848485 127 400 c 1
 82 400 l 1
 57.3333333333 435.629629629 45 465.296296296 45 489 c 0
EndSplineSet
EndChar

StartChar: tml_MatraU
Encoding: 41 3009 42
Width: 356
GlyphClass: 4
Flags: HW
LayerCount: 2
Fore
SplineSet
-87 370 m 1
 -87 400 l 1
 340 400 l 1
 340 320 l 2
 340 253.236397172 272.708301947 206 203.5 206 c 128
 134.259831591 206 67 253.218751819 67 320 c 2
 67 370 l 1
 -87 370 l 1
102 320 m 2
 102 287.120173024 124.46736402 256 156 256 c 256
 187.502513484 256 210 288.191890776 210 321 c 2
 210 370 l 1
 102 370 l 1
 102 320 l 2
EndSplineSet
Substitution2: "Single Substitution lookup 7 subtable" tml_MatraU.abvs
EndChar

StartChar: tml_MatraUu
Encoding: 42 3010 43
Width: 621
GlyphClass: 4
Flags: HW
LayerCount: 2
Fore
SplineSet
-87 370 m 1
 -87 400 l 1
 143 400 l 1
 143 485.613640795 230.057536354 544 319 544 c 0
 496.625278985 544 598 463.629818986 598 290 c 128
 598 107.53878802 467.20292164 39 274 39 c 0
 143.073116307 39 55 124.335370485 55 255 c 1
 84 255 l 1
 84 143.557170484 161.094634967 74 274 74 c 128
 395.863389502 74 468 164.304060007 468 289.5 c 128
 468 399.280026141 420.813877811 509 320.5 509 c 128
 246.89510522 509 170 468.51975802 170 400 c 1
 410 400 l 1
 410 320 l 2
 410 252.575469362 344.466233762 205 275 205 c 256
 205.471210309 205 140 254.563716514 140 322 c 2
 140 370 l 1
 -87 370 l 1
175 320 m 2
 175 287.224245099 195.502341152 255 227 255 c 256
 258.475772489 255 280 288.271417033 280 321 c 2
 280 370 l 1
 175 370 l 1
 175 320 l 2
EndSplineSet
Substitution2: "Single Substitution lookup 7 subtable" tml_MatraUu.abvs
EndChar

StartChar: tml_MatraE
Encoding: 43 3014 44
Width: 703
GlyphClass: 2
Flags: HW
LayerCount: 2
Fore
SplineSet
24 322.5 m 128
 24 424.833333333 52.6666666667 508.833333333 110 574.5 c 128
 167.333333333 640.166666667 243.833333333 673 339.5 673 c 128
 435.166666667 673 512.333333333 643.666666667 571 585 c 0
 629 525.666666667 658 447 658 349 c 2
 658 0 l 1
 623 0 l 1
 623 349 l 2
 623 418.333333333 595.5 477.333333333 540.5 526 c 128
 485.5 574.666666667 417.166666667 599 335.5 599 c 128
 253.833333333 599 187.333333333 572.833333333 136 520.5 c 128
 84.6666666667 468.166666667 59 399.5 59 314.5 c 128
 59 155.376512716 145.21154497 37 299 37 c 0
 314.333333333 37 326 38.3333333333 334 41 c 1
 290.271842372 61.7133378237 250 107.700921898 250 168 c 0
 250 248.831835549 325.163687187 306 409 306 c 128
 500.265887189 306 563 249.07510511 563 157 c 128
 563 110.333333333 539 72 491 42 c 256
 443 12 378.333333333 -3 297 -3 c 128
 215.666666667 -3 149.666666667 25.6666666667 99 83 c 0
 49 140.333333333 24 220.166666667 24 322.5 c 128
285 163 m 128
 285 106.632486967 322.885370734 63.5477621943 365 46 c 1
 405.008955653 60.1967261995 433 104.913423587 433 158.5 c 128
 433 205.297555231 405.135117747 254 360.5 254 c 128
 315.89916492 254 285 209.584631223 285 163 c 128
EndSplineSet
EndChar

StartChar: tml_MatraEe
Encoding: 44 3015 45
Width: 649
GlyphClass: 2
Flags: HW
LayerCount: 2
Fore
SplineSet
21 330.5 m 128
 21 422.166666667 52.3333333333 500.5 115 565.5 c 128
 177.666666667 630.5 253.166666667 663 341.5 663 c 128
 429.833333333 663 500.5 647 553.5 615 c 128
 606.5 583 633 540.333333333 633 487 c 0
 633 411.386243105 573.831219705 369 496 369 c 256
 418.692588915 369 360 410.239738397 360 485 c 0
 360 538.258711145 394.937988646 579.507525404 436 594 c 1
 411.333333333 606 377.666666667 612 335 612 c 0
 257.666666667 612 191.833333333 584.5 137.5 529.5 c 128
 83.1666666667 474.5 56 408 56 330 c 128
 56 252 83 185.166666667 137 129.5 c 128
 191 73.8333333333 256 46 332 46 c 0
 382.666666667 46 416.666666667 52 434 64 c 1
 386.97619567 72.8169633119 360 123.093286124 360 182 c 128
 360 253.404365991 420.954558381 298 496 298 c 256
 576.17105657 298 633 249.049476369 633 170 c 0
 633 45.0101210819 478.855832519 -1 338.5 -1 c 128
 250.166666667 -1 175.166666667 31.3333333333 113.5 96 c 128
 51.8333333333 160.666666667 21 238.833333333 21 330.5 c 128
395 483 m 128
 395 448.772747031 416.521384293 414 449 414 c 256
 481.461846176 414 503 448.792520198 503 483 c 128
 503 517.092688544 481.424960526 554 449 554 c 256
 416.591593626 554 395 517.071713465 395 483 c 128
395 174 m 256
 395 138.460615469 415.730913119 100 449 100 c 256
 482.249334817 100 503 138.487598686 503 174 c 128
 503 209.539384531 482.269086881 248 449 248 c 256
 415.750665183 248 395 209.512401314 395 174 c 256
EndSplineSet
EndChar

StartChar: tml_MatraAi
Encoding: 45 3016 46
Width: 916
GlyphClass: 2
Flags: HW
LayerCount: 2
Fore
SplineSet
19 170 m 0
 19 236.666666667 47 293.666666667 103 341 c 256
 159 388.333333333 226.333333333 412 305 412 c 0
 414.111111111 412 487.777777778 397.666666667 526 369 c 1
 554.666666667 397.666666667 602 412 668 412 c 128
 793.419108301 412 895 332.07786318 895 209.5 c 128
 895 95.0824287817 819.837292579 3.86264454172 718 -7 c 1
 709 25 l 1
 746.333333333 76.3333333333 765 135.333333333 765 202 c 0
 765 278.889939742 728.788582807 377 659 377 c 0
 616.333333333 377 584.333333333 368.333333333 563 351 c 1
 617.615558305 303.356640627 661 236.21503909 661 141.5 c 128
 661 57.8738343917 604.217089988 -3 520 -3 c 256
 432.962382056 -3 380 58.8663487994 380 147 c 0
 380 207.407407407 404.666666667 267.074074074 454 326 c 1
 414.56 360 360.7 377 292.42 377 c 128
 224.14 377 167.333333333 357 122 317 c 256
 76.6666666667 277 54 228.666666667 54 172 c 0
 54 109.010159177 82.3309109217 49.1421482056 129 35 c 1
 105.666666667 51.0416666667 94 79.5520833333 94 120.53125 c 128
 94 202.231364851 147.843307988 254 229.5 254 c 128
 310.099283632 254 365 206.622598998 365 126.5 c 128
 365 40.0425794659 282.070999373 -8 191.5 -8 c 128
 92.1695819058 -8 19 71.3044114683 19 170 c 0
415 147 m 0
 415 97.4795125166 428.249435062 42 471.5 42 c 128
 513.986619256 42 531 96.4174016554 531 144 c 0
 531 204.804597701 510.666666667 254.137931035 470 292 c 1
 433.333333333 252.617283951 415 204.283950617 415 147 c 0
129 118.5 m 128
 129 81.2803219187 145.810419599 32 180 32 c 128
 214.666532392 32 235 80.4576002291 235 118.5 c 128
 235 157.068388722 214.914473358 199 180 199 c 128
 145.601500528 199 129 156.190658175 129 118.5 c 128
EndSplineSet
EndChar

StartChar: tml_Virama
Encoding: 49 3021 50
Width: 320
GlyphClass: 2
Flags: HW
LayerCount: 2
Fore
SplineSet
80 543 m 256
 80 583.600724638 117.70034979 613 159.5 613 c 128
 201.26695816 613 240 583.594260234 240 543 c 128
 240 502.417762495 201.269222443 472 159.5 472 c 128
 117.669421063 472 80 502.393953423 80 543 c 256
EndSplineSet
EndChar

StartChar: tml_Zero
Encoding: 52 3046 52
Width: 515
GlyphClass: 2
Flags: HW
LayerCount: 2
Fore
SplineSet
50 204.5 m 128
 50 318.641922764 142.982486589 413 257 413 c 256
 314.333333333 413 363.333333333 392.666666667 404 352 c 256
 444.666666667 311.333333333 465 262.166666667 465 204.5 c 128
 465 146.833333333 444.666666667 97.6666666667 404 57 c 256
 363.333333333 16.3333333333 314.333333333 -4 257 -4 c 256
 142.980530846 -4 50 90.3626074761 50 204.5 c 128
180 204 m 256
 180 156 187.666666667 115.333333333 203 82 c 0
 217.666666667 48 235.666666667 31 257 31 c 256
 278.333333333 31 296.666666667 47.8333333333 312 81.5 c 128
 327.333333333 115.166666667 335 156 335 204 c 128
 335 252 327.333333333 293 312 327 c 256
 296.666666667 361 278.333333333 378 257 378 c 256
 235.666666667 378 217.5 361 202.5 327 c 128
 187.5 293 180 252 180 204 c 256
EndSplineSet
EndChar

StartChar: tml_One
Encoding: 53 3047 53
Width: 707
GlyphClass: 2
Flags: HW
LayerCount: 2
Fore
SplineSet
50 134 m 0
 50 190.948334072 100.021442703 220 160 220 c 2
 175 220 l 1
 175 400 l 1
 559 400 l 1
 559 370 l 1
 450 370 l 1
 450 220 l 1
 532 220 l 2
 606.342411076 220 657 181.300776579 657 107.5 c 128
 657 71.1666666667 641 44.1666666667 609 26.5 c 128
 577 8.83333333333 524.333333333 0 451 0 c 1
 451 30 l 1
 507.750248704 30 527 54.9098817883 527 113 c 0
 527 161 510.333333333 185 477 185 c 2
 450 185 l 1
 450 131 l 2
 450 42.3333333333 368 -2 204 -2 c 0
 123.843424522 -2 50 55.9396249617 50 134 c 0
210 220 m 1
 320 220 l 1
 320 370 l 1
 210 370 l 1
 210 220 l 1
85 135 m 0
 85 71.485510516 137.210438574 33 202 33 c 128
 265.137117659 33 320 77.1187971007 320 138 c 2
 320 185 l 1
 152 185 l 2
 116.350550411 185 85 168.756175767 85 135 c 0
EndSplineSet
EndChar

StartChar: tml_Two
Encoding: 54 3048 54
Width: 617
GlyphClass: 2
Flags: HW
LayerCount: 2
Fore
SplineSet
50 64 m 256
 50 105.157378506 98.8086675588 130 143 130 c 2
 302 130 l 2
 359.812922827 130 399 191.254460921 399 252 c 128
 399 319.190808423 342.004888267 372 275 372 c 2
 244 372 l 1
 288.337720022 364.041947688 333 331.690829081 333 283 c 0
 333 214.090885464 273.969713753 177 202 177 c 256
 130.665781506 177 71 211.90933815 71 280 c 0
 71 378.537308616 169.212191043 417 278.5 417 c 128
 389.823952994 417 529 355.165030501 529 250.5 c 128
 529 144.388579474 420.902479028 95 306 95 c 2
 230 95 l 2
 207.05281323 95 179 83.5607186109 179 62.5 c 128
 179 41.4143885783 205.992452408 30 229 30 c 2
 567 30 l 1
 567 0 l 1
 157 0 l 2
 109.995046506 0 50 21.3066879506 50 64 c 256
106 281 m 128
 106 248.739697084 122.523665112 219 153 219 c 128
 183.02874221 219 203 251.541076851 203 283.5 c 128
 203 315.263231697 182.954922587 351 153 351 c 128
 122.768938525 351 106 312.686621523 106 281 c 128
EndSplineSet
EndChar

StartChar: tml_Three
Encoding: 55 3049 55
Width: 690
GlyphClass: 2
Flags: HW
LayerCount: 2
Fore
SplineSet
50 0 m 1
 50 400 l 1
 514 400 l 1
 514 370 l 1
 353 370 l 1
 353 257 l 1
 375.666666667 272.333333333 406.5 280 445.5 280 c 128
 524.383576163 280 579 225.708501887 579 146 c 0
 579 88.9796211419 530.440463381 47.3106527167 485 30 c 1
 640 30 l 1
 640 0 l 1
 223 0 l 1
 223 30 l 1
 389 30 l 1
 424.210080034 48.8625428755 449 94.1785041564 449 147 c 128
 449 185.636942084 427.204428501 235 393.5 235 c 128
 367.302922898 235 353 213.168387945 353 187 c 2
 353 110 l 1
 223 110 l 1
 223 370 l 1
 85 370 l 1
 85 0 l 1
 50 0 l 1
EndSplineSet
EndChar

StartChar: tml_Four
Encoding: 56 3050 56
Width: 700
GlyphClass: 2
Flags: HW
LayerCount: 2
Fore
SplineSet
50 134 m 0
 50 190.948334072 100.021442703 220 160 220 c 2
 165 220 l 1
 165 400 l 1
 550 400 l 1
 550 370 l 1
 450 370 l 1
 450 220 l 1
 520 220 l 1
 520 264 l 1
 650 264 l 1
 650 185 l 1
 450 185 l 1
 450 131 l 2
 450 42.3333333333 374.666666667 -2 224 -2 c 0
 128.983968924 -2 50 43.6570426955 50 134 c 0
200 220 m 1
 320 220 l 1
 320 370 l 1
 200 370 l 1
 200 220 l 1
85 135 m 0
 85 65.8139169358 150.756088491 33 225 33 c 0
 284.58787503 33 320 76.9766897423 320 138 c 2
 320 185 l 1
 153 185 l 2
 116.584295252 185 85 169.180396496 85 135 c 0
EndSplineSet
EndChar

StartChar: tml_Five
Encoding: 57 3051 57
Width: 853
GlyphClass: 2
Flags: HW
LayerCount: 2
Fore
SplineSet
50 195 m 128
 50 310.333333333 89.5 407.666666667 168.5 487 c 128
 247.5 566.333333333 343 606 455 606 c 0
 599.404236585 606 735.972560046 530.155493075 757 411 c 1
 726 411 l 1
 700.281890649 512.443653552 581.429425597 571 449 571 c 128
 377 571 314.166666667 534.833333333 260.5 462.5 c 128
 206.833333333 390.166666667 180 301.333333333 180 196 c 128
 180 10.9196451478 263.102847641 -157 437 -157 c 0
 502.333333333 -157 558 -135.833333333 604 -93.5 c 128
 650 -51.1666666667 673 0 673 60 c 0
 673 113.903965476 650.669206239 188 603 188 c 0
 584.828654994 188 574 167.454154532 574 148 c 2
 574 0 l 1
 444 0 l 1
 444 370 l 1
 303 370 l 1
 303 0 l 1
 268 0 l 1
 268 400 l 1
 673 400 l 1
 673 370 l 1
 574 370 l 1
 574 214 l 1
 598.666666667 230 625.666666667 238 655 238 c 0
 742.407565987 238 803 149.05084996 803 58 c 0
 803 -11.3333333333 767.166666667 -70.3333333333 695.5 -119 c 128
 623.833333333 -167.666666667 537.333333333 -192 436 -192 c 0
 319.333333333 -192 225.666666667 -156.333333333 155 -85 c 0
 85 -13.6666666667 50 79.6666666667 50 195 c 128
EndSplineSet
EndChar

StartChar: tml_Six
Encoding: 58 3052 58
Width: 916
GlyphClass: 2
Flags: HW
LayerCount: 2
Fore
SplineSet
50 134 m 0
 50 189.362956441 92.974809285 220 150 220 c 2
 165 220 l 1
 165 400 l 1
 596 400 l 1
 596 370 l 1
 450 370 l 1
 450 220 l 1
 866 220 l 1
 866 185 l 1
 800 185 l 1
 800 0 l 1
 670 0 l 1
 670 185 l 1
 616 185 l 1
 616 0 l 1
 486 0 l 1
 486 185 l 1
 450 185 l 1
 450 131 l 2
 450 42.3333333333 373 -2 219 -2 c 0
 125.347786297 -2 50 44.6016678607 50 134 c 0
200 220 m 1
 320 220 l 1
 320 370 l 1
 200 370 l 1
 200 220 l 1
85 135 m 0
 85 70.6549732247 146.010961907 33 212 33 c 128
 280.018651576 33 320 71.6481425528 320 138 c 2
 320 185 l 1
 153 185 l 2
 116.584295252 185 85 169.180396496 85 135 c 0
EndSplineSet
EndChar

StartChar: tml_Seven
Encoding: 59 3053 59
Width: 714
GlyphClass: 2
Flags: HW
LayerCount: 2
Fore
SplineSet
50 188 m 128
 50 244.666666667 72.3333333333 294.166666667 117 336.5 c 128
 161.666666667 378.833333333 215.333333333 400 278 400 c 2
 664 400 l 1
 664 370 l 1
 588 370 l 1
 588 0 l 1
 458 0 l 1
 458 370 l 1
 278 370 l 2
 172.728414022 370 85 285.02623409 85 180 c 0
 85 121.010387783 107.806782657 64.6250134751 149 49 c 1
 130.333333333 71.6666666667 121 95.3333333333 121 120 c 0
 121 199.260557881 192.454645736 260 273 260 c 256
 352.406538791 260 425 201.581052917 425 124 c 128
 425 44.1356410869 344.962151809 -10 262 -10 c 0
 203.333333333 -10 153.333333333 8.83333333333 112 46.5 c 128
 70.6666666667 84.1666666667 50 131.333333333 50 188 c 128
156 117.5 m 128
 156 75.7500324127 184.402743457 37 225 37 c 256
 265.810073528 37 295 76.9043542833 295 119 c 128
 295 161.160930773 265.835831522 200 225 200 c 256
 184.440304939 200 156 159.141472815 156 117.5 c 128
EndSplineSet
EndChar

StartChar: tml_Eight
Encoding: 60 3054 60
Width: 1003
GlyphClass: 2
Flags: HW
LayerCount: 2
Fore
SplineSet
50 27 m 0
 50 59.4003232094 80.5248782049 83 114 83 c 2
 614 83 l 1
 637.333333333 127 649 171.166666667 649 215.5 c 128
 649 295.422184795 598.483783275 377 522 377 c 1
 556.961600297 356.241549824 592 317.580303748 592 267 c 0
 592 183.597719158 524.823987471 138 438.5 138 c 128
 350.353406207 138 285 187.945701937 285 274 c 128
 285 315.333333333 305.666666667 348.666666667 347 374 c 0
 389 399.333333333 447.333333333 412 522 412 c 128
 653.706770504 412 779 344.357344551 779 220 c 128
 779 164 770 118.333333333 752 83 c 1
 823 83 l 1
 823 400 l 1
 953 400 l 1
 953 -134 l 1
 823 -134 l 1
 823 48 l 1
 734 48 l 1
 673.518641289 -56.8343550985 515.19414907 -120 348 -120 c 128
 262 -120 190.833333333 -105.666666667 134.5 -77 c 128
 78.1666666667 -48.3333333333 50 -13.6666666667 50 27 c 0
320 271 m 128
 320 224.409469711 357.788176429 188 404.5 188 c 128
 451.129815207 188 492 224.414093339 492 271 c 128
 492 317.490188538 451.133248614 358 404.5 358 c 128
 357.779441679 358 320 317.494623158 320 271 c 128
85 28 m 0
 85 -50.5215704659 222.060093904 -85 312 -85 c 128
 438.970248078 -85 540.23721426 -30.6823178971 591 48 c 1
 111 48 l 2
 98.2226316733 48 85 40.0123920338 85 28 c 0
EndSplineSet
EndChar

StartChar: tml_Nine
Encoding: 61 3055 61
Width: 929
GlyphClass: 2
Flags: HW
LayerCount: 2
Fore
SplineSet
50 134 m 0
 50 184.588571724 98.5812904154 220 150 220 c 2
 165 220 l 1
 165 400 l 1
 550 400 l 1
 550 370 l 1
 440 370 l 1
 440 220 l 1
 553 220 l 1
 589 245.333333333 634.666666667 258 690 258 c 128
 791.319779019 258 879 205.295852198 879 108 c 0
 879 58.7680064668 858.031903695 17.9378660692 826 0 c 1
 713 0 l 1
 713 30 l 1
 737.920133952 44.6589023245 749 77.4304046635 749 119 c 128
 749 164.466874702 711.443233956 213 666 213 c 0
 658.666666667 213 647.666666667 211.333333333 633 208 c 256
 618.333333333 204.666666667 614.666666667 203 622 203 c 0
 666.090828199 193.355131331 694 149.927767169 694 95 c 128
 694 34.9764890905 648.907677377 -8 587 -8 c 256
 520.300476908 -8 480 35.4598375007 480 103.125 c 128
 480 137.875 491.333333333 165.166666667 514 185 c 1
 440 185 l 1
 440 131 l 2
 440 40.015353191 316.533725067 -8 217 -8 c 0
 131.482904421 -8 50 51.0411706814 50 134 c 0
200 220 m 1
 310 220 l 1
 310 370 l 1
 200 370 l 1
 200 220 l 1
85 135 m 0
 85 74.7124029521 144.043388379 27 204.5 27 c 128
 264.872353829 27 310 74.4825097146 310 134 c 2
 310 185 l 1
 142 185 l 2
 111.922839478 185 85 164.287944745 85 135 c 0
515 103 m 256
 515 69.6039762734 529.981327649 27 560.5 27 c 128
 591.421376141 27 609 68.5171606455 609 102.5 c 128
 609 136.249615013 594.202271506 179 563.5 179 c 128
 532.126197274 179 515 137.170288752 515 103 c 256
EndSplineSet
EndChar

StartChar: tml_Ten
Encoding: 62 3056 62
Width: 600
GlyphClass: 2
Flags: HW
LayerCount: 2
Fore
SplineSet
41 98 m 2
 41 400 l 1
 76 400 l 1
 76 98 l 2
 76 65.6183758647 93.943040866 30 124.5 30 c 128
 155.109008154 30 175 65.5645221373 175 98 c 2
 175 400 l 1
 305 400 l 1
 305 97 l 2
 305 64.1583955444 324.893650272 30 356 30 c 0
 380.666666667 30 402 49.6666666667 420 89 c 0
 437.333333333 128.333333333 446 177.166666667 446 235.5 c 128
 446 330.569579043 397.372906904 453 310 453 c 2
 41 453 l 1
 41 488 l 1
 320 488 l 2
 390.666666667 488 451 462.833333333 501 412.5 c 128
 551 362.166666667 576 301.333333333 576 230 c 128
 576 96.8625506876 504.603395772 -5 376 -5 c 0
 318.137782515 -5 273.550754241 26.1073594142 253 66 c 1
 238.80130594 24.6947081895 193.406563455 -5 138.5 -5 c 128
 83.6367141543 -5 41 42.4790225783 41 98 c 2
EndSplineSet
EndChar

StartChar: tml_Hundred
Encoding: 63 3057 63
Width: 628
GlyphClass: 2
Flags: HW
LayerCount: 2
Fore
SplineSet
40 0 m 1
 40 309 l 2
 40 364.917461139 102.189696046 400 161 400 c 256
 220.212398667 400 278.718099802 377.797233972 292 335 c 1
 304.341340737 370.789888138 341.386660766 400 388 400 c 2
 625 400 l 1
 625 370 l 1
 566 370 l 1
 566 0 l 1
 436 0 l 1
 436 370 l 1
 398 370 l 2
 362.084433943 370 336 337.699787822 336 301 c 2
 336 0 l 1
 206 0 l 1
 206 305 l 2
 206 339.085666978 174.566463421 365 140 365 c 256
 106.561274577 365 75 341.391395261 75 309 c 2
 75 0 l 1
 40 0 l 1
EndSplineSet
EndChar

StartChar: tml_Thousand
Encoding: 64 3058 64
Width: 788
GlyphClass: 2
Flags: HW
LayerCount: 2
Fore
SplineSet
13 122 m 0
 13 173.609215012 56.4444483693 215 108 215 c 2
 126 215 l 1
 126 400 l 1
 520 400 l 1
 520 370 l 1
 385 370 l 1
 385 215 l 1
 682 215 l 1
 682 180 l 1
 575 180 l 1
 575 107 l 1
 603.666666667 121.666666667 633.666666667 129 665 129 c 256
 726.059071041 129 779 80.5487147508 779 20 c 0
 779 -27.3333333333 751.5 -65.3333333333 696.5 -94 c 128
 641.5 -122.666666667 568.333333333 -137 477 -137 c 2
 173 -137 l 2
 139.785690033 -137 97.5556132667 -143.46652816 89 -164 c 1
 97.6666666667 -160.666666667 106.083333333 -159 114.25 -159 c 128
 137.705424401 -159 161 -173.736489883 161 -192 c 128
 161 -218.289304742 122.388976908 -231 95 -231 c 128
 61.8764604729 -231 43 -206.30428926 43 -172.5 c 128
 43 -126.821156487 120.219820143 -102 173 -102 c 2
 476 -102 l 2
 554.687415747 -102 649 -62.0581712303 649 10 c 0
 649 40.3188675798 632.942600718 79 606.5 79 c 128
 586.573535845 79 575 63.3338798008 575 44 c 2
 575 0 l 1
 445 0 l 1
 445 180 l 1
 385 180 l 1
 385 134 l 2
 385 44.014085292 266.723092418 -5 169 -5 c 0
 90.0024730868 -5 13 46.1162025185 13 122 c 0
161 215 m 1
 255 215 l 1
 255 370 l 1
 161 370 l 1
 161 215 l 1
48 119.5 m 128
 48 70.1693063019 104.865125921 28.5609756098 157.844140393 28.5609756098 c 0
 212.819382052 28.5609756098 255 79.4830598056 255 132 c 2
 255 180 l 1
 109 180 l 2
 74.6137406358 180 48 154.720655604 48 119.5 c 128
EndSplineSet
EndChar

StartChar: tml_Day
Encoding: 65 3059 65
Width: 740
GlyphClass: 2
Flags: HW
LayerCount: 2
Fore
SplineSet
20 182 m 0
 20 248 47 304.333333333 101 351 c 256
 155 397.666666667 220.333333333 421 297 421 c 256
 373.666666667 421 439 399.166666667 493 355.5 c 128
 547 311.833333333 574 259.333333333 574 198 c 0
 574 123.853909978 542.687761298 62.453765536 499 30 c 1
 737 30 l 1
 737 0 l 1
 357 0 l 1
 357 27 l 1
 409.269554712 51.8280384883 444 119.441619894 444 196 c 0
 444 298.02945132 352.910609027 376 249.5 376 c 128
 143.305468821 376 55 288.044654353 55 182 c 0
 55 119.886819157 82.0080895941 69.3279402706 120 44 c 1
 102.666666667 64 94 91.6666666667 94 127 c 128
 94 201.28282211 151.371963866 248 228 248 c 256
 306.873105225 248 362 199.723610835 362 122 c 256
 362 36.2552105216 284.987823013 -4 193.5 -4 c 128
 87.3552143647 -4 20 73.9942886804 20 182 c 0
129 119.5 m 128
 129 85.116242174 146.995518194 46 179 46 c 128
 211.11967341 46 232 85.007367598 232 119.5 c 128
 232 154.256925553 213.015493188 193 180.5 193 c 128
 148.002895471 193 129 154.228964147 129 119.5 c 128
EndSplineSet
EndChar

StartChar: tml_Month
Encoding: 66 3060 66
Width: 667
GlyphClass: 2
Flags: HW
LayerCount: 2
Fore
SplineSet
45 0 m 1
 45 400 l 1
 175 400 l 1
 175 30 l 1
 319 30 l 1
 319 271 l 2
 319 336.233024674 367.343578362 383.618002157 420 400 c 1
 400.666666667 423.476190476 391 447.678571428 391 472.607142857 c 128
 391 532.73290745 470.231499898 571 536 571 c 1
 570 605 618.666666667 622 682 622 c 0
 720 622 753.333333333 613.333333333 782 596 c 1
 812 613.333333333 838.5 622 861.5 622 c 0
 903.255555555 622 933.088888889 611.666666667 951 591 c 1
 936 573 l 1
 919.333333333 582.333333333 897 587 869 587 c 0
 862.333333333 587 852.333333333 583.666666667 839 577 c 1
 865.666666667 563.666666667 879 547.666666667 879 529 c 128
 879 488.045678515 832.427994542 465 789.5 465 c 128
 746.191708193 465 702 490.916480386 702 532.2 c 128
 702 551 713 566.266666667 735 578 c 1
 723 587.333333333 706.166666667 592 684.5 592 c 0
 643.439393939 592 615.939393939 584.333333333 602 569 c 1
 641.32540253 569 677 539.547671231 677 501 c 128
 677 458.854846645 626.474044119 436 581.5 436 c 128
 537.386696614 436 486 457.808898344 486 498.722222222 c 128
 486 516.537037037 492.666666667 530.629629629 506 541 c 1
 462.094516039 541 426 507.631659038 426 463.5 c 128
 426 441.166666667 435.666666667 420.333333333 455 401 c 1
 483 401 l 2
 587.317681139 401 642 298.051285778 642 189 c 128
 642 128.333333333 631.166666667 81.6666666667 609.5 49 c 128
 587.833333333 16.3333333333 559 0 523 0 c 2
 45 0 l 1
521 501 m 256
 521 483.404026528 539.016038128 471 557.5 471 c 128
 576.782650143 471 596 482.656854555 596 501.5 c 128
 596 521.053111127 576.521290181 536 556 536 c 1
 539.782582221 531.675355259 521 519.743693767 521 501 c 256
766 529 m 128
 766 514.144031009 773.248448235 500 787 500 c 256
 801.006006695 500 809 513.526273269 809 529 c 128
 809 543.516365662 800.630330788 563 787 563 c 256
 773.421121384 563 766 543.455461064 766 529 c 128
426 30 m 1
 512 30 l 2
 582.900772521 30 607 108.09374322 607 189.5 c 128
 607 276.568365427 570.675556654 371 490 371 c 0
 448.597827197 371 426 319.673379844 426 275 c 2
 426 30 l 1
EndSplineSet
EndChar

StartChar: tml_Year
Encoding: 67 3061 67
Width: 1410
GlyphClass: 2
Flags: HW
LayerCount: 2
Fore
SplineSet
28 220 m 0
 28 347.333333333 90.6666666667 449.5 216 526.5 c 128
 341.333333333 603.5 508 642 716 642 c 0
 844 642 953.333333333 620.166666667 1044 576.5 c 128
 1134.66666667 532.833333333 1180 480 1180 418 c 2
 1180 333 l 2
 1180 314.515699661 1194.46405344 298 1213 298 c 2
 1248 298 l 2
 1261.17669541 298 1267 320.053998424 1267 335 c 2
 1267 400 l 1
 1397 400 l 1
 1397 335 l 2
 1397 293.334393554 1356.6541543 263 1314 263 c 2
 1214 263 l 2
 1176.15334614 263 1145 293.449404757 1145 331 c 2
 1145 418 l 2
 1145 475.333333333 1106 521 1028 555 c 0
 950.666666667 589.666666667 847.333333333 607 718 607 c 0
 520 607 361.333333333 571.666666667 242 501 c 256
 122.666666667 430.333333333 63 336.333333333 63 219 c 0
 63 91 116 -11.6666666667 222 -89 c 256
 328 -166.333333333 469 -205 645 -205 c 0
 865.732550225 -205 1080 -119.145349231 1080 83 c 0
 1080 123.306928821 1061.9090559 177 1026 177 c 0
 1010.68969321 177 997 166.065744219 997 151 c 2
 997 0 l 1
 867 0 l 1
 867 370 l 1
 728 370 l 1
 728 0 l 1
 421 0 l 1
 421 30 l 1
 461.409225372 59.5298185414 477 124.833250134 477 200.5 c 128
 477 244.166666667 460.833333333 283.333333333 428.5 318 c 128
 396.166666667 352.666666667 357.5 370 312.5 370 c 128
 218.491543251 370 151 280.412360584 151 184 c 0
 151 119.969358055 175.629232629 62.5019842116 218 42 c 1
 198.666666667 62.7142857143 189 88.8928571429 189 120.535714286 c 128
 189 185.599408792 248.766903737 236 315 236 c 256
 383.217885756 236 441 183.024863373 441 115 c 128
 441 44.0569471596 374.810906457 -10 302 -10 c 0
 250.666666667 -10 206.666666667 8.66666666667 170 46 c 0
 134 83.3333333333 116 131 116 189 c 128
 116 247 138.666666667 298.333333333 184 343 c 256
 229.333333333 387.666666667 286 410 354 410 c 128
 422 410 481.166666667 390.333333333 531.5 351 c 128
 581.833333333 311.666666667 607 264.333333333 607 209 c 0
 607 128.519541317 569.861092554 65.0514778419 520 31 c 1
 693 31 l 1
 693 400 l 1
 1100 400 l 1
 1100 370 l 1
 997 370 l 1
 997 205 l 1
 1011.66666667 219.666666667 1036.83333333 227 1072.5 227 c 128
 1108.16666667 227 1140 212.833333333 1168 184.5 c 128
 1196 156.166666667 1210 122 1210 82 c 0
 1210 -16.6666666667 1158.66666667 -95.8333333333 1056 -155.5 c 128
 953.333333333 -215.166666667 812.666666667 -245 634 -245 c 128
 455.333333333 -245 309.666666667 -202.666666667 197 -118 c 256
 84.3333333333 -33.3333333333 28 79.3333333333 28 220 c 0
224 119 m 256
 224 88.3951655333 237.96161348 52 266 52 c 128
 294.552283252 52 311 84.3945138019 311 116 c 128
 311 147.152467455 294.365471406 186 266 186 c 128
 237.978489597 186 224 149.571305606 224 119 c 256
EndSplineSet
EndChar

StartChar: tml_Debit
Encoding: 68 3062 68
Width: 828
GlyphClass: 2
Flags: HW
LayerCount: 2
Fore
SplineSet
78.6721311475 -124.153184628 m 0
 78.6721311475 -135.919914002 93.4480874317 -147.202185793 123 -158 c 256
 157.666666667 -170.666666667 195.666666667 -177 237 -177 c 128
 309.337075626 -177 378.858980713 -150.993567504 394 -98 c 1
 129 -98 l 2
 111.326884382 -98 80 -103.532170578 80 -118 c 0
 79.1147540983 -120.065573771 78.6721311475 -122.116635313 78.6721311475 -124.153184628 c 0
45 0 m 1
 45 400 l 1
 175 400 l 1
 175 32 l 1
 394 32 l 1
 394 400 l 1
 524 400 l 1
 524 -63 l 1
 653 -63 l 1
 653 400 l 1
 783 400 l 1
 783 -98 l 1
 485 -98 l 1
 485 -176.133555158 340.489639657 -212 251.5 -212 c 128
 190.5 -212 140.833333333 -203 102.5 -185 c 128
 64.1666666667 -167 45 -145.333333333 45 -120 c 0
 45 -83.4225630968 90.7083885741 -63 130 -63 c 2
 394 -63 l 1
 394 0 l 1
 45 0 l 1
EndSplineSet
EndChar

StartChar: tml_Credit
Encoding: 69 3063 69
Width: 1159
GlyphClass: 2
Flags: HW
LayerCount: 2
Fore
SplineSet
19 188.5 m 128
 19 244.833333333 45.5 294.166666667 98.5 336.5 c 128
 151.5 378.833333333 215.666666667 400 291 400 c 2
 705 400 l 1
 705 370 l 1
 620 370 l 1
 620 218 l 1
 730 218 l 2
 768.779420404 218 810 194.847874791 810 158 c 1
 829.825773453 197.651546905 874.39930361 218 936 218 c 128
 997.502729091 218 1067 171.578354924 1067 111 c 0
 1067 71.9666202664 1048.0012608 40.0007564814 1023 25 c 1
 1156 25 l 1
 1156 0 l 1
 870 0 l 1
 870 29 l 1
 903.747484463 37.1459445256 937 69.9042732545 937 109.5 c 128
 937 144.436586848 908.962726214 168 875 168 c 128
 839.960534713 168 815 134.059123877 815 98 c 2
 815 0 l 1
 685 0 l 1
 685 183 l 1
 620 183 l 1
 620 0 l 1
 490 0 l 1
 490 370 l 1
 292 370 l 2
 226 370 169.833333333 352 123.5 316 c 128
 77.1666666667 280 54 236.333333333 54 185 c 0
 54 124.086280378 78.3328228685 71.1558278035 118 50 c 1
 102 67.3333333333 94 95 94 133 c 128
 94 213.997596114 158.801824778 263 243 263 c 256
 330.011535431 263 393 213.358597104 393 128 c 128
 393 36.759967754 304.916698248 -10 208.5 -10 c 128
 98.9760123014 -10 19 78.2338279848 19 188.5 c 128
129 116 m 128
 129 72.7038174891 152.813162796 25 194 25 c 128
 235.254020026 25 263 73.6617513965 263 117 c 128
 263 160.772307922 235.438340125 203 194 203 c 128
 152.725564626 203 129 159.541727974 129 116 c 128
EndSplineSet
EndChar

StartChar: tml_Above
Encoding: 70 3064 70
Width: 1285
GlyphClass: 2
Flags: HW
LayerCount: 2
Fore
SplineSet
26 281.5 m 128
 26 365.166666667 54.6666666667 438.333333333 112 501 c 256
 169.333333333 563.666666667 236.5 595 313.5 595 c 128
 390.5 595 456.666666667 569 512 517 c 256
 567.333333333 465 600.666666667 399.666666667 612 321 c 1
 617.333333333 323 631 324 653 324 c 0
 759.779811537 324 856 252.596898675 856 147.590909091 c 128
 856 96.6515151515 840.333333333 59.7878787879 809 37 c 1
 989 37 l 1
 927.449310826 69.6595493574 882 140.062022143 882 232 c 128
 882 316.124009983 945.934955461 397 1028.5 397 c 128
 1100.6064323 397 1170 349.042820816 1170 280 c 2
 1170 37 l 1
 1281 37 l 1
 1281 0 l 1
 1170 0 l 1
 1170 -209 l 1
 1040 -209 l 1
 1040 0 l 1
 660 0 l 1
 660 38 l 1
 701.571999361 56.0145330566 726 104.907560961 726 166 c 128
 726 218.801426648 698.09261392 289 649 289 c 0
 634.333333333 289 624 288 618 286 c 1
 629.333333333 246.666666667 635 194 635 128 c 0
 635 60.7113538046 587.041768915 0 521 0 c 128
 453.744574388 0 404 60.1521129553 404 129.5 c 128
 404 207.618871778 444.75908327 272.760461208 498 300 c 1
 486 374.666666667 461.166666667 436.666666667 423.5 486 c 128
 385.833333333 535.333333333 344 560 298 560 c 0
 232.666666667 560 176.833333333 532.333333333 130.5 477 c 128
 84.1666666667 421.666666667 61 354.666666667 61 276 c 0
 61 172.620689655 81 101.620689655 121 63 c 1
 111.666666667 82.3333333333 107 102.666666667 107 124 c 0
 107 196.946076734 163.205045894 260 235 260 c 256
 306.647313321 260 363 197.423004455 363 125 c 256
 363 49.8922919609 297.587900208 -10 222 -10 c 0
 168 -10 121.666666667 17.6666666667 83 73 c 0
 45 128.333333333 26 197.833333333 26 281.5 c 128
142 123 m 128
 142 87.8295676669 154.936664292 37 186 37 c 128
 217.510391653 37 233 83.2439324583 233 119 c 128
 233 154.41433263 217.341785757 205 186 205 c 128
 155.45800468 205 142 157.877541807 142 123 c 128
439 134.5 m 128
 439 99.9476291422 451.207696463 52 480 52 c 128
 490.666666667 52 499 59.6666666667 505 75 c 0
 511.666666667 90.3333333333 515 114 515 146 c 128
 515 178 511 214.666666667 503 256 c 1
 467.748875562 233.674287856 439 188.844017045 439 134.5 c 128
917 216 m 128
 917 132.346918806 974.727619857 63.5486404131 1040 41 c 1
 1040 286 l 2
 1040 316.025864399 1022.10077238 347 994 347 c 0
 941.557737323 347 917 275.209468168 917 216 c 128
EndSplineSet
EndChar

StartChar: tml_Rupee
Encoding: 71 3065 71
Width: 1050
GlyphClass: 2
Flags: HW
LayerCount: 2
Fore
SplineSet
30 195 m 128
 30 310.333333333 68 407.666666667 144 487 c 256
 220 566.333333333 312 606 420 606 c 0
 562.764245165 606 692.328308845 540.271097222 728 436 c 1
 744.34164708 480.93952947 785.554255499 510 847.5 510 c 128
 878.5 510 907.333333333 499.333333333 934 478 c 256
 960.666666667 456.666666667 974 430.666666667 974 400 c 1
 1047 400 l 1
 1047 374 l 1
 888 374 l 1
 888 418.602787722 865.238208637 475 825 475 c 128
 784.29871809 475 762.122953138 423.7991954 756 384 c 1
 708 384 l 1
 689.724026293 497.873374633 558.304789049 571 422 571 c 128
 348.666666667 571 286.666666667 534.833333333 236 462.5 c 128
 185.333333333 390.166666667 160 301.333333333 160 196 c 128
 160 10.9196451478 243.102847641 -157 417 -157 c 0
 482.333333333 -157 538 -135.833333333 584 -93.5 c 128
 630 -51.1666666667 653 0 653 60 c 0
 653 112.146918734 633.32445389 188 588 188 c 0
 568.016569955 188 554 168.792884621 554 148 c 2
 554 0 l 1
 424 0 l 1
 424 370 l 1
 283 370 l 1
 283 0 l 1
 248 0 l 1
 248 400 l 1
 653 400 l 1
 653 370 l 1
 554 370 l 1
 554 214 l 1
 574.714285714 233.333333333 601.714285714 243 635 243 c 0
 732.049879677 243 783 159.705652928 783 58 c 0
 783 -117.003214624 603.590891149 -192 412 -192 c 128
 298 -192 205.666666667 -156.333333333 135 -85 c 0
 65 -13.6666666667 30 79.6666666667 30 195 c 128
EndSplineSet
EndChar

StartChar: tml_Number
Encoding: 72 3066 72
Width: 1057
GlyphClass: 2
Flags: HW
LayerCount: 2
Fore
SplineSet
45 0 m 1
 45 400 l 1
 282 400 l 1
 262.871876383 415.541600439 249 443.387194015 249 476 c 0
 249 558.568177722 349.921853456 606 438 606 c 0
 510 606 573.666666667 586.833333333 629 548.5 c 128
 684.333333333 510.166666667 719.666666667 460.666666667 735 400 c 1
 804.333333333 400 863.333333333 381.333333333 912 344 c 256
 960.666666667 306.666666667 985 261.333333333 985 208 c 0
 985 113.974692265 891.561216161 51.3546552188 808 31 c 1
 1053 31 l 1
 1053 0 l 1
 662 0 l 1
 662 29 l 1
 715.333333333 29 760.833333333 46.8333333333 798.5 82.5 c 128
 836.166666667 118.166666667 855 159.5 855 206.5 c 128
 855 286.130267283 813.69545817 370 740 370 c 1
 746.666666667 343.333333333 750 314.166666667 750 282.5 c 128
 750 217.492854741 701.731293667 172 635.5 172 c 128
 568.004261291 172 523 214.219381485 523 281.5 c 128
 523 358.041775448 620.01523085 400 703 400 c 1
 687 446.666666667 656.833333333 484.5 612.5 513.5 c 128
 568.166666667 542.5 520.833333333 557 470.5 557 c 128
 420.166666667 557 379.166666667 547.333333333 347.5 528 c 128
 315.833333333 508.666666667 300 485.462962963 300 458.388888889 c 128
 300 431.314814815 306.666666667 411.851851852 320 400 c 1
 511 400 l 1
 511 370 l 1
 348 370 l 1
 348 251 l 1
 358.266666667 258.333333333 374.6 262 397 262 c 0
 467.088360483 262 523 206.383009682 523 135.5 c 128
 523 62.1942697967 460.058707578 0 386 0 c 2
 218 0 l 1
 218 31 l 1
 340 31 l 2
 389.791444641 31 428 83.7076107753 428 134.5 c 128
 428 161.5 423.666666667 183.666666667 415 201 c 0
 405.666666667 218.333333333 395.5 227 384.5 227 c 128
 362.348027854 227 348 207.170763437 348 185 c 2
 348 106 l 1
 218 106 l 1
 218 370 l 1
 80 370 l 1
 80 0 l 1
 45 0 l 1
653 295 m 128
 653 267.685330269 662.926398175 240 686 240 c 128
 710.182633998 240 715 271.020570444 715 302 c 128
 715 324 712.333333333 346.666666667 707 370 c 1
 675.686660086 370 653 327.278650498 653 295 c 128
EndSplineSet
EndChar

StartChar: uni0964
Encoding: 259 2404 73
Width: 265
GlyphClass: 2
Flags: HW
LayerCount: 2
Fore
SplineSet
90 0 m 1
 90 400 l 1
 220 400 l 1
 220 0 l 1
 90 0 l 1
EndSplineSet
EndChar

StartChar: uni0965
Encoding: 260 2405 74
Width: 485
GlyphClass: 2
Flags: HW
LayerCount: 2
Fore
SplineSet
310 0 m 1
 310 400 l 1
 440 400 l 1
 440 0 l 1
 310 0 l 1
90 0 m 1
 90 400 l 1
 220 400 l 1
 220 0 l 1
 90 0 l 1
EndSplineSet
EndChar

StartChar: tml_Sha
Encoding: 34 2998 75
Width: 761
GlyphClass: 2
Flags: HW
LayerCount: 2
Fore
SplineSet
38 130 m 2
 38 400 l 1
 73 400 l 1
 73 130 l 2
 73 91.9291258828 104.336263687 62 143 62 c 128
 181.524852291 62 217 91.9551703585 217 130 c 2
 217 400 l 1
 724 400 l 1
 724 131 l 2
 724 54.8579296043 638.406782166 0 560 0 c 128
 480.604150291 0 415 54.5107942988 415 131 c 2
 415 370 l 1
 347 370 l 1
 347 133 l 2
 347 55.9669318484 262.040087949 0 183 0 c 128
 103.624051176 0 38 53.5121942472 38 130 c 2
450 131 m 2
 450 92.0933225626 480.795346806 62 520 62 c 128
 559.083542798 62 594 92.1067335221 594 131 c 2
 594 370 l 1
 450 370 l 1
 450 131 l 2
EndSplineSet
EndChar

StartChar: tml_Om
Encoding: 50 3024 76
Width: 768
GlyphClass: 2
Flags: HW
LayerCount: 2
Fore
SplineSet
12 -130 m 0
 12 -87.1450046951 44.4307001104 -45 85 -45 c 128
 120.500513542 -45 149 -70.3761558333 149 -105 c 2
 149 -148 l 1
 224 -148 l 1
 224 -111 l 2
 224 -75.2442329351 261.543414276 -54 299.5 -54 c 128
 342.675233673 -54 381 -89.6021924618 381 -133 c 2
 381 -183 l 1
 114 -183 l 1
 114 -105 l 2
 114 -89.751403714 101.449751627 -80 85 -80 c 128
 63.6385973235 -80 47 -106.16856471 47 -129 c 0
 47 -210.816871698 146.505868843 -247 234.5 -247 c 128
 286.833333333 -247 326.333333333 -239.5 353 -224.5 c 128
 379.666666667 -209.5 393 -189.833333333 393 -165.5 c 128
 393 -120.263425612 423.252265021 -80 467 -80 c 1
 415.853914461 -66.5405038055 380 -18.0737095753 380 47.5 c 128
 380 113.628853297 435.002330839 173 501 173 c 1
 489.666666667 160.25 484 141.895833333 484 117.9375 c 128
 484 73.7479888299 509.137211702 43 551 43 c 128
 595.685938431 43 621 103.701589722 621 153 c 0
 621 209 594.333333333 256.666666667 541 296 c 0
 487 335.333333333 420.833333333 355 342.5 355 c 128
 264.166666667 355 196.333333333 335.5 139 296.5 c 128
 81.6666666667 257.5 53 210.666666667 53 156 c 0
 53 95.7389630089 85.3357097004 44.5895935398 130 28 c 1
 112.666666667 43.8888888889 104 68.8611111112 104 102.916666667 c 128
 104 168.904714762 154.902775963 223 220 223 c 256
 283.478953349 223 336 169.450975544 336 106 c 256
 336 39.5055264827 274.047922854 -10 206 -10 c 0
 107.898565191 -10 18 60.2174092878 18 156 c 0
 18 317.404601131 179.147774406 390 353 390 c 0
 473.666666667 390 570.166666667 368.5 642.5 325.5 c 128
 714.833333333 282.5 751 225.333333333 751 154 c 0
 751 56.6388440095 663.19299833 8 560 8 c 0
 501.950054269 8 449 51.2630119209 449 108 c 0
 449 116.666666667 450.666666667 124.333333333 454 131 c 1
 428 112.222222222 415 81.8888888887 415 40 c 0
 415 -30.8457728935 512.38204708 -69 590 -69 c 2
 699 -69 l 1
 699 -104 l 1
 594 -104 l 2
 555.142592858 -104 523 -136.850468424 523 -176 c 0
 523 -208 497.833333333 -233.666666667 447.5 -253 c 128
 397.166666667 -272.333333333 333.333333333 -282 256 -282 c 128
 178.666666667 -282 118.666666667 -268.166666667 76 -240.5 c 128
 33.3333333333 -212.833333333 12 -176 12 -130 c 0
139 97.5 m 128
 139 62.3456161428 157.990633204 25 191 25 c 128
 224.316006153 25 246 61.6602365119 246 97.5 c 128
 246 132.556498474 224.029055725 173 191 173 c 128
 158.098365505 173 139 132.408899566 139 97.5 c 128
301 -12.5 m 128
 301 5.35671217092 315.643792119 20 333.5 20 c 128
 351.356712171 20 366 5.35620788052 366 -12.5 c 128
 366 -30.3567121709 351.356207881 -45 333.5 -45 c 128
 314.983371533 -45 301 -31.0228574658 301 -12.5 c 128
290 -109 m 2
 290 -148 l 1
 346 -148 l 1
 346 -134 l 2
 346 -113.576687142 334.972120127 -89 316.5 -89 c 128
 303.339030723 -89 290 -96.7670590538 290 -109 c 2
EndSplineSet
EndChar

StartChar: uni20B9
Encoding: 261 8377 77
Width: 651
GlyphClass: 2
Flags: HW
LayerCount: 2
Fore
SplineSet
45 302 m 1
 45 346 l 1
 316 346 l 1
 312.275081083 394.423945918 273.583523338 438 223 438 c 2
 45 438 l 1
 45 480 l 1
 606 480 l 1
 606 438 l 1
 400 438 l 1
 430.427799946 419.968711143 459.917235639 387.617318874 463 346 c 1
 606 346 l 1
 606 302 l 1
 463 302 l 1
 450.037429428 217.743291285 311.547178819 182 203 182 c 1
 240.195660319 111.85961197 310.236627656 39 406 39 c 0
 431.333333333 39 456.333333333 46.3333333333 481 61 c 1
 498 34 l 1
 456 6.66666666667 412.333333333 -7 367 -7 c 0
 297 -7 233 11.3333333333 175 48 c 0
 117.666666667 84.6666666667 76 133.666666667 50 195 c 1
 50 209 l 1
 120.666666667 209 180.666666667 217.666666667 230 235 c 256
 279.333333333 252.333333333 307 274.666666667 313 302 c 1
 45 302 l 1
EndSplineSet
EndChar

StartChar: tml_Ka_tml_MatraI
Encoding: 262 -1 78
Width: 726
GlyphClass: 2
Flags: HW
LayerCount: 2
Fore
SplineSet
16 134 m 0
 16 187.844057622 62.3927578673 215 119 215 c 1
 70.3333333333 267.838095238 46 325.504761905 46 388 c 0
 46 575.996600094 173.883774277 696 363 696 c 256
 556.280289733 696 681 563.396519491 681 369 c 2
 681 0 l 1
 646 0 l 1
 646 370 l 2
 646 432 618.333333333 484.833333333 563 528.5 c 128
 507.666666667 572.166666667 441 594 363 594 c 256
 285 594 218.5 572.833333333 163.5 530.5 c 128
 108.5 488.166666667 81 437.333333333 81 378 c 0
 81 330.275862069 101 282.275862069 141 234 c 1
 141 400 l 1
 525 400 l 1
 525 370 l 1
 403 370 l 1
 403 220 l 1
 483 220 l 2
 557.342411076 220 608 181.300776579 608 107.5 c 128
 608 71.1666666667 592.166666667 44.1666666667 560.5 26.5 c 128
 528.833333333 8.83333333333 476.333333333 0 403 0 c 1
 403 30 l 1
 461.130508762 30 478 53.5249556169 478 113 c 0
 478 161 459.666666667 185 423 185 c 2
 403 185 l 1
 403 131 l 2
 403 42.3333333333 325.333333333 -2 170 -2 c 0
 89.8434245217 -2 16 55.9396249617 16 134 c 0
176 220 m 1
 286 220 l 1
 286 370 l 1
 176 370 l 1
 176 220 l 1
51 135 m 0
 51 71.485510516 103.210438574 33 168 33 c 128
 231.137117659 33 286 77.1187971007 286 138 c 2
 286 185 l 1
 119 185 l 2
 82.5842952522 185 51 169.180396496 51 135 c 0
EndSplineSet
Ligature2: "'abvs' Above Base Substitutions in Tamil lookup 2 subtable" tml_Ka tml_MatraI
EndChar

StartChar: tml_Nga_tml_MatraI
Encoding: 263 -1 79
Width: 894
GlyphClass: 2
Flags: HW
LayerCount: 2
Fore
SplineSet
45 0 m 1
 45 400 l 1
 454 400 l 1
 454 370 l 1
 348 370 l 1
 348 257 l 1
 368.102564103 275.666666667 398.794871795 285 440.076923077 285 c 128
 522.930516994 285 574 230.114121642 574 147 c 0
 574 89.8005415927 533.7890627 47.2851563291 490 30 c 1
 615 30 l 1
 615 308 l 1
 545.343409154 320.055948416 496 392.768733415 496 475 c 0
 496 596.178145167 555.260835105 696 671 696 c 128
 791.162007728 696 849 579.771139318 849 451 c 2
 849 0 l 1
 814 0 l 1
 814 449 l 2
 814 535.611281099 756.986275288 594 671 594 c 128
 592.078593377 594 531 547.691205361 531 472 c 128
 531 416.276667894 564.638044373 339 615 339 c 1
 615 400 l 1
 745 400 l 1
 745 0 l 1
 218 0 l 1
 218 30 l 1
 384 30 l 1
 419.370950307 48.9487233789 444 96.2854832528 444 149.5 c 128
 444 192.057784448 422.033418337 240 383 240 c 0
 362.522839805 240 348 218.466580592 348 197 c 2
 348 110 l 1
 218 110 l 1
 218 370 l 1
 80 370 l 1
 80 0 l 1
 45 0 l 1
EndSplineSet
Ligature2: "'abvs' Above Base Substitutions in Tamil lookup 2 subtable" tml_Nga tml_MatraI
EndChar

StartChar: tml_Ca_tml_MatraI
Encoding: 264 -1 80
Width: 651
GlyphClass: 2
Flags: HW
LayerCount: 2
Fore
SplineSet
22 137 m 0
 22 187.254981373 64.4902375784 215 117 215 c 1
 68.920695422 248.655513205 32 311.395587561 32 389 c 0
 32 572.23868005 140.714829631 696 323.5 696 c 128
 517.500877109 696 606 570.918527833 606 369 c 2
 606 0 l 1
 571 0 l 1
 571 370 l 2
 571 511.617865475 462.578640254 594 317.5 594 c 128
 175.191603187 594 67 517.301595201 67 380 c 0
 67 316.86030647 96.8242531841 265.566384337 137 240 c 1
 137 400 l 1
 522 400 l 1
 522 370 l 1
 422 370 l 1
 422 220 l 1
 522 220 l 1
 522 185 l 1
 422 185 l 1
 422 137 l 2
 422 44.3333333333 346.666666667 -2 196 -2 c 0
 100.323288839 -2 22 45.7093601888 22 137 c 0
172 220 m 1
 292 220 l 1
 292 370 l 1
 172 370 l 1
 172 220 l 1
57 137 m 0
 57 66.8492887363 122.084416099 33 197 33 c 0
 256.098868567 33 292 76.7843575844 292 137 c 2
 292 185 l 1
 125 185 l 2
 89.2594025053 185 57 170.207920267 57 137 c 0
EndSplineSet
Ligature2: "'abvs' Above Base Substitutions in Tamil lookup 2 subtable" tml_Ca tml_MatraI
EndChar

StartChar: tml_Ja_tml_MatraI
Encoding: 265 -1 81
Width: 897
GlyphClass: 2
Flags: HW
LayerCount: 2
Fore
SplineSet
8 -68 m 128
 8 27.8326123862 111.954811655 85 212 85 c 2
 494 85 l 2
 567.343225884 85 621 155.567027008 621 230.5 c 128
 621 288.58029514 598.639264485 373 548.5 373 c 128
 503.845798639 373 477 318.724069168 477 271 c 2
 477 138 l 1
 347 138 l 1
 347 259 l 2
 347 327.723473897 265.873135816 373 194 373 c 128
 122.845554227 373 52 327.353526479 52 260.5 c 128
 52 208.843343352 77.2116473055 158.529829589 121 154 c 1
 96.6928636282 162.578989308 82 194.728592231 82 229 c 0
 82 291.62164237 125.514761092 330 189 330 c 256
 252.508236663 330 296 289.596152617 296 227 c 128
 296 157.906872052 236.752765598 127 162.5 127 c 128
 79.9657620931 127 17 177.634851325 17 259.5 c 128
 17 345.407602605 113.134623855 408 202 408 c 128
 296.486834782 408 370.107075872 376.02258849 407 320 c 1
 425.808743695 368.365340931 479.435838134 401.786319845 542 407 c 1
 530.666666667 441.666666667 525 468.333333333 525 487 c 0
 525 600.907326293 578.883588487 696 687 696 c 128
 797.017832828 696 852 595.564832733 852 479 c 2
 852 0 l 1
 817 0 l 1
 817 477 l 2
 817 542.949560073 751.104602888 594 684 594 c 128
 619.983115604 594 560 546.926966893 560 486 c 128
 560 458 564.666666667 432 574 408 c 1
 669.752678734 404.118134646 751 326.645942934 751 228 c 0
 751 109.333333333 665 50 493 50 c 2
 237 50 l 2
 171.937658062 50 117 -0.452259437006 117 -65 c 128
 117 -119.555914663 152.474688258 -183 203.5 -183 c 0
 247.920289855 -183 300.420289855 -151.333333333 361 -88 c 0
 408.328091974 -39.6201726484 476.323443472 9 560 9 c 0
 654.853087674 9 751 -26.5541944004 751 -112 c 128
 751 -197.341133026 653.043739434 -228 558 -228 c 0
 503.304347826 -228 460.971014493 -212.333333333 431 -181 c 1
 446 -157 l 1
 475.647058823 -181 512.980392157 -193 558 -193 c 0
 597.135838043 -193 621 -152.732040576 621 -111.5 c 128
 621 -68.5308749244 590.886546272 -26 549 -26 c 0
 502.333333333 -26 444.666666667 -58 376 -122 c 256
 307.333333333 -186 249.666666667 -218 203 -218 c 0
 98.9942867529 -218 8 -166.350826398 8 -68 c 128
117 228.5 m 128
 117 197.479649359 133.096573678 162 162 162 c 128
 191.774449725 162 210 194.573650221 210 226.5 c 128
 210 257.504231626 190.970812323 295 162 295 c 128
 133.112981629 295 117 259.49318749 117 228.5 c 128
EndSplineSet
Ligature2: "'abvs' Above Base Substitutions in Tamil lookup 2 subtable" tml_Ja tml_MatraI
EndChar

StartChar: tml_Nya_tml_MatraI
Encoding: 266 -1 82
Width: 1131
GlyphClass: 2
Flags: HW
LayerCount: 2
Fore
SplineSet
24 126 m 0
 24 222 65.6666666667 311.666666667 149 395 c 1
 169 373 l 1
 95.6666666667 296.899371069 59 214.232704403 59 125 c 0
 59 24.3333333333 96.5 -59 171.5 -125 c 128
 246.5 -191 341.333333333 -224 456 -224 c 0
 688.728200393 -224 868 -130.049344757 868 89 c 0
 868 145.261162296 832.665605843 202 779 202 c 0
 756.396217716 202 741 178.323828724 741 155 c 2
 741 0 l 1
 611 0 l 1
 611 370 l 1
 442 370 l 2
 376.666666667 370 320.833333333 352 274.5 316 c 128
 228.166666667 280 205 236.333333333 205 185 c 0
 205 124.30380851 227.972099733 71.7302287243 266 50 c 1
 251.333333333 66 244 89.3333333333 244 120 c 0
 244 207.00610368 305.851526681 262 394 262 c 256
 479.871759294 262 544 213.623656549 544 130 c 256
 544 38.9795990194 462.33643696 -3 364 -3 c 128
 248.907239982 -3 170 71.819918892 170 188.5 c 128
 170 248.166666667 195.833333333 298.333333333 247.5 339 c 128
 299.166666667 379.666666667 364.666666667 400 444 400 c 2
 628 400 l 1
 611.333333333 428.666666667 603 455.666666667 603 481 c 0
 603 540.333333333 624.5 591 667.5 633 c 128
 710.5 675 762.666666667 696 824 696 c 0
 1014.1685052 696 1086 590.864466707 1086 394 c 2
 1086 0 l 1
 1051 0 l 1
 1051 397 l 2
 1051 528.333333333 974.666666667 594 822 594 c 0
 737.050053248 594 638 551.328624525 638 472.5 c 128
 638 438.166666667 645 414 659 400 c 1
 837 400 l 1
 837 370 l 1
 741 370 l 1
 741 228 l 1
 765.666666667 244 793.333333333 252 824 252 c 0
 926.233435598 252 998 188.799343072 998 88 c 0
 998 -22 950.5 -107.333333333 855.5 -168 c 128
 760.5 -228.666666667 627.333333333 -259 456 -259 c 0
 331.333333333 -259 228 -222.666666667 146 -150 c 0
 64.6666666667 -77.3333333333 24 14.6666666667 24 126 c 0
279 117.5 m 128
 279 75.0180085375 304.437679762 32 345 32 c 128
 385.563441422 32 414 76.0165938249 414 118.5 c 128
 414 161.127416763 385.624020676 203 345 203 c 128
 304.450238418 203 279 159.955580028 279 117.5 c 128
EndSplineSet
Ligature2: "'abvs' Above Base Substitutions in Tamil lookup 2 subtable" tml_Nya tml_MatraI
EndChar

StartChar: tml_Tta_tml_MatraI
Encoding: 267 -1 83
Width: 777
GlyphClass: 2
Flags: HW
LayerCount: 2
Fore
SplineSet
45 0 m 1
 45 400 l 1
 175 400 l 1
 175 30 l 1
 416 30 l 1
 353.21603531 57.7698305358 302 126.208685917 302 213 c 0
 302 317.391026195 344.342119145 400 441 400 c 128
 518.221098392 400 591 351.722062703 591 278 c 2
 591 30 l 1
 774 30 l 1
 774 0 l 1
 591 0 l 1
 591 -231 l 1
 461 -231 l 1
 461 0 l 1
 45 0 l 1
337 213.5 m 128
 337 126.992009589 396.43471331 59.6708371527 461 32 c 1
 461 282 l 2
 461 315.580593746 449.146728651 350 419 350 c 0
 364.390542352 350 337 274.2183784 337 213.5 c 128
EndSplineSet
Ligature2: "'abvs' Above Base Substitutions in Tamil lookup 2 subtable" tml_Tta tml_MatraI
EndChar

StartChar: tml_Nna_tml_MatraI
Encoding: 268 -1 84
Width: 1356
GlyphClass: 2
Flags: HW
LayerCount: 2
Fore
SplineSet
20 173 m 0
 20 324.196378312 147.746895196 405 306 405 c 0
 417.181818182 405 491.181818182 390 528 360 c 1
 564.818181818 390 608.818181818 405 660 405 c 0
 733.594202899 405 791.260869565 389 833 357 c 1
 872.333333333 385.666666667 914.666666667 400 960 400 c 2
 1036 400 l 1
 1020 428.666666667 1012 458.666666667 1012 490 c 0
 1012 600.385782177 1060.63920425 696 1165 696 c 128
 1212.33333333 696 1248.5 673.5 1273.5 628.5 c 128
 1298.5 583.5 1311 516.666666667 1311 428 c 2
 1311 0 l 1
 1276 0 l 1
 1276 432 l 2
 1276 540 1238 594 1162 594 c 0
 1093.63678848 594 1047 553.1917316 1047 485.5 c 128
 1047 452.5 1055 424 1071 400 c 1
 1226 400 l 1
 1226 370 l 1
 1144 370 l 1
 1144 0 l 1
 1014 0 l 1
 1014 370 l 1
 963 370 l 2
 926.333333333 370 894.666666667 360 868 340 c 1
 921.429950458 290.931678151 970 223.742151928 970 132.5 c 128
 970 57.4153595662 907.028197167 -11 831.5 -11 c 128
 752.984802204 -11 693 57.6110621488 693 137 c 0
 693 199.481481481 717.666666667 258.814814815 767 315 c 1
 733.153846154 351.666666667 695.153846154 370 653 370 c 0
 622.490196079 370 592.823529412 358.333333333 564 335 c 1
 632.666666667 274.741496599 667 208.741496599 667 137 c 0
 667 57.4253016782 603.064041255 -11 524 -11 c 256
 484.666666667 -11 451 3.5 423 32.5 c 128
 395 61.5 381 94.5 381 131.5 c 0
 381 204.439393939 404 264.606060606 450 312 c 1
 405.809523809 350.666666667 351.428571428 370 286.857142857 370 c 128
 222.285714286 370 167.5 351 122.5 313 c 128
 77.5 275 55 229 55 175 c 0
 55 113.997888794 78.1335335153 54.7177043777 121 39 c 1
 103.666666667 57.6666666667 95 85.8333333333 95 123.5 c 128
 95 199.424349684 150.967064315 254 227.5 254 c 128
 304.404791446 254 366 195.15655383 366 118.5 c 128
 366 34.1285731594 282.922034518 -11 194 -11 c 128
 93.9653396855 -11 20 72.5032753618 20 173 c 0
728 137 m 0
 728 95.7450551622 747.903029392 44 785 44 c 128
 822.986161361 44 840 96.8268844273 840 140 c 128
 840 201.098615481 815.939149945 254.877918576 784 288 c 1
 746.666666667 250.666666667 728 200.333333333 728 137 c 0
416 137 m 0
 416 94.3030100531 436.906480956 44 476 44 c 256
 515.904911832 44 537 94.8395224106 537 139 c 0
 537 196.931034483 516.666666667 246.931034483 476 289 c 1
 436 246.241379311 416 195.574712644 416 137 c 0
130 117 m 256
 130 82.3315730134 148.267279486 44 181 44 c 128
 213.851318621 44 236 82.2031635717 236 117 c 128
 236 152.478545131 214.118450266 189 181 189 c 128
 148.254287058 189 130 151.715236289 130 117 c 256
EndSplineSet
Ligature2: "'abvs' Above Base Substitutions in Tamil lookup 2 subtable" tml_Nna tml_MatraI
EndChar

StartChar: tml_Ta_tml_MatraI
Encoding: 269 -1 85
Width: 756
GlyphClass: 2
Flags: HW
LayerCount: 2
Fore
SplineSet
-4 -169 m 0
 -4 -107.348349069 55.5526029438 -63 119 -63 c 2
 344 -63 l 2
 424.893957726 -63 490 6.27869506279 490 88 c 0
 490 128.809989272 472.167437543 185 436 185 c 2
 416 185 l 1
 416 137 l 2
 416 44.3333333333 339 -2 185 -2 c 0
 99.3920149512 -2 16 54.4711343325 16 137 c 0
 16 187.73667544 60.8376707183 215 114 215 c 1
 74.0301743324 251.222654511 46 313.824777577 46 388 c 0
 46 481.333333333 75.6666666667 556 135 612 c 256
 194.333333333 668 275.333333333 696 378 696 c 128
 583.20697064 696 711 574.707631662 711 369 c 2
 711 0 l 1
 676 0 l 1
 676 375 l 2
 676 432.333333333 645.166666667 483.166666667 583.5 527.5 c 128
 521.833333333 571.833333333 449 594 365 594 c 128
 214.430687649 594 81 521.121525228 81 378 c 0
 81 313.911924909 100.458644345 256.33950435 136 229 c 1
 136 400 l 1
 526 400 l 1
 526 370 l 1
 416 370 l 1
 416 220 l 1
 487 220 l 2
 559.1967143 220 620 161.952588222 620 90 c 0
 620 -55.4187178793 517.408905765 -98 360 -98 c 2
 114 -98 l 2
 77.6646739851 -98 31 -114.1478085 31 -147 c 1
 48.3333333333 -139 59.3333333333 -135 64 -135 c 0
 93.4395132227 -135 126 -150.590316754 126 -178 c 256
 126 -205.707318867 88.8771058648 -222 59 -222 c 128
 26.0890550201 -222 -4 -200.546727895 -4 -169 c 0
171 220 m 1
 286 220 l 1
 286 370 l 1
 171 370 l 1
 171 220 l 1
51 137 m 0
 51 68.0791629859 113.246466654 33 186 33 c 0
 241.903417482 33 286 80.5595054236 286 137 c 2
 286 185 l 1
 119 185 l 2
 86.9411992353 185 51 167.09535186 51 137 c 0
EndSplineSet
Ligature2: "'abvs' Above Base Substitutions in Tamil lookup 2 subtable" tml_Ta tml_MatraI
EndChar

StartChar: tml_Na_tml_MatraI
Encoding: 270 -1 86
Width: 719
GlyphClass: 2
Flags: HW
LayerCount: 2
Fore
SplineSet
5 -169 m 0
 5 -107.348349069 64.5526029438 -63 128 -63 c 2
 304 -63 l 2
 417.651585992 -63 466 -9.60470392115 466 105 c 0
 466 156.333533858 438.61049629 217 391 217 c 0
 367.565019123 217 346 201.643769244 346 179 c 2
 346 0 l 1
 216 0 l 1
 216 370 l 1
 80 370 l 1
 80 0 l 1
 45 0 l 1
 45 400 l 1
 261 400 l 1
 247.666666667 420.666666667 241 447.333333333 241 480 c 0
 241 613.749425171 328.032751042 696 464 696 c 128
 534 696 586.5 672.166666667 621.5 624.5 c 128
 656.5 576.833333333 674 502 674 400 c 2
 674 0 l 1
 639 0 l 1
 639 400 l 2
 639 525.205069121 586.636288048 594 466.5 594 c 128
 410.166666667 594 364.333333333 582.666666667 329 560 c 256
 293.666666667 537.333333333 276 510.166666667 276 478.5 c 128
 276 446.833333333 283.333333333 420.666666667 298 400 c 1
 512 400 l 1
 512 370 l 1
 346 370 l 1
 346 230 l 1
 370.666666667 248 403.166666667 257 443.5 257 c 128
 483.833333333 257 519.333333333 242 550 212 c 256
 580.666666667 182 596 145.666666667 596 103 c 0
 596 -42.5886401078 458.841518035 -98 300 -98 c 2
 123 -98 l 2
 91.1938735159 -98 50 -113.238737578 50 -142 c 1
 73 -135 l 1
 102.208583057 -135 135 -152.458612165 135 -179.5 c 128
 135 -206.562462593 97.3688918142 -220 68 -220 c 128
 35.7301372486 -220 5 -199.734823849 5 -169 c 0
EndSplineSet
Ligature2: "'abvs' Above Base Substitutions in Tamil lookup 2 subtable" tml_Na tml_MatraI
EndChar

StartChar: tml_Nnna_tml_MatraI
Encoding: 271 -1 87
Width: 1064
GlyphClass: 2
Flags: HW
LayerCount: 2
Fore
SplineSet
21 170 m 0
 21 324.825235699 142.085354412 412 302 412 c 0
 410.923076923 412 488.923076923 394 536 358 c 1
 559.8 386 601.133333333 400 660 400 c 2
 737 400 l 1
 721.666666667 431.333333333 714 465 714 501 c 0
 714 606.710006248 764.463539105 696 865 696 c 128
 970.908939972 696 1019 589.498934471 1019 475 c 2
 1019 0 l 1
 984 0 l 1
 984 477 l 2
 984 540.99006904 933.362618681 594 869 594 c 128
 805.891074936 594 749 544.361336339 749 482 c 256
 749 451.333333333 755.333333333 424 768 400 c 1
 922 400 l 1
 922 367 l 1
 840 367 l 1
 840 0 l 1
 710 0 l 1
 710 367 l 1
 659 367 l 2
 620.277777778 367 593.277777778 358.666666667 578 342 c 1
 627.166333645 300.397717685 661 225.789417233 661 137 c 256
 661 52.5615189286 607.202633591 -5 523 -5 c 256
 440.350994996 -5 385 52.0506425653 385 134 c 0
 385 216.333333333 407.666666667 277.333333333 453 317 c 1
 403.344827586 357 345.931034483 377 280.75862069 377 c 128
 153.79325279 377 56 297.886472127 56 172 c 0
 56 109.010159177 84.3309109217 49.1421482056 131 35 c 1
 107.666666667 51.0416666667 96 80.0520833333 96 122.03125 c 128
 96 205.084107946 149.046131231 254 231.5 254 c 128
 312.375458569 254 367 204.506431587 367 124 c 128
 367 40.3988656108 302.881360055 -10 217 -10 c 0
 102.604090492 -10 21 57.5668687547 21 170 c 0
420 144 m 128
 420 98.2624811379 434.848224677 42 474 42 c 128
 510.980938315 42 531 95.9883036603 531 137 c 0
 531 206.571428571 511.666666667 257.238095238 473 289 c 1
 439.552372086 263.579802785 420 203.550241393 420 144 c 128
131 121.5 m 128
 131 85.2996281103 148.388022 42 182 42 c 128
 216.057594117 42 237 83.4469959497 237 120.5 c 128
 237 157.582579025 216.085947305 199 182 199 c 128
 148.337594534 199 131 157.825833054 131 121.5 c 128
EndSplineSet
Ligature2: "'abvs' Above Base Substitutions in Tamil lookup 2 subtable" tml_Nnna tml_MatraI
EndChar

StartChar: tml_Pa_tml_MatraI
Encoding: 272 -1 88
Width: 804
GlyphClass: 2
Flags: HW
LayerCount: 2
Fore
SplineSet
45 0 m 1
 45 400 l 1
 175 400 l 1
 175 30 l 1
 516 30 l 1
 516 308 l 1
 442.043925529 308 395 388.509508556 395 466 c 0
 395 593.994389122 456.316675457 696 579.5 696 c 128
 712.847870567 696 759 581.493691225 759 435 c 2
 759 0 l 1
 724 0 l 1
 724 434 l 2
 724 518.5214819 658.211568557 594 575 594 c 128
 498.690385773 594 430 536.092155083 430 462 c 128
 430 402.216305347 460.698393037 339 516 339 c 1
 516 400 l 1
 646 400 l 1
 646 0 l 1
 45 0 l 1
EndSplineSet
Ligature2: "'abvs' Above Base Substitutions in Tamil lookup 2 subtable" tml_Pa tml_MatraI
EndChar

StartChar: tml_Ma_tml_MatraI
Encoding: 273 -1 89
Width: 846
GlyphClass: 2
Flags: HW
LayerCount: 2
Fore
SplineSet
45 0 m 1
 45 400 l 1
 175 400 l 1
 175 30 l 1
 319 30 l 1
 319 272 l 2
 319 348.269895881 394.033871519 402.38256531 470 406 c 1
 449.333333333 443.333333333 439 474.666666667 439 500 c 0
 439 616.587753118 508.152234076 696 624 696 c 128
 758.135722343 696 801 576.766958337 801 428 c 2
 801 0 l 1
 766 0 l 1
 766 427 l 2
 766 538.333333333 717 594 619 594 c 0
 542.343590918 594 474 558.972327253 474 487.5 c 128
 474 455.833333333 481.666666667 428.333333333 497 405 c 1
 585.957280642 394.956436057 643 285.608023948 643 182.5 c 128
 643 87.4869171787 608.075763078 0 522 0 c 2
 45 0 l 1
449 30 m 1
 512 30 l 2
 583.010176966 30 608 106.707577887 608 187 c 128
 608 265.827720964 580.420942749 361 510 361 c 0
 471.942623427 361 449 315.830019275 449 275 c 2
 449 30 l 1
EndSplineSet
Ligature2: "'abvs' Above Base Substitutions in Tamil lookup 2 subtable" tml_Ma tml_MatraI
EndChar

StartChar: tml_Ya_tml_MatraI
Encoding: 274 -1 90
Width: 825
GlyphClass: 2
Flags: HW
LayerCount: 2
Fore
SplineSet
40 119 m 2
 40 400 l 1
 170 400 l 1
 170 113 l 2
 170 88.1694580151 177.313775997 51 198.5 51 c 128
 219.594390647 51 229 87.6933445799 229 112 c 2
 229 400 l 1
 359 400 l 1
 359 30 l 1
 537 30 l 1
 537 308 l 1
 457.580741566 308 419 410.033483003 419 499 c 128
 419 609.137402995 488.061837238 696 598 696 c 128
 722.68522449 696 780 569.701104958 780 435 c 2
 780 0 l 1
 745 0 l 1
 745 434 l 2
 745 518.503602949 680.529298475 594 598 594 c 128
 522.775267294 594 454 535.665439822 454 462.5 c 128
 454 404.454049483 483.827443006 340 537 340 c 1
 537 400 l 1
 667 400 l 1
 667 0 l 1
 247 0 l 1
 247 66 l 1
 239.689241414 25.7908277757 205.720244347 -10 160 -10 c 0
 92.3174346106 -10 40 50.595164848 40 119 c 2
EndSplineSet
Ligature2: "'abvs' Above Base Substitutions in Tamil lookup 2 subtable" tml_Ya tml_MatraI
EndChar

StartChar: tml_Ra_tml_MatraI
Encoding: 275 -1 91
Width: 567
GlyphClass: 2
Flags: HW
LayerCount: 2
Fore
SplineSet
38 -142 m 1
 224 0 l 1
 224 370 l 1
 80 370 l 1
 80 0 l 1
 45 0 l 1
 45 400 l 1
 233 400 l 1
 219 422.666666667 212 451 212 485 c 0
 212 588.121129917 270.002885813 696 368.5 696 c 128
 474.10102145 696 522 580.116573382 522 464 c 2
 522 0 l 1
 487 0 l 1
 487 462 l 2
 487 531.985433985 435.688248564 594 367 594 c 256
 300.854379985 594 247 544.248362319 247 478 c 128
 247 444.666666667 254.333333333 418.666666667 269 400 c 1
 451 400 l 1
 451 370 l 1
 354 370 l 1
 354 14 l 1
 57 -165 l 1
 38 -142 l 1
EndSplineSet
Ligature2: "'abvs' Above Base Substitutions in Tamil lookup 2 subtable" tml_Ra tml_MatraI
EndChar

StartChar: tml_Rra_tml_MatraI
Encoding: 276 -1 92
Width: 774
GlyphClass: 2
Flags: HW
LayerCount: 2
Fore
SplineSet
9 -169 m 0
 9 -108.282443618 64.9954188913 -63 127 -63 c 2
 337 -63 l 2
 379.666666667 -63 416.333333333 -40 447 6 c 0
 477 52 492 105.166666667 492 165.5 c 128
 492 225.833333333 483.666666667 275.666666667 467 315 c 256
 450.333333333 354.333333333 430.333333333 374 407 374 c 0
 361.823328211 374 338 315.236367921 338 266 c 2
 338 0 l 1
 208 0 l 1
 208 305 l 2
 208 342.577320311 177.63522105 374 140.5 374 c 128
 103.319457816 374 76 341.520123082 76 304 c 2
 76 0 l 1
 41 0 l 1
 41 307 l 2
 41 366.011937968 97.1373729232 409 158 409 c 128
 223.666057171 409 279.283245464 377.791886341 298 331 c 1
 314.021167963 367.619812486 344.279614284 401.897087755 387 408 c 1
 376.333333333 428 371 452.666666667 371 482 c 0
 371 602.002509131 432.829257781 696 548.5 696 c 128
 664.583083645 696 729 599.701034557 729 479 c 2
 729 0 l 1
 694 0 l 1
 694 477 l 2
 694 546.00006015 623.511510711 594 551.5 594 c 128
 480.993704643 594 406 549.313044753 406 482 c 256
 406 451.333333333 410.666666667 427 420 409 c 1
 560.190337758 409 622 319.014572523 622 174.5 c 128
 622 98.1666666667 594.5 33.6666666667 539.5 -19 c 128
 484.5 -71.6666666667 418.333333333 -98 341 -98 c 2
 128 -98 l 2
 90.2976306023 -98 52.4225450581 -113.794328779 45 -142 c 1
 73 -135 l 1
 98.7843722084 -135 124 -154.651140823 124 -179.5 c 128
 124 -205.675066444 96.8912212111 -220 69 -220 c 128
 39.0422038865 -220 9 -198.241995093 9 -169 c 0
EndSplineSet
Ligature2: "'abvs' Above Base Substitutions in Tamil lookup 2 subtable" tml_Rra tml_MatraI
EndChar

StartChar: tml_La_tml_MatraI
Encoding: 277 -1 93
Width: 883
GlyphClass: 2
Flags: HW
LayerCount: 2
Fore
SplineSet
19 180 m 0
 19 240.666666667 43 292.5 91 335.5 c 128
 139 378.5 199.333333333 400 272 400 c 128
 391.558297465 400 521 354.935004078 521 246 c 2
 521 117 l 2
 521 75.448902801 549.041839781 36 589 36 c 0
 655.265543247 36 683 121.872199042 683 194 c 128
 683 238 670 277.333333333 644 312 c 1
 636 309.333333333 629 308 623 308 c 0
 535.475585532 308 466 383.700455716 466 472 c 0
 466 595.396698469 528.399843702 696 646 696 c 128
 700 696 745.5 671.5 782.5 622.5 c 128
 819.5 573.5 838 514.333333333 838 445 c 2
 838 0 l 1
 803 0 l 1
 803 444 l 2
 803 526.2547181 734.899413763 594 652.5 594 c 128
 575.930268097 594 501 541.871126182 501 468 c 128
 501 401.422339409 550.44973226 343 616 343 c 1
 596 360 l 2
 587.333333333 368.666666667 583 378.166666667 583 388.5 c 128
 583 409.82430496 601.046071265 422 622 422 c 0
 648.666666667 422 671.333333333 400.666666667 690 358 c 256
 708.666666667 315.333333333 718 264 718 204 c 0
 718 68.6666666667 662.666666667 1 552 1 c 0
 468.306229575 1 392 36.5131781712 392 114 c 2
 392 247 l 2
 392 322.041492921 337.154943748 369 261 369 c 0
 203.666666667 369 154.833333333 350.666666667 114.5 314 c 128
 74.1666666667 277.333333333 54 233.333333333 54 182 c 0
 54 119.886819157 81.0080895941 69.3279402706 119 44 c 1
 101 62 92 89 92 125 c 128
 92 198.721662595 153.424082933 258 228.5 258 c 128
 306.122241178 258 360 202.068623642 360 124.5 c 128
 360 39.7287301191 281.82105811 1 193 1 c 128
 95.0106939799 1 19 82.1437980068 19 180 c 0
127 115.5 m 128
 127 79.1779492704 143.927410935 36 177 36 c 128
 210.117436991 36 230 82.304608403 230 118.5 c 128
 230 154.999744186 210.264104004 198 177 198 c 128
 144.067951263 198 127 151.516713811 127 115.5 c 128
EndSplineSet
Ligature2: "'abvs' Above Base Substitutions in Tamil lookup 2 subtable" tml_La tml_MatraI
EndChar

StartChar: tml_Lla_tml_MatraI
Encoding: 278 -1 94
Width: 1064
GlyphClass: 2
Flags: HW
LayerCount: 2
Fore
SplineSet
19 196.5 m 128
 19 252.166666667 43 300.333333333 91 341 c 256
 139 381.666666667 196.666666667 402 264 402 c 0
 353.939393939 402 424.272727273 371 475 309 c 1
 475 400 l 1
 750 400 l 1
 736 432.666666667 729 465 729 497 c 0
 729 602.019783588 772.628895791 696 871 696 c 128
 972.503675387 696 1019 589.423326273 1019 479 c 2
 1019 0 l 1
 984 0 l 1
 984 482 l 2
 984 542.546827628 931.873381771 594 871.5 594 c 128
 813.11678174 594 764 544.284185608 764 487 c 128
 764 459 771 430 785 400 c 1
 933 400 l 1
 933 367 l 1
 844 367 l 1
 844 0 l 1
 714 0 l 1
 714 367 l 1
 582 367 l 1
 582 0 l 1
 452 0 l 1
 452 218 l 1
 425.282385445 292.586673965 357.209510392 367 264 367 c 0
 206 367 156.5 350.166666667 115.5 316.5 c 128
 74.5 282.833333333 54 242.333333333 54 195 c 0
 54 124.649402656 83.0667241202 57.9777586266 134 41 c 1
 116 60.3846153846 107 89.5641025639 107 128.538461538 c 128
 107 207.934892613 162.529423503 260 243 260 c 256
 324.044086964 260 379 205.739741743 379 125.5 c 128
 379 38.1127462652 298.424020668 -1 206 -1 c 128
 154 -1 109.666666667 18 73 56 c 0
 37 94 19 140.833333333 19 196.5 c 128
142 116.5 m 128
 142 79.6870568328 160.017347122 34 194 34 c 128
 228.135989074 34 249 79.8821776236 249 117 c 128
 249 154.560273145 228.783576075 195 194 195 c 128
 159.889912468 195 142 153.608263912 142 116.5 c 128
EndSplineSet
Ligature2: "'abvs' Above Base Substitutions in Tamil lookup 2 subtable" tml_Lla tml_MatraI
EndChar

StartChar: tml_Llla_tml_MatraI
Encoding: 279 -1 95
Width: 830
GlyphClass: 2
Flags: HW
LayerCount: 2
Fore
SplineSet
24 -174.5 m 128
 24 -142.833333333 37.1666666667 -116.333333333 63.5 -95 c 128
 89.8333333333 -73.6666666667 118.833333333 -63 150.5 -63 c 128
 182.166666667 -63 207 -68.6666666667 225 -80 c 256
 243 -91.3333333333 252 -103.833333333 252 -117.5 c 128
 252 -147.344385654 207.992136199 -163 177 -163 c 128
 148.216131222 -163 122 -151.143524429 122 -126 c 0
 121.309926929 -122.894671182 120.964890394 -119.992678811 120.964890394 -117.294022889 c 0
 120.964890394 -108.891389677 124.309926929 -102.460048714 131 -98 c 1
 91.3126279907 -98 59 -133.392160326 59 -173 c 128
 59 -218.190429407 125.030996873 -245 173 -245 c 128
 227.286684157 -245 267 -210.509515927 267 -157.5 c 128
 267 -106.671059489 310.391440151 -63 362 -63 c 1
 335.545528724 -58.8229782196 319 -31.449030757 319 0 c 1
 45 0 l 1
 45 400 l 1
 175 400 l 1
 175 30 l 1
 319 30 l 1
 319 267 l 2
 319 343.84737599 382.643950368 401.359783378 453 410 c 1
 443 437.333333333 438 460.666666667 438 480 c 0
 438 539.333333333 454.666666667 590.166666667 488 632.5 c 128
 521.333333333 674.833333333 562 696 610 696 c 128
 658 696 699.166666667 673.333333333 733.5 628 c 128
 767.833333333 582.666666667 785 528 785 464 c 2
 785 0 l 1
 750 0 l 1
 750 462 l 2
 750 535.791442704 684.218117768 594 610 594 c 128
 538.495462989 594 473 547.634620076 473 477.8 c 128
 473 444.333333333 476.666666667 421.733333333 484 410 c 1
 528 410 565.5 388.833333333 596.5 346.5 c 128
 627.5 304.166666667 643 253.333333333 643 194 c 128
 643 97.0992470936 608.121521236 0 521 0 c 2
 448 0 l 1
 448 -33.8358233358 474.407377071 -63 508 -63 c 2
 606 -63 l 1
 606 -98 l 1
 498 -98 l 2
 444.983796262 -98 397 -134.613306071 397 -186.5 c 128
 397 -250.596455342 264.401536647 -280 190 -280 c 128
 103.531301908 -280 24 -251.139087141 24 -174.5 c 128
448 30 m 1
 522 30 l 2
 582.252844403 30 608 127.80623457 608 197 c 128
 608 273.220661356 570.069298031 370 500 370 c 0
 463.752410741 370 448 312.162751253 448 271 c 2
 448 30 l 1
EndSplineSet
Ligature2: "'abvs' Above Base Substitutions in Tamil lookup 2 subtable" tml_Llla tml_MatraI
EndChar

StartChar: tml_Va_tml_MatraI
Encoding: 280 -1 96
Width: 936
GlyphClass: 2
Flags: HW
LayerCount: 2
Fore
SplineSet
21 182 m 0
 21 333.210740574 135.175145305 421 290.5 421 c 128
 440.974533953 421 560 342.379027648 560 198 c 0
 560 124.602765333 537.225257865 59.9663120336 495 30 c 1
 644 30 l 1
 644 309 l 1
 574.287862806 314.69078671 529 391.780913465 529 470 c 0
 529 592.612917119 590.717544689 696 706.5 696 c 128
 758.833333333 696 802.666666667 671.5 838 622.5 c 128
 873.333333333 573.5 891 514.333333333 891 445 c 2
 891 0 l 1
 856 0 l 1
 856 452 l 2
 856 530.82337384 787.656584115 594 708.5 594 c 128
 633.593823818 594 564 544.068262053 564 471.5 c 128
 564 412.329130851 592.920379386 346.507025348 644 342 c 1
 644 400 l 1
 774 400 l 1
 774 0 l 1
 343 0 l 1
 343 27 l 1
 395.269554712 51.8280384883 430 119.441619894 430 196 c 0
 430 296.26046062 343.714965112 376 243 376 c 256
 139.625125488 376 56 286.146271905 56 182 c 0
 56 119.886819157 83.0080895941 69.3279402706 121 44 c 1
 103.666666667 64 95 92.3333333333 95 129 c 128
 95 204.957431262 151.176566674 258 229 258 c 256
 308.710277142 258 363 204.406840244 363 125.5 c 128
 363 39.1690639802 286.167628907 1 194.5 1 c 128
 89.337905253 1 21 75.5181814306 21 182 c 0
130 118.5 m 128
 130 82.4387232785 147.046684896 36 180 36 c 128
 213.117436991 36 233 82.304608403 233 118.5 c 128
 233 154.999744186 213.264104004 198 180 198 c 128
 146.948987416 198 130 154.780255597 130 118.5 c 128
EndSplineSet
Ligature2: "'abvs' Above Base Substitutions in Tamil lookup 2 subtable" tml_Va tml_MatraI
EndChar

StartChar: tml_Ssa_tml_MatraI
Encoding: 281 -1 97
Width: 1171
GlyphClass: 2
Flags: HW
LayerCount: 2
Fore
SplineSet
20 185 m 0
 20 332.229919119 139.464201609 414 292 414 c 256
 441.505683113 414 564 337.745694338 564 195 c 0
 564 121.778519667 534.037576293 61.6452766862 491 30 c 1
 707 30 l 1
 707 164 l 1
 638.793604494 164 574 213.900474993 574 280 c 128
 574 344.23357188 624.907431084 392.885738816 685 398 c 1
 673 424 667 451.333333333 667 480 c 0
 667 613.716822415 758.912081124 696 894 696 c 128
 1032.56498245 696 1126 602.90034019 1126 464 c 2
 1126 0 l 1
 1091 0 l 1
 1091 462 l 2
 1091 545.92338669 983.63241774 594 893.5 594 c 128
 810.205828954 594 702 554.996862227 702 481 c 128
 702 451 707.333333333 423.333333333 718 398 c 1
 773.84609749 393.619913922 837 359.06650665 837 304 c 2
 837 193 l 1
 859 193 881.5 203 904.5 223 c 128
 927.5 243 947.666666667 270 965 304 c 1
 1026 304 l 1
 1026 0 l 1
 837 0 l 1
 837 -242 l 1
 707 -242 l 1
 707 0 l 1
 347 0 l 1
 347 27 l 1
 397.730501471 54.9017758092 434 118.820699391 434 196 c 0
 434 244 415.5 284.833333333 378.5 318.5 c 128
 341.5 352.166666667 295.5 369 240.5 369 c 128
 129.727666014 369 55 293.574189179 55 182 c 0
 55 119.649519585 85.1628485208 69.3509145777 125 44 c 1
 107.666666667 64 99 90.8333333333 99 124.5 c 128
 99 196.611992247 157.795656624 243 233 243 c 256
 311.848081195 243 367 197.766610041 367 120 c 128
 367 35.8304689454 293.25023539 -9 204 -9 c 128
 154 -9 110.666666667 10 74 48 c 0
 38 86 20 131.666666667 20 185 c 0
609 277.5 m 128
 609 229.548732246 657.005585034 192 707 192 c 1
 707 302 l 2
 707 330.279380587 689.45200893 354 661.5 354 c 128
 628.601499346 354 609 313.898687175 609 277.5 c 128
134 119.5 m 128
 134 85.116242174 151.995518194 46 184 46 c 128
 216.11967341 46 237 85.007367598 237 119.5 c 128
 237 154.021979779 216.140953177 193 184 193 c 128
 151.327916416 193 134 154.490863094 134 119.5 c 128
837 30 m 1
 896 30 l 1
 896 179 l 1
 881.714285714 169 862.047619047 164 837 164 c 1
 837 30 l 1
EndSplineSet
Ligature2: "'abvs' Above Base Substitutions in Tamil lookup 2 subtable" tml_Ssa tml_MatraI
EndChar

StartChar: tml_Sa_tml_MatraI
Encoding: 282 -1 98
Width: 1176
GlyphClass: 2
Flags: HW
LayerCount: 2
Fore
SplineSet
21 193.5 m 128
 21 329.232912001 130.639128765 411 271 411 c 0
 380.469960215 411 482.419593005 374.737597711 518 305 c 1
 534.212316169 363.613758459 592.210884856 411 665 411 c 0
 754.297162639 411 833 343.709272032 833 256 c 2
 833 117 l 2
 833 80.2483327708 857.513361428 44 893 44 c 0
 962.059200279 44 988 126.368851813 988 204 c 0
 988 247 976.666666667 282.666666667 954 311 c 1
 944 307.666666667 930.666666667 306 914 306 c 0
 827.793351707 306 781 402.571468682 781 497 c 128
 781 606.477743294 846.194055378 696 954.5 696 c 128
 1073.41839445 696 1131 583.124077012 1131 456 c 2
 1131 0 l 1
 1096 0 l 1
 1096 459 l 2
 1096 534.111493712 1031.61931082 594 956 594 c 256
 887.713796845 594 816 551.875535609 816 487 c 0
 816 443 826.403846154 407.009615385 847.211538462 379.028846154 c 128
 868.019230769 351.048076923 890.477440828 337.057692308 914.586168639 337.057692308 c 0
 918.336415188 337.057692308 922.141025641 337.371794872 926 338 c 1
 901 360 l 2
 895.666666667 365.333333333 893 373.166666667 893 383.5 c 128
 893 403.133668139 908.747242901 422 928 422 c 0
 954 422 976.333333333 400.666666667 995 358 c 256
 1013.66666667 315.333333333 1023 262.666666667 1023 200 c 128
 1023 87.9209578054 966.79788353 -11 860.5 -11 c 128
 773.025218853 -11 703 30.4691301692 703 114 c 2
 703 257 l 2
 703 308.878597068 680.405160067 376 633.5 376 c 128
 587.298202474 376 559 318.744660836 559 269 c 2
 559 0 l 1
 429 0 l 1
 429 235 l 2
 429 315.694795645 352.778683608 376 270 376 c 0
 148.425321726 376 56 307.896882221 56 190 c 0
 56 122.306897689 82.768285531 58.0229580479 131 41 c 1
 112.333333333 62.3333333333 103 91.3333333333 103 128 c 128
 103 204.930202843 162.711589414 255 242 255 c 256
 322.705209912 255 381 203.577117033 381 124.5 c 128
 381 44.2159912828 304.407791862 -11 222 -11 c 0
 98.8280808208 -11 21 68.8820147984 21 193.5 c 128
138 121 m 128
 138 85.0353649866 158.904147926 44 193 44 c 128
 227.434958557 44 251 82.2248881257 251 119 c 128
 251 155.774457429 227.910331327 195 193 195 c 128
 158.837435499 195 138 157.149484357 138 121 c 128
EndSplineSet
Ligature2: "'abvs' Above Base Substitutions in Tamil lookup 2 subtable" tml_Sa tml_MatraI
EndChar

StartChar: tml_Ha_tml_MatraI
Encoding: 283 -1 99
Width: 1349
GlyphClass: 2
Flags: HW
LayerCount: 2
Fore
SplineSet
20 -164 m 0
 20 -105.002173297 77.2041206522 -63 138 -63 c 2
 906 -63 l 2
 952 -63 991.333333333 -40.3333333333 1024 5 c 256
 1056.66666667 50.3333333333 1073 104.333333333 1073 167 c 128
 1073 229.666666667 1065.16666667 279.166666667 1049.5 315.5 c 128
 1033.83333333 351.833333333 1013 370 987 370 c 0
 951.09475372 370 926 331.415841054 926 294 c 2
 926 0 l 1
 796 0 l 1
 796 295 l 2
 796 331.795445555 772.460380858 370 738 370 c 128
 703.925851113 370 684 329.971506641 684 294 c 2
 684 0 l 1
 343 0 l 1
 343 30 l 1
 392.211636818 57.0664002498 430 117.262451378 430 191 c 0
 430 301.109443902 352.844265985 370 242 370 c 256
 129.10955632 370 55 294.862740942 55 182 c 0
 55 119.363715573 82.0014415166 69.1603603119 121 44 c 1
 103.666666667 61.3333333333 95 88.1666666667 95 124.5 c 128
 95 200.072419996 151.516023725 248 229 248 c 256
 307.327061578 248 363 199.869162168 363 123 c 128
 363 40.2458627349 291.902779318 0 204 0 c 128
 154.666666667 0 111.666666667 17.5 75 52.5 c 128
 38.3333333333 87.5 20 130 20 180 c 0
 20 330.788670157 134.939631673 419 290 419 c 256
 442.694373595 419 560 337.297517533 560 190 c 0
 560 119.422669605 537.330977596 59.5760502373 497 30 c 1
 649 30 l 1
 649 292 l 2
 649 356.560408736 696.877973349 400 761 400 c 128
 821.520059193 400 870.614562567 374.358960039 886 331 c 1
 898.902784398 368.274710484 940.975880474 392.698791428 986 400 c 1
 973.333333333 422 967 459.666666667 967 513 c 128
 967 617.152513135 1032.14417522 696 1135.5 696 c 128
 1249.14751361 696 1304 589.988085599 1304 469 c 2
 1304 0 l 1
 1269 0 l 1
 1269 467 l 2
 1269 538.414510094 1207.54570867 594 1135.5 594 c 128
 1066.66308971 594 1002 547.279823977 1002 480.5 c 128
 1002 448.833333333 1009.33333333 422 1024 400 c 1
 1143.33333333 393.29588015 1203 317.29588015 1203 172 c 0
 1203 -20.3371164113 1102.78667521 -98 906 -98 c 2
 139 -98 l 2
 103.468066245 -98 55 -112.654912188 55 -144 c 1
 88 -135 l 1
 111.377880785 -135 130 -156.02594179 130 -179.5 c 128
 130 -205.328523453 106.341378558 -220 79 -220 c 128
 48.6720136566 -220 20 -194.405226449 20 -164 c 0
130 120 m 128
 130 86.2325946613 147.976583915 46 180 46 c 128
 211.417230901 46 233 86.7738335383 233 120 c 128
 233 153.683458291 211.617664704 188 180 188 c 128
 147.822759801 188 130 154.181051093 130 120 c 128
EndSplineSet
Ligature2: "'abvs' Above Base Substitutions in Tamil lookup 2 subtable" tml_Ha tml_MatraI
EndChar

StartChar: tml_Ka_tml_MatraIi
Encoding: 284 -1 100
Width: 627
GlyphClass: 2
Flags: HW
LayerCount: 2
Fore
SplineSet
365 537.5 m 128
 365 507.575566082 379.363591143 477 407 477 c 128
 434.813683343 477 453 507.407157457 453 537.5 c 128
 453 567.138595947 434.617442343 604 407 604 c 128
 379.587605117 604 365 566.916758078 365 537.5 c 128
16 134 m 0
 16 188.659971119 64.9831121779 215 123 215 c 1
 79.3274655899 248.967526763 46 307.312110064 46 382 c 0
 46 466 75.8333333333 535.333333333 135.5 590 c 128
 195.166666667 644.666666667 270.666666667 672 362 672 c 0
 432 672 486.333333333 660.5 525 637.5 c 128
 563.666666667 614.5 583 583.5 583 544.5 c 128
 583 467.380020453 524.288164962 422 448 422 c 128
 375.658952 422 330 463.53293628 330 534 c 128
 330 567.333333333 337.333333333 590.666666667 352 604 c 1
 192.67500096 604 81 530.80157991 81 378 c 0
 81 318.718294965 104.67042769 267.354725056 141 244 c 1
 141 400 l 1
 526 400 l 1
 526 370 l 1
 416 370 l 1
 416 220 l 1
 488 220 l 2
 558.655435156 220 613 182.089534357 613 114 c 0
 613 73.3333333333 596.333333333 44 563 26 c 0
 529 8.66666666667 473.333333333 0 396 0 c 1
 396 30 l 1
 459.873249052 30 483 49.7861222313 483 113 c 0
 483 161 464.666666667 185 428 185 c 2
 416 185 l 1
 416 131 l 2
 416 42.3333333333 334 -2 170 -2 c 0
 89.8434245217 -2 16 55.9396249617 16 134 c 0
176 220 m 1
 286 220 l 1
 286 370 l 1
 176 370 l 1
 176 220 l 1
51 135 m 0
 51 71.485510516 103.210438574 33 168 33 c 128
 231.137117659 33 286 77.1187971007 286 138 c 2
 286 185 l 1
 119 185 l 2
 82.5842952522 185 51 169.180396496 51 135 c 0
EndSplineSet
Ligature2: "'abvs' Above Base Substitutions in Tamil lookup 2 subtable" tml_Ka tml_MatraIi
EndChar

StartChar: tml_Nga_tml_MatraIi
Encoding: 285 -1 101
Width: 790
GlyphClass: 2
Flags: HW
LayerCount: 2
Fore
SplineSet
705 536.5 m 128
 705 505.291019998 720.041564872 473 749 473 c 128
 778.080444279 473 796 505.175921483 796 536.5 c 128
 796 567.535529389 777.960648138 604 749 604 c 128
 720.191987347 604 705 567.36786823 705 536.5 c 128
45 0 m 1
 45 400 l 1
 464 400 l 1
 464 370 l 1
 348 370 l 1
 348 257 l 1
 376 275.666666667 408.666666667 285 446 285 c 128
 523.803997391 285 574 226.893045801 574 147 c 0
 574 89.8005415927 533.7890627 47.2851563291 490 30 c 1
 615 30 l 1
 615 307 l 1
 546.678110755 318.824942369 496 387.113507405 496 467 c 0
 496 595.712761005 583.79850438 677 714 677 c 128
 780.666666667 677 832.666666667 665 870 641 c 256
 907.333333333 617 926 585.333333333 926 546 c 128
 926 467.953545865 867.368270796 423 790 423 c 128
 716.651611938 423 670 463.666536642 670 534.7 c 128
 670 568.5 680.666666667 593.933333333 702 611 c 1
 603.360546523 611 531 556.092750212 531 460 c 0
 531 399.628389902 565.62172612 348.676383542 615 338 c 1
 615 400 l 1
 745 400 l 1
 745 0 l 1
 218 0 l 1
 218 30 l 1
 384 30 l 1
 419.320953977 48.9219396307 444 99.3395108487 444 152.5 c 128
 444 191.609743717 422.452362944 240 388.5 240 c 128
 363.287741515 240 348 221.641626557 348 197 c 2
 348 110 l 1
 218 110 l 1
 218 370 l 1
 80 370 l 1
 80 0 l 1
 45 0 l 1
EndSplineSet
Ligature2: "'abvs' Above Base Substitutions in Tamil lookup 2 subtable" tml_Nga tml_MatraIi
EndChar

StartChar: tml_Ca_tml_MatraIi
Encoding: 286 -1 102
Width: 516
GlyphClass: 2
Flags: HW
LayerCount: 2
Fore
SplineSet
355 536.5 m 128
 355 505.370536328 370.076267352 472 399 472 c 128
 428.045029806 472 446 505.256173991 446 536.5 c 128
 446 567.535529389 427.960648138 604 399 604 c 128
 370.191987347 604 355 567.36786823 355 536.5 c 128
19 137 m 0
 19 185.4675845 54.3597548749 215 104 215 c 1
 62 254.2 41 309.866666667 41 382 c 0
 41 466 70.3333333333 535.333333333 129 590 c 0
 188.333333333 644.666666667 263 672 353 672 c 0
 463.902141824 672 576 630.428790434 576 530 c 0
 576 460.077644293 511.147092473 422 438.5 422 c 128
 365.524531684 422 320 459.337005721 320 528.5 c 128
 320 560.166666667 329.333333333 585.333333333 348 604 c 1
 196.040689694 604 76 524.36143674 76 378 c 0
 76 314.203732439 95.0715875816 257.880852263 133 234 c 1
 133 400 l 1
 508 400 l 1
 508 370 l 1
 419 370 l 1
 419 220 l 1
 508 220 l 1
 508 185 l 1
 419 185 l 1
 419 137 l 2
 419 44.3333333333 345 -2 197 -2 c 0
 99.8913072446 -2 19 44.8696062597 19 137 c 0
168 220 m 1
 289 220 l 1
 289 370 l 1
 168 370 l 1
 168 220 l 1
54 137 m 0
 54 65.8404576508 121.916689095 33 198 33 c 0
 255.371402718 33 289 77.9430406136 289 137 c 2
 289 185 l 1
 121 185 l 2
 86.0158530325 185 54 169.796854891 54 137 c 0
EndSplineSet
Ligature2: "'abvs' Above Base Substitutions in Tamil lookup 2 subtable" tml_Ca tml_MatraIi
EndChar

StartChar: tml_Ja_tml_MatraIi
Encoding: 287 -1 103
Width: 769
GlyphClass: 2
Flags: HW
LayerCount: 2
Fore
SplineSet
8 -68 m 128
 8 27.8326123862 111.954811655 85 212 85 c 2
 494 85 l 2
 567.343225884 85 621 155.567027008 621 230.5 c 128
 621 288.58029514 598.639264485 373 548.5 373 c 128
 503.845798639 373 477 318.724069168 477 271 c 2
 477 138 l 1
 347 138 l 1
 347 259 l 2
 347 327.723473897 265.873135816 373 194 373 c 128
 122.845554227 373 52 327.353526479 52 260.5 c 128
 52 208.843343352 77.2116473055 158.529829589 121 154 c 1
 96.6928636282 162.578989308 82 194.728592231 82 229 c 0
 82 291.62164237 125.514761092 330 189 330 c 256
 252.508236663 330 296 289.596152617 296 227 c 128
 296 157.906872052 236.752765598 127 162.5 127 c 128
 79.9657620931 127 17 177.634851325 17 259.5 c 128
 17 345.407602605 113.134623855 408 202 408 c 128
 296.486834782 408 370.107075872 376.02258849 407 320 c 1
 425.812847955 367.032119887 477.062245151 400.485026647 537 407 c 1
 527 429.666666667 522 455.333333333 522 484 c 0
 522 589.026686618 609.734016314 674 715 674 c 0
 851 674 919 627.666666667 919 535 c 0
 919 466.054808641 864.200557773 426 793 426 c 256
 720.799042832 426 668 466.228967726 668 536.633333333 c 128
 668 570.388888889 678.333333333 594.844444445 699 610 c 1
 626.944212962 610 557 557.750508786 557 488.5 c 128
 557 456.166666667 562 429.333333333 572 408 c 1
 668.547071919 404.138117123 751 327.150236133 751 228 c 0
 751 109.333333333 665 50 493 50 c 2
 237 50 l 2
 171.937658062 50 117 -0.452259437006 117 -65 c 128
 117 -119.555914663 152.474688258 -183 203.5 -183 c 0
 247.920289855 -183 300.420289855 -151.333333333 361 -88 c 0
 408.328091974 -39.6201726484 476.323443472 9 560 9 c 0
 654.853087674 9 751 -26.5541944004 751 -112 c 128
 751 -197.341133026 653.043739434 -228 558 -228 c 0
 503.304347826 -228 460.971014493 -212.333333333 431 -181 c 1
 446 -157 l 1
 475.647058823 -181 512.980392157 -193 558 -193 c 0
 597.135838043 -193 621 -152.732040576 621 -111.5 c 128
 621 -68.5308749244 590.886546272 -26 549 -26 c 0
 502.333333333 -26 444.666666667 -58 376 -122 c 256
 307.333333333 -186 249.666666667 -218 203 -218 c 0
 98.9942867529 -218 8 -166.350826398 8 -68 c 128
703 538 m 256
 703 507.337867292 717.900531802 471 746 471 c 256
 774.081499726 471 789 507.371027173 789 538 c 128
 789 568.662132708 774.099468198 605 746 605 c 256
 717.918500274 605 703 568.628972827 703 538 c 256
117 228.5 m 128
 117 197.479649359 133.096573678 162 162 162 c 128
 191.774449725 162 210 194.573650221 210 226.5 c 128
 210 257.504231626 190.970812323 295 162 295 c 128
 133.112981629 295 117 259.49318749 117 228.5 c 128
EndSplineSet
Ligature2: "'abvs' Above Base Substitutions in Tamil lookup 2 subtable" tml_Ja tml_MatraIi
EndChar

StartChar: tml_Nya_tml_MatraIi
Encoding: 288 -1 104
Width: 1016
GlyphClass: 2
Flags: HW
LayerCount: 2
Fore
SplineSet
777 537 m 128
 777 505.401431659 793.773058093 472 823 472 c 256
 852.686675711 472 869 504.664806159 869 536.5 c 128
 869 567.504231626 849.970812323 605 821 605 c 128
 791.996198128 605 777 568.229179104 777 537 c 128
24 126 m 0
 24 222 65.6666666667 311.666666667 149 395 c 1
 169 373 l 1
 95.6666666667 296.899371069 59 214.232704403 59 125 c 0
 59 24.3333333333 96.5 -59 171.5 -125 c 128
 246.5 -191 341.333333333 -224 456 -224 c 0
 688.728200393 -224 868 -130.049344757 868 89 c 0
 868 145.261162296 832.665605843 202 779 202 c 0
 756.396217716 202 741 178.323828724 741 155 c 2
 741 0 l 1
 611 0 l 1
 611 370 l 1
 442 370 l 2
 376.666666667 370 320.833333333 352 274.5 316 c 128
 228.166666667 280 205 236.333333333 205 185 c 0
 205 124.30380851 227.972099733 71.7302287243 266 50 c 1
 251.333333333 66 244 89.3333333333 244 120 c 0
 244 207.858369946 305.308532411 263 394 263 c 256
 480.731803614 263 544 213.424454247 544 128.5 c 128
 544 36.3237747978 460.236330648 -8 361.5 -8 c 128
 245.634810374 -8 170 69.7066037166 170 187.5 c 128
 170 247.833333333 195.833333333 298.333333333 247.5 339 c 128
 299.166666667 379.666666667 364.666666667 400 444 400 c 2
 632 400 l 1
 606 424.631578947 593 459.122807018 593 503.473684211 c 128
 593 547.824561404 612.166666667 587.333333333 650.5 622 c 128
 688.833333333 656.666666667 737.5 674 796.5 674 c 128
 899.501099165 674 999 626.78666811 999 530 c 0
 999 460.374065383 942.811870577 422 870.5 422 c 128
 797.138006532 422 742 462.55251283 742 533.7 c 128
 742 567.5 752.666666667 592.933333333 774 610 c 1
 703.110745237 610 628 565.537027697 628 498 c 0
 628 456.466666667 642 423.8 670 400 c 1
 837 400 l 1
 837 370 l 1
 741 370 l 1
 741 228 l 1
 771 244 798.666666667 252 824 252 c 0
 926.233435598 252 998 188.799343072 998 88 c 0
 998 -22 950.5 -107.333333333 855.5 -168 c 128
 760.5 -228.666666667 627.333333333 -259 456 -259 c 0
 331.333333333 -259 228 -222.666666667 146 -150 c 0
 64.6666666667 -77.3333333333 24 14.6666666667 24 126 c 0
279 117.5 m 128
 279 74.9888206628 305.42447741 32 346 32 c 256
 386.5517294 32 414 76.0452465883 414 118.5 c 128
 414 161.127416763 385.624020676 203 345 203 c 128
 304.450238418 203 279 159.955580028 279 117.5 c 128
EndSplineSet
Ligature2: "'abvs' Above Base Substitutions in Tamil lookup 2 subtable" tml_Nya tml_MatraIi
EndChar

StartChar: tml_Tta_tml_MatraIi
Encoding: 289 -1 105
Width: 802
GlyphClass: 2
Flags: HW
LayerCount: 2
Fore
SplineSet
45 0 m 1
 45 400 l 1
 175 400 l 1
 175 30 l 1
 427 30 l 1
 370.135782062 58.4321089691 317 117.768591076 317 197 c 0
 317 251.666666667 339.333333333 298.333333333 384 337 c 256
 428.666666667 375.666666667 480.5 395 539.5 395 c 128
 638.404888845 395 729 349.773021022 729 260 c 128
 729 183.342206596 677.377108382 143 600.5 143 c 128
 529.396034842 143 472 182.112996112 472 249.857142857 c 128
 472 281.095238095 482 308.142857143 502 331 c 1
 428.437757774 324.103539791 352 272.439967558 352 197 c 128
 352 115.991226543 416.670494651 59.6073474098 478 30 c 1
 799 30 l 1
 799 0 l 1
 45 0 l 1
507 256 m 128
 507 225.164222686 522.246424665 193 551 193 c 128
 579.939605926 193 599 223.934423097 599 255 c 128
 599 285.633401879 579.759954636 323 551 323 c 128
 522.389373403 323 507 286.506239239 507 256 c 128
EndSplineSet
Ligature2: "'abvs' Above Base Substitutions in Tamil lookup 2 subtable" tml_Tta tml_MatraIi
EndChar

StartChar: tml_Nna_tml_MatraIi
Encoding: 290 -1 106
Width: 1229
GlyphClass: 2
Flags: HW
LayerCount: 2
Fore
SplineSet
20 173 m 0
 20 324.196378312 147.746895196 405 306 405 c 0
 417.181818182 405 491.181818182 390 528 360 c 1
 564.818181818 390 608.818181818 405 660 405 c 0
 733.594202899 405 791.260869565 389 833 357 c 1
 872.333333333 385.666666667 914.666666667 400 960 400 c 2
 1020 400 l 1
 996 429.647058823 984 462.31372549 984 498 c 0
 984 607.385364944 1065.05694872 672 1177 672 c 0
 1317.66666667 672 1388 626.333333333 1388 535 c 0
 1388 465.163495813 1330.64905473 427 1258 427 c 256
 1186.01290483 427 1129 465.973767895 1129 534.6875 c 128
 1129 566.479166667 1140.33333333 591.583333333 1163 610 c 1
 1088.85350206 610 1019 561.8979645 1019 490.058823529 c 128
 1019 456.098039216 1030.66666667 426.078431373 1054 400 c 1
 1226 400 l 1
 1226 370 l 1
 1144 370 l 1
 1144 0 l 1
 1014 0 l 1
 1014 370 l 1
 963 370 l 2
 926.333333333 370 894.666666667 360 868 340 c 1
 921.429950458 290.931678151 970 223.742151928 970 132.5 c 128
 970 57.4153595662 907.028197167 -11 831.5 -11 c 128
 752.984802204 -11 693 57.6110621488 693 137 c 0
 693 199.481481481 717.666666667 258.814814815 767 315 c 1
 733.153846154 351.666666667 695.153846154 370 653 370 c 0
 622.490196079 370 592.823529412 358.333333333 564 335 c 1
 632.666666667 274.741496599 667 208.741496599 667 137 c 0
 667 57.4253016782 603.064041255 -11 524 -11 c 256
 484.666666667 -11 451 3.5 423 32.5 c 128
 395 61.5 381 94.5 381 131.5 c 0
 381 204.439393939 404 264.606060606 450 312 c 1
 405.809523809 350.666666667 351.428571428 370 286.857142857 370 c 128
 222.285714286 370 167.5 351 122.5 313 c 128
 77.5 275 55 229 55 175 c 0
 55 113.997888794 78.1335335153 54.7177043777 121 39 c 1
 103.666666667 57.6666666667 95 85.8333333333 95 123.5 c 128
 95 199.424349684 150.967064315 254 227.5 254 c 128
 304.404791446 254 366 195.15655383 366 118.5 c 128
 366 34.1285731594 282.922034518 -11 194 -11 c 128
 93.9653396855 -11 20 72.5032753618 20 173 c 0
1164 538 m 128
 1164 504.06343171 1178.42533946 477 1210 477 c 128
 1241.85658557 477 1258 503.431376402 1258 538 c 128
 1258 572.156331939 1241.70538497 605 1210 605 c 128
 1178.63400079 605 1164 571.450671861 1164 538 c 128
728 137 m 0
 728 95.7450551622 747.903029392 44 785 44 c 128
 822.986161361 44 840 96.8268844273 840 140 c 128
 840 201.098615481 815.939149945 254.877918576 784 288 c 1
 746.666666667 250.666666667 728 200.333333333 728 137 c 0
416 137 m 0
 416 94.3030100531 436.906480956 44 476 44 c 256
 515.904911832 44 537 94.8395224106 537 139 c 0
 537 196.931034483 516.666666667 246.931034483 476 289 c 1
 436 246.241379311 416 195.574712644 416 137 c 0
130 117 m 256
 130 82.3315730134 148.267279486 44 181 44 c 128
 213.851318621 44 236 82.2031635717 236 117 c 128
 236 152.478545131 214.118450266 189 181 189 c 128
 148.254287058 189 130 151.715236289 130 117 c 256
EndSplineSet
Ligature2: "'abvs' Above Base Substitutions in Tamil lookup 2 subtable" tml_Nna tml_MatraIi
EndChar

StartChar: tml_Ta_tml_MatraIi
Encoding: 291 -1 107
Width: 639
GlyphClass: 2
Flags: HW
LayerCount: 2
Fore
SplineSet
372 535.5 m 128
 372 504.219289407 386.765653004 467 415.5 467 c 128
 444.385581813 467 462 504.087777474 462 535.5 c 128
 462 566.944579946 444.406166732 604 415.5 604 c 128
 386.783087739 604 372 566.747310673 372 535.5 c 128
-6 -169 m 0
 -6 -107.33314772 52.5049722699 -63 116 -63 c 2
 342 -63 l 2
 425.348691686 -63 493 4.65360054309 493 88 c 0
 493 128.809989272 475.167437543 185 439 185 c 2
 414 185 l 1
 414 131 l 2
 414 42.3333333333 336.666666667 -2 182 -2 c 0
 97.5707902809 -2 14 53.2355742673 14 134 c 0
 14 183.239414223 61.8205440104 217.601002147 111 220 c 1
 72.3333333333 264.190476191 53 318.190476191 53 382 c 0
 53 463.333333333 83.8333333333 532.833333333 145.5 590.5 c 128
 207.166666667 648.166666667 281.666666667 677 369 677 c 0
 488.005863413 677 592 638.269516458 592 530 c 0
 592 460.605695765 535.918606372 422 464 422 c 256
 394.846416429 422 337 462.786438721 337 528 c 128
 337 557.333333333 346.333333333 582.666666667 365 604 c 1
 210.802697826 604 88 525.691991646 88 378 c 0
 88 316.181818182 103.333333333 267.848484849 134 233 c 1
 134 400 l 1
 523 400 l 1
 523 370 l 1
 414 370 l 1
 414 220 l 1
 485 220 l 2
 559.837426533 220 623 159.593464046 623 85 c 0
 623 -40.6600073035 498.430320536 -98 363 -98 c 2
 112 -98 l 2
 75.6646739851 -98 29 -114.1478085 29 -147 c 1
 38.3333333333 -139 50.3333333333 -135 65 -135 c 128
 91.4477942134 -135 124 -152.379042261 124 -178 c 256
 124 -205.707318867 86.8771058648 -222 57 -222 c 128
 24.0890550201 -222 -6 -200.546727895 -6 -169 c 0
169 220 m 1
 284 220 l 1
 284 370 l 1
 169 370 l 1
 169 220 l 1
49 135 m 0
 49 66.9920721422 110.825508295 33 183 33 c 0
 239.078098273 33 284 81.7086475554 284 138 c 2
 284 185 l 1
 116 185 l 2
 83.1935239887 185 49 166.07586648 49 135 c 0
EndSplineSet
Ligature2: "'abvs' Above Base Substitutions in Tamil lookup 2 subtable" tml_Ta tml_MatraIi
EndChar

StartChar: tml_Na_tml_MatraIi
Encoding: 292 -1 108
Width: 616
GlyphClass: 2
Flags: HW
LayerCount: 2
Fore
SplineSet
7 -169 m 0
 7 -107.348349069 66.5526029438 -63 130 -63 c 2
 301 -63 l 2
 412.333333333 -63 468 -7 468 105 c 0
 468 156.333533858 440.61049629 217 393 217 c 0
 371.029289443 217 346 204.793156717 346 184 c 2
 346 0 l 1
 216 0 l 1
 216 370 l 1
 80 370 l 1
 80 0 l 1
 45 0 l 1
 45 400 l 1
 240 400 l 1
 224 424 216 453.666666667 216 489 c 0
 216 592.929266118 306.051509344 674 411 674 c 0
 530.308912572 674 607 640.545035181 607 530 c 0
 607 462.247741179 552.713271465 421 483.5 421 c 128
 414.230249387 421 356 469.374426053 356 537.214285714 c 128
 356 570.023809524 366 594.285714286 386 610 c 1
 312.721129716 610 251 557.490421939 251 484.433333333 c 128
 251 448.055555556 261.666666667 419.911111111 283 400 c 1
 509 400 l 1
 509 370 l 1
 346 370 l 1
 346 235 l 1
 377.333333333 253 412 262 450 262 c 128
 488 262 522.166666667 246.5 552.5 215.5 c 128
 582.833333333 184.5 598 147.333333333 598 104 c 0
 598 -43.2460601672 458.814042825 -98 298 -98 c 2
 126 -98 l 2
 90.4576529275 -98 56.1225857898 -114.934173999 49 -142 c 1
 76 -135 l 1
 104.456842635 -135 137 -152.886092484 137 -179.5 c 128
 137 -206.562462593 99.3688918142 -220 70 -220 c 128
 37.7301372486 -220 7 -199.734823849 7 -169 c 0
391 538 m 256
 391 507.337867292 405.900531802 471 434 471 c 256
 462.081499726 471 477 507.371027173 477 538 c 128
 477 568.662132708 462.099468198 605 434 605 c 256
 405.918500274 605 391 568.628972827 391 538 c 256
EndSplineSet
Ligature2: "'abvs' Above Base Substitutions in Tamil lookup 2 subtable" tml_Na tml_MatraIi
EndChar

StartChar: tml_Nnna_tml_MatraIi
Encoding: 293 -1 109
Width: 926
GlyphClass: 2
Flags: HW
LayerCount: 2
Fore
SplineSet
21 170 m 0
 21 324.825235699 142.085354412 412 302 412 c 0
 410.923076923 412 488.923076923 394 536 358 c 1
 559.8 386 601.133333333 400 660 400 c 2
 737 400 l 1
 719.666666667 430 711 459.666666667 711 489 c 0
 711 539 730.5 581.5 769.5 616.5 c 128
 808.5 651.5 857 669 915 669 c 128
 1012.93128409 669 1111 624.62188092 1111 534.5 c 128
 1111 456.895848669 1060.2876562 412 983 412 c 256
 907.043718208 412 855 459.59303255 855 535 c 0
 855 567.578359359 866.757371245 597.854422747 887 610 c 1
 815.757180786 610 751 558.002165795 751 488 c 256
 751 454 759.333333333 424.666666667 776 400 c 1
 922 400 l 1
 922 367 l 1
 840 367 l 1
 840 0 l 1
 710 0 l 1
 710 367 l 1
 659 367 l 2
 620.238095238 367 591.571428571 357 573 337 c 1
 624.094343536 294.421380387 661 224.597262395 661 135 c 128
 661 52.2214687872 606.166583531 -5 523 -5 c 256
 440.350994996 -5 385 52.0506425653 385 134 c 0
 385 216.333333333 407.666666667 277.333333333 453 317 c 1
 403.344827586 357 345.931034483 377 280.75862069 377 c 128
 153.79325279 377 56 297.886472127 56 172 c 0
 56 109.010159177 84.3309109217 49.1421482056 131 35 c 1
 107.666666667 51.0416666667 96 80.0520833333 96 122.03125 c 128
 96 205.084107946 149.046131231 254 231.5 254 c 128
 311.838427168 254 367 204.656811293 367 125 c 256
 367 37.4876534568 294.735005887 -5 201.5 -5 c 128
 97.1781631791 -5 21 65.3694620809 21 170 c 0
890 536 m 256
 890 504.099584656 904.629333328 466 934 466 c 128
 963.557456802 466 981 502.886153111 981 535 c 128
 981 567.062310421 963.539600942 605 934 605 c 128
 904.609317675 605 890 567.950894842 890 536 c 256
420 144 m 128
 420 98.2624811379 434.848224677 42 474 42 c 128
 510.980938315 42 531 95.9883036603 531 137 c 0
 531 206.571428571 511.666666667 257.238095238 473 289 c 1
 439.552372086 263.579802785 420 203.550241393 420 144 c 128
131 121.5 m 128
 131 85.2996281103 148.388022 42 182 42 c 128
 216.057594117 42 237 83.4469959497 237 120.5 c 128
 237 157.582579025 216.085947305 199 182 199 c 128
 148.337594534 199 131 157.825833054 131 121.5 c 128
EndSplineSet
Ligature2: "'abvs' Above Base Substitutions in Tamil lookup 2 subtable" tml_Nnna tml_MatraIi
EndChar

StartChar: tml_Pa_tml_MatraIi
Encoding: 294 -1 110
Width: 692
GlyphClass: 2
Flags: HW
LayerCount: 2
Fore
SplineSet
45 0 m 1
 45 400 l 1
 175 400 l 1
 175 30 l 1
 517 30 l 1
 517 307 l 1
 443.490137964 307 396 386.49386492 396 464 c 0
 396 522.666666667 417.333333333 572.833333333 460 614.5 c 128
 502.666666667 656.166666667 555.166666667 677 617.5 677 c 128
 718.185410574 677 827 635.873581119 827 545.5 c 128
 827 469.564103135 775.203079847 427 699 427 c 256
 625.866052532 427 571 467.827628201 571 539 c 0
 571 569.846210089 585.52307018 595.987494521 604 611 c 1
 556 611 515.166666667 596.333333333 481.5 567 c 128
 447.833333333 537.666666667 431 504 431 466 c 128
 431 403.324724496 460.122841249 338 517 338 c 1
 517 400 l 1
 647 400 l 1
 647 0 l 1
 45 0 l 1
606 537 m 128
 606 505.897347811 621.047393697 467 650 467 c 128
 679.080444279 467 697 505.780795125 697 537 c 128
 697 568.485324942 679.203333472 604 650 604 c 128
 620.961811096 604 606 568.309365172 606 537 c 128
EndSplineSet
Ligature2: "'abvs' Above Base Substitutions in Tamil lookup 2 subtable" tml_Pa tml_MatraIi
EndChar

StartChar: tml_Ma_tml_MatraIi
Encoding: 295 -1 111
Width: 658
GlyphClass: 2
Flags: HW
LayerCount: 2
Fore
SplineSet
45 0 m 1
 45 400 l 1
 175 400 l 1
 175 30 l 1
 319 30 l 1
 319 272 l 2
 319 342.107629271 382.101521452 391.543885328 446 402 c 1
 428 426.923076923 419 458.923076923 419 498 c 0
 419 614.154672787 504.306343898 682 624 682 c 128
 737.728752396 682 820 642.115651503 820 535 c 0
 820 467.420934348 762.655849294 432 692 432 c 256
 619.445983075 432 564 468.718462229 564 539.115384615 c 128
 564 572.525641026 573 596.153846154 591 610 c 1
 517.945443382 610 454 563.304231055 454 491.133333333 c 128
 454 455.888888889 464.333333333 425.177777778 485 399 c 1
 577.975031885 399 634 282.223889489 634 183.5 c 128
 634 90.7931509275 604.164344369 0 522 0 c 2
 45 0 l 1
449 30 m 1
 512 30 l 2
 538 30 559 43.6666666667 575 71 c 256
 591 98.3333333333 599 137.833333333 599 189.5 c 128
 599 273.595661627 566.539097134 371 490 371 c 0
 459.891919966 371 449 311.311630246 449 275 c 2
 449 30 l 1
599 536 m 256
 599 501.148646521 610.941386812 467 643 467 c 128
 675.451585734 467 690 500.057411325 690 535.5 c 128
 690 570.884021534 675.429272174 605 643 605 c 128
 610.954788943 605 599 570.822140173 599 536 c 256
EndSplineSet
Ligature2: "'abvs' Above Base Substitutions in Tamil lookup 2 subtable" tml_Ma tml_MatraIi
EndChar

StartChar: tml_Ya_tml_MatraIi
Encoding: 296 -1 112
Width: 712
GlyphClass: 2
Flags: HW
LayerCount: 2
Fore
SplineSet
40 119 m 2
 40 400 l 1
 170 400 l 1
 170 113 l 2
 170 88.1694580151 177.313775997 51 198.5 51 c 128
 219.594390647 51 229 87.6933445799 229 112 c 2
 229 400 l 1
 359 400 l 1
 359 30 l 1
 537 30 l 1
 537 307 l 1
 463.4423099 307 416 385.144275905 416 462 c 0
 416 520 437.166666667 569.5 479.5 610.5 c 128
 521.833333333 651.5 574.833333333 672 638.5 672 c 128
 746.475816225 672 847 634.2750536 847 535 c 0
 847 463.603907921 792.030460143 422 718.5 422 c 128
 646.044402413 422 590 462.363274179 590 532.125 c 128
 590 564.875 601.333333333 591.166666667 624 611 c 1
 576 611 535.166666667 596.333333333 501.5 567 c 128
 467.833333333 537.666666667 451 504 451 466 c 128
 451 403.324724496 480.122841249 338 537 338 c 1
 537 400 l 1
 667 400 l 1
 667 0 l 1
 247 0 l 1
 247 66 l 1
 234.330769749 22.9246171456 198.140441676 -10 143.5 -10 c 128
 84.7311804134 -10 40 56.932626569 40 119 c 2
625 536.5 m 128
 625 505.370536328 640.076267352 472 669 472 c 128
 698.774449725 472 717 504.573650221 717 536.5 c 128
 717 568.185845178 698.240566074 604 669 604 c 128
 640.191987347 604 625 567.36786823 625 536.5 c 128
EndSplineSet
Ligature2: "'abvs' Above Base Substitutions in Tamil lookup 2 subtable" tml_Ya tml_MatraIi
EndChar

StartChar: tml_Ra_tml_MatraIi
Encoding: 297 -1 113
Width: 454
GlyphClass: 2
Flags: HW
LayerCount: 2
Fore
SplineSet
392 537 m 128
 392 505.581452237 406.910647668 471 436 471 c 128
 465.303678033 471 484 504.332161759 484 536 c 128
 484 567.374677534 465.179983907 605 436 605 c 128
 406.996198128 605 392 568.229179104 392 537 c 128
38 -142 m 1
 224 0 l 1
 224 370 l 1
 80 370 l 1
 80 0 l 1
 45 0 l 1
 45 400 l 1
 241 400 l 1
 219.666666667 427.333333333 209 458.666666667 209 494 c 0
 209 546.666666667 229.5 591.5 270.5 628.5 c 128
 311.5 665.5 361.166666667 684 419.5 684 c 128
 522.888889176 684 614 637.271671619 614 540 c 0
 614 475.409725764 549.878709885 431 482.5 431 c 128
 411.985848555 431 357 468.871753887 357 538 c 128
 357 571.333333333 368 595.333333333 390 610 c 1
 314.39510769 610 244 561.563196634 244 487.441176471 c 128
 244 451.735294118 256 422.588235294 280 400 c 1
 451 400 l 1
 451 370 l 1
 354 370 l 1
 354 14 l 1
 57 -165 l 1
 38 -142 l 1
EndSplineSet
Ligature2: "'abvs' Above Base Substitutions in Tamil lookup 2 subtable" tml_Ra tml_MatraIi
EndChar

StartChar: tml_Rra_tml_MatraIi
Encoding: 298 -1 114
Width: 645
GlyphClass: 2
Flags: HW
LayerCount: 2
Fore
SplineSet
9 -169 m 0
 9 -108.282443618 64.9954188913 -63 127 -63 c 2
 337 -63 l 2
 379.666666667 -63 416.333333333 -40 447 6 c 0
 477 52 492 105.166666667 492 165.5 c 128
 492 225.833333333 483.666666667 275.666666667 467 315 c 256
 450.333333333 354.333333333 430.333333333 374 407 374 c 0
 368.1044562 374 338 340.110668407 338 301 c 2
 338 0 l 1
 208 0 l 1
 208 305 l 2
 208 342.577320311 177.63522105 374 140.5 374 c 128
 103.319457816 374 76 341.520123082 76 304 c 2
 76 0 l 1
 41 0 l 1
 41 307 l 2
 41 365.526869948 96.9247390355 409 157 409 c 256
 221.084864149 409 274.650504671 376.873738322 293 331 c 1
 308.487982948 367.932882415 341.055848356 401.140779781 385 407 c 1
 374.333333333 427 369 453.333333333 369 486 c 0
 369 590.215470395 457.277338718 674 562 674 c 0
 695.333333333 674 762 627.666666667 762 535 c 0
 762 463.924383713 710.169050121 421 638 421 c 256
 564.065120847 421 515 464.366658763 515 538.166666667 c 128
 515 574.944444444 523.666666667 600.555555555 541 615 c 1
 468.897849685 615 404 558.452728164 404 488 c 128
 404 454 408.333333333 427.666666667 417 409 c 1
 473.666666667 408.333333333 522 384.833333333 562 338.5 c 128
 602 292.166666667 622 234.166666667 622 164.5 c 128
 622 94.8333333333 594.5 33.6666666667 539.5 -19 c 128
 484.5 -71.6666666667 418.333333333 -98 341 -98 c 2
 128 -98 l 2
 90.2976306023 -98 52.4225450581 -113.794328779 45 -142 c 1
 73 -135 l 1
 98.7843722084 -135 124 -154.651140823 124 -179.5 c 128
 124 -205.675066444 96.8912212111 -220 69 -220 c 128
 39.0422038865 -220 9 -198.241995093 9 -169 c 0
550 538 m 128
 550 508.512203125 563.21165389 476 590 476 c 256
 617.384614901 476 632 507.657839519 632 537.5 c 128
 632 566.229372274 616.484679493 605 590 605 c 256
 563.427767664 605 550 567.014890428 550 538 c 128
EndSplineSet
Ligature2: "'abvs' Above Base Substitutions in Tamil lookup 2 subtable" tml_Rra tml_MatraIi
EndChar

StartChar: tml_La_tml_MatraIi
Encoding: 299 -1 115
Width: 746
GlyphClass: 2
Flags: HW
LayerCount: 2
Fore
SplineSet
19 180 m 0
 19 240.666666667 43 292.5 91 335.5 c 128
 139 378.5 199.333333333 400 272 400 c 128
 391.470047017 400 522 354.895358532 522 246 c 2
 522 117 l 2
 522 75.4720725225 549.04717356 36 589 36 c 0
 658.768935456 36 683 124.836518637 683 204 c 0
 683 237.50877193 669.666666667 272.50877193 643 309 c 1
 634 309 l 2
 549.780291836 309 479 377.643124064 479 462 c 0
 479 522.666666667 500.666666667 574.666666667 544 618 c 0
 588 660.666666667 641.166666667 682 703.5 682 c 128
 807.373032736 682 911 636.143872276 911 541.5 c 128
 911 461.936476456 861.264710658 417 782.5 417 c 128
 708.581419591 417 654 460.674786877 654 532.59375 c 128
 654 566.989583333 665 593.125 687 611 c 1
 639 611 598.166666667 596.333333333 564.5 567 c 128
 530.833333333 537.666666667 514 503.666666667 514 465 c 128
 514 394.925473621 557.294661697 333 624 333 c 1
 596 360 l 2
 587.333333333 368.666666667 583 378.166666667 583 388.5 c 128
 583 409.82430496 601.046071265 422 622 422 c 0
 648.666666667 422 671.333333333 400.666666667 690 358 c 256
 708.666666667 315.333333333 718 261.833333333 718 197.5 c 128
 718 79.8417492613 668.561106218 -4 556.5 -4 c 128
 467.382067394 -4 392 31.7681133614 392 114 c 2
 392 247 l 2
 392 322.041492921 337.154943748 369 261 369 c 0
 203.666666667 369 154.833333333 350.666666667 114.5 314 c 128
 74.1666666667 277.333333333 54 233.333333333 54 182 c 0
 54 119.363593657 83.7798298721 69.7382366465 123 44 c 1
 102.333333333 64.6666666667 92 93.1666666667 92 129.5 c 128
 92 205.035006138 148.448842635 258 226 258 c 256
 306.239957515 258 360 203.220653998 360 123.5 c 128
 360 37.5558434459 291.044918482 -4 201 -4 c 128
 151.666666667 -4 109 14 73 50 c 256
 37 86 19 129.333333333 19 180 c 0
689 536.5 m 128
 689 505.370536328 704.076267352 472 733 472 c 128
 762.774449725 472 781 504.573650221 781 536.5 c 128
 781 568.185845178 762.240566074 604 733 604 c 128
 704.191987347 604 689 567.36786823 689 536.5 c 128
127 114.5 m 128
 127 77.1012939824 142.982199343 31 177 31 c 128
 210.505167742 31 230 77.5858623988 230 114.5 c 128
 230 151.460734916 210.53088398 198 177 198 c 128
 143.698485057 198 127 151.222616342 127 114.5 c 128
EndSplineSet
Ligature2: "'abvs' Above Base Substitutions in Tamil lookup 2 subtable" tml_La tml_MatraIi
EndChar

StartChar: tml_Lla_tml_MatraIi
Encoding: 300 -1 116
Width: 937
GlyphClass: 2
Flags: HW
LayerCount: 2
Fore
SplineSet
19 196.5 m 128
 19 252.166666667 43 300.333333333 91 341 c 256
 139 381.666666667 196.666666667 402 264 402 c 0
 353.939393939 402 424.272727273 371 475 309 c 1
 475 400 l 1
 729 400 l 1
 709.666666667 424.857142857 700 456.190476191 700 494 c 0
 700 604.121284047 780.287103219 669 893.5 669 c 128
 992.189157525 669 1095 628.354505671 1095 538.5 c 128
 1095 461.775105142 1043.75166424 416 967 416 c 256
 893.383666955 416 839 460.946501369 839 532.75 c 128
 839 567.25 850.333333333 593 873 610 c 1
 800.425991319 610 735 561.181942814 735 490.09375 c 128
 735 456.15625 746 426.125 768 400 c 1
 933 400 l 1
 933 367 l 1
 844 367 l 1
 844 0 l 1
 714 0 l 1
 714 367 l 1
 582 367 l 1
 582 0 l 1
 452 0 l 1
 452 218 l 1
 425.282385445 292.586673965 357.209510392 367 264 367 c 0
 206 367 156.5 350.166666667 115.5 316.5 c 128
 74.5 282.833333333 54 242.333333333 54 195 c 0
 54 124.649402656 83.0667241202 57.9777586266 134 41 c 1
 116 60.3846153846 107 89.5641025639 107 128.538461538 c 128
 107 207.934892613 162.529423503 260 243 260 c 256
 324.044086964 260 379 205.739741743 379 125.5 c 128
 379 38.1127462652 298.424020668 -1 206 -1 c 128
 154 -1 109.666666667 18 73 56 c 0
 37 94 19 140.833333333 19 196.5 c 128
874 536 m 256
 874 504.044692016 889.571715292 466 919 466 c 256
 948.753691327 466 965 502.31971942 965 535 c 128
 965 567.009265109 948.484585012 605 919 605 c 256
 889.552417554 605 874 568.006155246 874 536 c 256
142 116.5 m 128
 142 79.6870568328 160.017347122 34 194 34 c 128
 228.135989074 34 249 79.8821776236 249 117 c 128
 249 154.560273145 228.783576075 195 194 195 c 128
 159.889912468 195 142 153.608263912 142 116.5 c 128
EndSplineSet
Ligature2: "'abvs' Above Base Substitutions in Tamil lookup 2 subtable" tml_Lla tml_MatraIi
EndChar

StartChar: tml_Llla_tml_MatraIi
Encoding: 301 -1 117
Width: 667
GlyphClass: 2
Flags: HW
LayerCount: 2
Fore
SplineSet
24 -174.5 m 128
 24 -142.833333333 37.1666666667 -116.333333333 63.5 -95 c 128
 89.8333333333 -73.6666666667 118.833333333 -63 150.5 -63 c 128
 198.814730636 -63 252 -82.5360318377 252 -124 c 128
 252 -157.275554861 220.967330254 -178 187 -178 c 256
 154.224245099 -178 122 -157.497658848 122 -126 c 0
 121.309926929 -122.894671182 120.964890394 -119.992678811 120.964890394 -117.294022889 c 0
 120.964890394 -108.891389677 124.309926929 -102.460048714 131 -98 c 1
 91.3126279907 -98 59 -133.392160326 59 -173 c 128
 59 -218.190429407 125.030996873 -245 173 -245 c 128
 227.213604537 -245 266 -210.01030499 266 -157.5 c 128
 266 -106.678087169 310.427262183 -63 362 -63 c 1
 335.545528724 -58.8229782196 319 -31.449030757 319 0 c 1
 45 0 l 1
 45 400 l 1
 175 400 l 1
 175 30 l 1
 319 30 l 1
 319 267 l 2
 319 336.603479138 378.296237905 386.255751978 439 400 c 1
 426.333333333 422.666666667 420 451.333333333 420 486 c 0
 420 536.666666667 439 579.833333333 477 615.5 c 128
 515 651.166666667 563.333333333 669 622 669 c 128
 725.531887262 669 817 627.490141825 817 530 c 0
 817 458.432888792 764.978818912 416 692 416 c 256
 618.584483775 416 567 461.560114194 567 533.714285714 c 128
 567 568.857142857 577 594.285714286 597 610 c 1
 525.536581101 610 455 557.877710366 455 489.5 c 128
 455 457.833333333 460.333333333 431.666666667 471 411 c 1
 482 411 l 2
 526.666666667 411 564.666666667 389.666666667 596 347 c 256
 627.333333333 304.333333333 643 253.333333333 643 194 c 128
 643 97.0992470936 608.121521236 0 521 0 c 2
 448 0 l 1
 448 -28.5891002175 461.675806233 -63 488 -63 c 2
 586 -63 l 1
 586 -98 l 1
 488 -98 l 2
 438.021087518 -98 396 -136.592215642 396 -186.5 c 128
 396 -250.645455992 264.505886711 -280 190 -280 c 128
 103.531301908 -280 24 -251.139087141 24 -174.5 c 128
449 30 m 1
 522 30 l 2
 582.252844403 30 608 127.80623457 608 197 c 128
 608 273.220661356 570.069298031 370 500 370 c 0
 464.78350164 370 449 311.401798787 449 271 c 2
 449 30 l 1
602 537 m 128
 602 506.367842732 614.985798955 471 643 471 c 128
 671.219554872 471 687 505.140111632 687 536 c 128
 687 566.549816437 671.082237383 605 643 605 c 128
 615.077511832 605 602 567.427014225 602 537 c 128
EndSplineSet
Ligature2: "'abvs' Above Base Substitutions in Tamil lookup 2 subtable" tml_Llla tml_MatraIi
EndChar

StartChar: tml_Va_tml_MatraIi
Encoding: 302 -1 118
Width: 819
GlyphClass: 2
Flags: HW
LayerCount: 2
Fore
SplineSet
21 182 m 0
 21 333.210740574 135.175145305 421 290.5 421 c 128
 440.974533953 421 560 342.379027648 560 198 c 0
 560 124.602765333 537.225257865 59.9663120336 495 30 c 1
 644 30 l 1
 644 307 l 1
 570.448175392 312.551081102 518 385.652239176 518 467 c 0
 518 522.333333333 539.333333333 569.5 582 608.5 c 128
 624.666666667 647.5 677.5 667 740.5 667 c 128
 842.846111902 667 952 626.161028664 952 534 c 128
 952 456.571080547 900.930622268 412 823.5 412 c 128
 749.795921463 412 695 458.621928935 695 530.125 c 128
 695 564.208333333 706.333333333 591.166666667 729 611 c 1
 680.333333333 611 638.833333333 596.666666667 604.5 568 c 128
 570.166666667 539.333333333 553 506.5 553 469.5 c 128
 553 403.667001741 586.519018969 342.537972187 644 338 c 1
 644 400 l 1
 774 400 l 1
 774 0 l 1
 343 0 l 1
 343 27 l 1
 395.269554712 51.8280384883 430 119.441619894 430 196 c 0
 430 296.26046062 343.714965112 376 243 376 c 256
 139.625125488 376 56 286.146271905 56 182 c 0
 56 119.886819157 83.0080895941 69.3279402706 121 44 c 1
 103.666666667 64 95 92.3333333333 95 129 c 128
 95 204.957431262 151.176566674 258 229 258 c 256
 308.710277142 258 363 204.406840244 363 125.5 c 128
 363 39.1690639802 286.167628907 1 194.5 1 c 128
 89.337905253 1 21 75.5181814306 21 182 c 0
730 535.5 m 128
 730 503.878569227 744.785488079 467 774 467 c 128
 803.637876929 467 822 503.094997216 822 535.5 c 128
 822 567.931349944 803.664183884 604 774 604 c 128
 744.801982519 604 730 567.090184055 730 535.5 c 128
130 118.5 m 128
 130 82.4387232785 147.046684896 36 180 36 c 128
 213.117436991 36 233 82.304608403 233 118.5 c 128
 233 154.999744186 213.264104004 198 180 198 c 128
 146.948987416 198 130 154.780255597 130 118.5 c 128
EndSplineSet
Ligature2: "'abvs' Above Base Substitutions in Tamil lookup 2 subtable" tml_Va tml_MatraIi
EndChar

StartChar: tml_Ssa_tml_MatraIi
Encoding: 303 -1 119
Width: 1060
GlyphClass: 2
Flags: HW
LayerCount: 2
Fore
SplineSet
20 185 m 0
 20 332.229919119 139.464201609 414 292 414 c 256
 441.505683113 414 564 337.745694338 564 195 c 0
 564 121.778519667 534.037576293 61.6452766862 491 30 c 1
 707 30 l 1
 707 164 l 1
 639.377936355 164 574 213.767754794 574 279 c 128
 574 341.429583223 619.623513337 389.273048373 675 397 c 1
 661.666666667 420.333333333 655 449.333333333 655 484 c 0
 655 535.333333333 673.833333333 579 711.5 615 c 128
 749.166666667 651 796.833333333 669 854.5 669 c 128
 950.403227898 669 1052 627.27552909 1052 539.5 c 128
 1052 463.564103135 1000.20307985 421 924 421 c 256
 851.052794914 421 796 462.785894419 796 533.642857143 c 128
 796 567.404761905 806 592.857142857 826 610 c 1
 754.453690836 610 690 555.905493601 690 485.5 c 128
 690 451.166666667 696.666666667 422.333333333 710 399 c 1
 768.658542446 395.679705145 837 361.218290952 837 304 c 2
 837 193 l 1
 859 193 881.5 203 904.5 223 c 128
 927.5 243 947.666666667 270 965 304 c 1
 1026 304 l 1
 1026 0 l 1
 837 0 l 1
 837 -242 l 1
 707 -242 l 1
 707 0 l 1
 347 0 l 1
 347 27 l 1
 397.730501471 54.9017758092 434 118.820699391 434 196 c 0
 434 303.554453659 353.812475733 369 244 369 c 256
 130.300694009 369 55 295.410371647 55 182 c 0
 55 119.649519585 85.1628485208 69.3509145777 125 44 c 1
 107.666666667 64 99 90.8333333333 99 124.5 c 128
 99 196.611992247 157.795656624 243 233 243 c 256
 311.848081195 243 367 197.766610041 367 120 c 128
 367 35.8304689454 293.25023539 -9 204 -9 c 128
 154 -9 110.666666667 10 74 48 c 0
 38 86 20 131.666666667 20 185 c 0
831 537 m 128
 831 505.581452237 845.910647668 471 875 471 c 128
 904.256793146 471 922 504.379721813 922 536 c 128
 922 567.327343468 904.133204326 605 875 605 c 128
 845.996198128 605 831 568.229179104 831 537 c 128
609 277.5 m 128
 609 229.548732246 657.005585034 192 707 192 c 1
 707 302 l 2
 707 330.279380587 689.45200893 354 661.5 354 c 128
 628.601499346 354 609 313.898687175 609 277.5 c 128
134 119.5 m 128
 134 85.116242174 151.995518194 46 184 46 c 128
 216.11967341 46 237 85.007367598 237 119.5 c 128
 237 154.021979779 216.140953177 193 184 193 c 128
 151.327916416 193 134 154.490863094 134 119.5 c 128
837 30 m 1
 896 30 l 1
 896 179 l 1
 881.714285714 169 862.047619047 164 837 164 c 1
 837 30 l 1
EndSplineSet
Ligature2: "'abvs' Above Base Substitutions in Tamil lookup 2 subtable" tml_Ssa tml_MatraIi
EndChar

StartChar: tml_Sa_tml_MatraIi
Encoding: 304 -1 120
Width: 1050
GlyphClass: 2
Flags: HW
LayerCount: 2
Fore
SplineSet
21 193.5 m 128
 21 329.232912001 130.639128765 411 271 411 c 0
 380.469960215 411 482.419593005 374.737597711 518 305 c 1
 534.212316169 363.613758459 592.210884856 411 665 411 c 0
 754.297162639 411 833 343.709272032 833 256 c 2
 833 117 l 2
 833 81.5875089289 854.257567431 44 888 44 c 0
 956.036085336 44 988 122.449864152 988 195.5 c 128
 988 238.5 976.666666667 274.666666667 954 304 c 1
 948.666666667 303.333333333 943 303 937 303 c 0
 854.122873954 303 789 374.344935868 789 458 c 0
 789 516 810.333333333 565.333333333 853 606 c 256
 895.666666667 646.666666667 948.833333333 667 1012.5 667 c 128
 1120.56106757 667 1220 629.312365513 1220 530 c 0
 1220 458.84315413 1165.13106668 417 1092 417 c 256
 1018.48503542 417 964 460.918800907 964 532.59375 c 128
 964 566.989583333 975 593.125 997 611 c 1
 949 611 908.166666667 596.333333333 874.5 567 c 128
 840.833333333 537.666666667 824 503.833333333 824 465.5 c 128
 824 399.740453942 861.913447588 335.972972973 922.791818846 335.972972973 c 0
 923.525200877 335.972972973 924.261261261 335.981981982 925 336 c 2
 901 360 l 2
 895.666666667 365.333333333 893 373.166666667 893 383.5 c 128
 893 403.133668139 908.747242901 422 928 422 c 0
 954 422 976.333333333 400.666666667 995 358 c 256
 1013.66666667 315.333333333 1023 262.666666667 1023 200 c 128
 1023 87.9209578054 966.79788353 -11 860.5 -11 c 128
 773.025218853 -11 703 30.4691301692 703 114 c 2
 703 257 l 2
 703 308.878597068 680.405160067 376 633.5 376 c 128
 587.298202474 376 559 318.744660836 559 269 c 2
 559 0 l 1
 429 0 l 1
 429 235 l 2
 429 315.694795645 352.778683608 376 270 376 c 0
 148.425321726 376 56 307.896882221 56 190 c 0
 56 122.306897689 82.768285531 58.0229580479 131 41 c 1
 112.333333333 62.3333333333 103 91.3333333333 103 128 c 128
 103 204.930202843 162.711589414 255 242 255 c 256
 322.705209912 255 381 203.577117033 381 124.5 c 128
 381 46.0957282373 311.502014168 -11 232 -11 c 0
 104.759974635 -11 21 66.263103087 21 193.5 c 128
999 535.5 m 128
 999 503.878569227 1013.78548808 467 1043 467 c 128
 1072.35410057 467 1090 503.754347352 1090 535.5 c 128
 1090 567.275941088 1072.37360739 604 1043 604 c 128
 1013.80198252 604 999 567.090184055 999 535.5 c 128
138 121 m 128
 138 85.0353649866 158.904147926 44 193 44 c 128
 227.434958557 44 251 82.2248881257 251 119 c 128
 251 155.774457429 227.910331327 195 193 195 c 128
 158.837435499 195 138 157.149484357 138 121 c 128
EndSplineSet
Ligature2: "'abvs' Above Base Substitutions in Tamil lookup 2 subtable" tml_Sa tml_MatraIi
EndChar

StartChar: tml_Ha_tml_MatraIi
Encoding: 305 -1 121
Width: 1230
GlyphClass: 2
Flags: HW
LayerCount: 2
Fore
SplineSet
20 -164 m 0
 20 -105.002173297 77.2041206522 -63 138 -63 c 2
 906 -63 l 2
 952 -63 991.333333333 -40.3333333333 1024 5 c 256
 1056.66666667 50.3333333333 1073 104.333333333 1073 167 c 128
 1073 229.666666667 1065.16666667 279.166666667 1049.5 315.5 c 128
 1033.83333333 351.833333333 1013 370 987 370 c 0
 951.09475372 370 926 331.415841054 926 294 c 2
 926 0 l 1
 796 0 l 1
 796 295 l 2
 796 331.795445555 772.460380858 370 738 370 c 128
 703.925851113 370 684 329.971506641 684 294 c 2
 684 0 l 1
 343 0 l 1
 343 30 l 1
 392.211636818 57.0664002498 430 117.262451378 430 191 c 0
 430 301.109443902 352.844265985 370 242 370 c 256
 127.566907558 370 55 292.294012789 55 177 c 0
 55 116.98911954 83.1045758501 68.4486607419 121 44 c 1
 103.666666667 61.3333333333 95 88.1666666667 95 124.5 c 128
 95 200.072419996 151.516023725 248 229 248 c 256
 307.327061578 248 363 199.869162168 363 123 c 128
 363 40.2458627349 291.902779318 0 204 0 c 128
 154.666666667 0 111.666666667 17.5 75 52.5 c 128
 38.3333333333 87.5 20 130 20 180 c 0
 20 331.662141227 134.371806329 420 290 420 c 256
 442.715642628 420 560 337.301128403 560 190 c 0
 560 119.422669605 537.330977596 59.5760502373 497 30 c 1
 649 30 l 1
 649 292 l 2
 649 356.560408736 696.877973349 400 761 400 c 128
 821.520059193 400 870.614562567 374.358960039 886 331 c 1
 898.886006423 369.658019269 944.160170621 395.116017062 993 400 c 1
 980.333333333 422 974 450.333333333 974 485 c 0
 974 588.415366281 1063.86233158 670 1168 670 c 0
 1304 670 1372 625 1372 535 c 0
 1372 463.678184736 1320.07411492 421 1247.5 421 c 128
 1175.07213426 421 1123 463.63118117 1123 534.714285714 c 128
 1123 569.190476191 1133 594.285714286 1153 610 c 1
 1077.57803246 610 1009 557.630634784 1009 484 c 128
 1009 448.666666667 1014.66666667 420.666666667 1026 400 c 1
 1143.65939761 400 1203 295.898100841 1203 172 c 0
 1203 -20.3371164113 1102.78667521 -98 906 -98 c 2
 139 -98 l 2
 103.468066245 -98 55 -112.654912188 55 -144 c 1
 88 -135 l 1
 111.377880785 -135 130 -156.02594179 130 -179.5 c 128
 130 -205.328523453 106.341378558 -220 79 -220 c 128
 48.6720136566 -220 20 -194.405226449 20 -164 c 0
1158 537 m 128
 1158 506.713880997 1170.97279549 471 1198.5 471 c 128
 1226.24724757 471 1242 505.475437612 1242 536 c 128
 1242 566.20573917 1226.10287301 605 1198.5 605 c 128
 1171.06928182 605 1158 567.073244495 1158 537 c 128
130 120 m 128
 130 86.2325946613 147.976583915 46 180 46 c 128
 211.417230901 46 233 86.7738335383 233 120 c 128
 233 153.683458291 211.617664704 188 180 188 c 128
 147.822759801 188 130 154.181051093 130 120 c 128
EndSplineSet
Ligature2: "'abvs' Above Base Substitutions in Tamil lookup 2 subtable" tml_Ha tml_MatraIi
EndChar

StartChar: tml_Ka_tml_MatraU
Encoding: 306 -1 122
Width: 803
GlyphClass: 2
Flags: HW
LayerCount: 2
Fore
SplineSet
23 96 m 0
 23 234.884467983 95.908119965 347.984412805 194 392 c 1
 209 364 l 1
 121.183633858 324.546270284 58 222.066260474 58 97 c 0
 58 19 87.3333333333 -47.5 146 -102.5 c 128
 204.666666667 -157.5 277.5 -185 364.5 -185 c 128
 523.349008255 -185 659 -104.18463579 659 48 c 0
 659 123.224888476 646.964166709 185 582 185 c 2
 553 185 l 1
 553 137 l 2
 553 44.3333333333 470.666666667 -2 306 -2 c 0
 225.485879098 -2 153 57.7257339127 153 137 c 0
 153 190.809594756 197.264596771 220 253 220 c 2
 278 220 l 1
 278 400 l 1
 661 400 l 1
 661 370 l 1
 553 370 l 1
 553 220 l 1
 581 220 l 2
 696.726515745 220 789 158.219021798 789 47 c 0
 789 -142.531639164 612.699679036 -240 413.5 -240 c 128
 302.5 -240 209.666666667 -207.166666667 135 -141.5 c 128
 60.3333333333 -75.8333333333 23 3.33333333333 23 96 c 0
313 220 m 1
 423 220 l 1
 423 370 l 1
 313 370 l 1
 313 220 l 1
188 137 m 0
 188 72.613217556 238.588273032 33 304 33 c 128
 367.065993447 33 423 76.138154605 423 137 c 2
 423 185 l 1
 255 185 l 2
 220.015853032 185 188 169.796854891 188 137 c 0
EndSplineSet
Ligature2: "'blws' Below Base Substitutions in Tamil lookup 3 subtable" tml_Ka tml_MatraU
EndChar

StartChar: tml_Nga_tml_MatraU
Encoding: 307 -1 123
Width: 790
GlyphClass: 2
Flags: HW
LayerCount: 2
Fore
SplineSet
45 0 m 1
 45 400 l 1
 509 400 l 1
 509 370 l 1
 348 370 l 1
 348 257 l 1
 376 275.666666667 408.666666667 285 446 285 c 128
 523.803997391 285 574 226.893045801 574 147 c 0
 574 89.8005415927 533.7890627 47.2851563291 490 30 c 1
 615 30 l 1
 615 400 l 1
 745 400 l 1
 745 -231 l 1
 615 -231 l 1
 615 0 l 1
 218 0 l 1
 218 30 l 1
 384 30 l 1
 419.614076625 49.0789696205 444 93.3034556964 444 147 c 256
 444 189.753618046 422.153715002 240 383 240 c 0
 362.522839805 240 348 218.466580592 348 197 c 2
 348 110 l 1
 218 110 l 1
 218 370 l 1
 80 370 l 1
 80 0 l 1
 45 0 l 1
EndSplineSet
Ligature2: "'blws' Below Base Substitutions in Tamil lookup 3 subtable" tml_Nga tml_MatraU
EndChar

StartChar: tml_Ca_tml_MatraU
Encoding: 308 -1 124
Width: 700
GlyphClass: 2
Flags: HW
LayerCount: 2
Fore
SplineSet
14 137 m 0
 14 190.809594756 58.2645967714 220 114 220 c 2
 129 220 l 1
 129 400 l 1
 564 400 l 1
 564 370 l 1
 414 370 l 1
 414 220 l 1
 696 220 l 1
 696 185 l 1
 600 185 l 1
 600 0 l 1
 470 0 l 1
 470 185 l 1
 414 185 l 1
 414 137 l 2
 414 44.3333333333 340.333333333 -2 193 -2 c 0
 95.9594122207 -2 14 44.8960913681 14 137 c 0
164 220 m 1
 284 220 l 1
 284 370 l 1
 164 370 l 1
 164 220 l 1
49 137 m 0
 49 66.112621859 117.797330998 33 194 33 c 0
 251.373801746 33 284 77.9602482208 284 137 c 2
 284 185 l 1
 117 185 l 2
 81.2594025053 185 49 170.207920267 49 137 c 0
EndSplineSet
Ligature2: "'blws' Below Base Substitutions in Tamil lookup 3 subtable" tml_Ca tml_MatraU
EndChar

StartChar: tml_Nya_tml_MatraU
Encoding: 309 -1 125
Width: 1083
GlyphClass: 2
Flags: HW
LayerCount: 2
Fore
SplineSet
-5 -112 m 0
 -5 -82.6461863561 26.1610517258 -63 57 -63 c 2
 685 -63 l 1
 710.333333333 -27 723 19 723 75 c 0
 723 136.324265415 693.198936397 209 637 209 c 0
 613.615589912 209 591 193.626237881 591 171 c 2
 591 0 l 1
 461 0 l 1
 461 370 l 1
 273 370 l 2
 216.333333333 370 165.666666667 351.333333333 121 314 c 0
 77 276 55 233 55 185 c 0
 55 123.757597597 77.9459055346 71.5470866016 117 50 c 1
 102.333333333 66 95 87.6666666667 95 115 c 0
 95 204.487705021 155.2271128 263 245 263 c 256
 330.887363399 263 395 213.619417519 395 130 c 256
 395 39.2627867785 304.679800124 -3 207 -3 c 128
 93.0705044758 -3 20 71.4425866358 20 186 c 128
 20 244 45.1666666667 294.166666667 95.5 336.5 c 128
 145.833333333 378.833333333 206.666666667 400 278 400 c 2
 687 400 l 1
 687 370 l 1
 591 370 l 1
 591 228 l 1
 605.666666667 238.666666667 630.666666667 244 666 244 c 0
 773.409295454 244 853 180.523576785 853 76 c 128
 853 26 841.666666667 -20.3333333333 819 -63 c 1
 908 -63 l 1
 908 400 l 1
 1038 400 l 1
 1038 -98 l 1
 793 -98 l 1
 730.541502114 -211.296810118 527.205101371 -267 343 -267 c 128
 239.666666667 -267 155.833333333 -251.833333333 91.5 -221.5 c 128
 27.1666666667 -191.166666667 -5 -154.666666667 -5 -112 c 0
130 117.5 m 128
 130 75.0180085375 155.437679762 32 196 32 c 128
 236.563441422 32 265 76.0165938249 265 118.5 c 128
 265 161.127416763 236.624020676 203 196 203 c 128
 155.450238418 203 130 159.955580028 130 117.5 c 128
30 -117 m 0
 30 -142.333333333 62 -167.833333333 126 -193.5 c 128
 190 -219.166666667 257.833333333 -232 329.5 -232 c 128
 469.947001448 -232 609.214891177 -181.677663235 665 -98 c 1
 57 -98 l 2
 44.3335673887 -98 30 -105.053291267 30 -117 c 0
EndSplineSet
Ligature2: "'blws' Below Base Substitutions in Tamil lookup 3 subtable" tml_Nya tml_MatraU
EndChar

StartChar: tml_Tta_tml_MatraU
Encoding: 310 -1 126
Width: 752
GlyphClass: 2
Flags: HW
LayerCount: 2
Fore
SplineSet
36 216 m 128
 36 349.333333333 66.6666666667 457.5 128 540.5 c 128
 189.333333333 623.5 270.833333333 665 372.5 665 c 128
 474.166666667 665 555.666666667 626.166666667 617 548.5 c 128
 678.333333333 470.833333333 709 367.666666667 709 239 c 2
 709 0 l 1
 674 0 l 1
 674 239 l 2
 674 427.006942934 557.669919916 557 372 557 c 256
 180.273999527 557 71 409.363738679 71 212 c 0
 71 87.3333333333 94 -9.5 140 -78.5 c 128
 186 -147.5 250.333333333 -182 333 -182 c 0
 451.42037619 -182 510 -73.9462431802 510 52 c 0
 510 94.6666666667 504 128.666666667 492 154 c 256
 480 179.333333333 464.333333333 192 445 192 c 0
 418.566912082 192 402.735296793 154.517662043 398 128 c 1
 398 0 l 1
 268 0 l 1
 268 400 l 1
 398 400 l 1
 398 200 l 1
 416.488888889 221.333333333 440.155555555 232 469 232 c 0
 574.639117358 232 640 157.733786699 640 51 c 0
 640 -124.551594552 516.82051903 -217 337.5 -217 c 128
 124.828958441 -217 36 -13.6520020855 36 216 c 128
EndSplineSet
Ligature2: "'blws' Below Base Substitutions in Tamil lookup 3 subtable" tml_Tta tml_MatraU
EndChar

StartChar: tml_Nna_tml_MatraU
Encoding: 311 -1 127
Width: 1435
GlyphClass: 2
Flags: HW
LayerCount: 2
Fore
SplineSet
4 -112 m 0
 4 -78.554167979 53.5074568374 -63 91 -63 c 2
 973 -63 l 1
 1019.66666667 -5.35294117647 1043 69.9803921569 1043 163 c 0
 1043 255.158612271 1000.18258015 373 917 373 c 0
 899.606060606 373 883.939393939 365.333333333 870 350 c 1
 923.704715125 300.679343253 972 227.965931927 972 135.5 c 128
 972 59.5237201462 909.552282156 -6 833.5 -6 c 128
 758.105933488 -6 695 58.7135658323 695 134 c 0
 695 208.451612903 716.333333333 270.451612903 759 320 c 1
 726.493333333 355.333333333 693.7 373 660.62 373 c 128
 627.54 373 599.333333333 363.666666667 576 345 c 1
 626.423680488 301.779702439 664 228.151893188 664 139 c 128
 664 59.8759706139 601.262732534 -6 523 -6 c 256
 445.765965555 -6 383 59.5267701909 383 137 c 0
 383 212.939393939 406 274.606060606 452 322 c 1
 413.92 356 361.066666667 373 293.44 373 c 128
 225.813333333 373 169.333333333 353.666666667 124 315 c 256
 78.6666666667 276.333333333 56 229.666666667 56 175 c 0
 56 114.192937535 80.6828927345 54.370586449 124 39 c 1
 106 59.7692307692 97 87.9615384615 97 123.576923077 c 128
 97 198.69078198 155.306086972 249 233 249 c 256
 313.749861691 249 369 199.90977092 369 120 c 256
 369 32.2013035015 297.741020436 -11 204 -11 c 128
 97.2118607773 -11 21 64.9072168711 21 173 c 0
 21 326.459908148 148.488960079 408 308 408 c 0
 409.179487179 408 481.512820513 390.333333333 525 355 c 1
 568.487179487 390.333333333 613.820512821 408 661 408 c 0
 729.909090909 408 784.575757576 392.666666667 825 362 c 1
 868.212121212 392.666666667 905.545454545 408 937 408 c 0
 1081.14971395 408 1173 309.295559142 1173 164 c 0
 1173 61.1282051282 1155 -14.5384615385 1119 -63 c 1
 1260 -63 l 1
 1260 400 l 1
 1390 400 l 1
 1390 -98 l 1
 1102 -98 l 1
 1055.33333333 -149.333333333 974.833333333 -189.166666667 860.5 -217.5 c 128
 746.166666667 -245.833333333 607.666666667 -260 445 -260 c 0
 335.666666667 -260 234.833333333 -244.5 142.5 -213.5 c 128
 50.1666666667 -182.5 4 -148.666666667 4 -112 c 0
730 137 m 0
 730 95.9515815339 747.133549419 44 784 44 c 128
 822.712332247 44 842 96.0980084887 842 140.5 c 128
 842 203.696307121 815.910534524 258.914089243 783 293 c 1
 747.666666667 257.666666667 730 205.666666667 730 137 c 0
418 137 m 0
 418 95.0488210897 437.932877398 44 476 44 c 256
 514.787978937 44 534 95.6692550392 534 139 c 0
 534 196.931034483 513.666666667 246.931034483 473 289 c 1
 436.333333333 250.923076923 418 200.256410257 418 137 c 0
132 116 m 128
 132 78.3687501592 149.563093733 29 184 29 c 128
 219.055408174 29 239 77.7429732389 239 116.5 c 128
 239 155.11118454 219.026628201 199 184 199 c 128
 149.42813952 199 132 153.933249363 132 116 c 128
39 -112 m 0
 39 -136.666666667 84.6666666667 -161.666666667 176 -187 c 256
 267.333333333 -212.333333333 362.833333333 -225 462.5 -225 c 128
 652.126859565 -225 837.796702023 -183.104170885 938 -98 c 1
 93 -98 l 2
 57 -98 39 -102.666666667 39 -112 c 0
EndSplineSet
Ligature2: "'blws' Below Base Substitutions in Tamil lookup 3 subtable" tml_Nna tml_MatraU
EndChar

StartChar: tml_Ta_tml_MatraU
Encoding: 312 -1 128
Width: 867
GlyphClass: 2
Flags: HW
LayerCount: 2
Fore
SplineSet
28 -121 m 0
 28 -147 45.8333333333 -170.833333333 81.5 -192.5 c 128
 117.166666667 -214.166666667 160.333333333 -225 211 -225 c 128
 261.666666667 -225 310 -213.5 356 -190.5 c 128
 402 -167.5 434.333333333 -136.666666667 453 -98 c 1
 54 -98 l 2
 39.9980567145 -98 28 -107.247533552 28 -121 c 0
-7 -118 m 0
 -7 -85.6155090797 24.5933669916 -63 58 -63 c 2
 466 -63 l 1
 480.666666667 -39 488 3.33333333333 488 64 c 0
 488 110.997688584 472.797091125 185 433 185 c 2
 413 185 l 1
 413 137 l 2
 413 44.3333333333 336 -2 182 -2 c 0
 96.3920149512 -2 13 54.4711343325 13 137 c 0
 13 192.979501297 63.703002761 220 123 220 c 2
 138 220 l 1
 138 400 l 1
 523 400 l 1
 523 370 l 1
 413 370 l 1
 413 220 l 1
 475 220 l 2
 558.522314705 220 618 144.590381107 618 58 c 128
 618 11.3333333333 610 -29 594 -63 c 1
 692 -63 l 1
 692 400 l 1
 822 400 l 1
 822 -98 l 1
 582 -98 l 1
 518.265412226 -201.060184486 369.244863242 -260 200 -260 c 0
 103.112330498 -260 -7 -208.108938187 -7 -118 c 0
173 220 m 1
 283 220 l 1
 283 370 l 1
 173 370 l 1
 173 220 l 1
48 137 m 0
 48 68.0791629859 110.246466654 33 183 33 c 0
 238.903417482 33 283 80.5595054236 283 137 c 2
 283 185 l 1
 116 185 l 2
 83.9411992353 185 48 167.09535186 48 137 c 0
EndSplineSet
Ligature2: "'blws' Below Base Substitutions in Tamil lookup 3 subtable" tml_Ta tml_MatraU
EndChar

StartChar: tml_Na_tml_MatraU
Encoding: 313 -1 129
Width: 841
GlyphClass: 2
Flags: HW
LayerCount: 2
Fore
SplineSet
2 -114 m 0
 2 -83.8217671948 32.5061434198 -63 64 -63 c 2
 421 -63 l 1
 451 -11 466 44.6666666667 466 104 c 0
 466 155.931012131 439.919733132 218 392 218 c 0
 368.724687087 218 349 200.005360891 349 177 c 2
 349 0 l 1
 219 0 l 1
 219 370 l 1
 80 370 l 1
 80 0 l 1
 45 0 l 1
 45 400 l 1
 441 400 l 1
 441 370 l 1
 349 370 l 1
 349 228 l 1
 369 248 399.833333333 258 441.5 258 c 128
 525.389373251 258 596 185.616040018 596 101 c 0
 596 31.6666666667 584 -23 560 -63 c 1
 666 -63 l 1
 666 400 l 1
 796 400 l 1
 796 -98 l 1
 549 -98 l 1
 519.666666667 -148.666666667 475.166666667 -188.666666667 415.5 -218 c 128
 355.833333333 -247.333333333 292.833333333 -262 226.5 -262 c 128
 117.811917119 -262 2 -212.164402653 2 -114 c 0
37 -117 m 0
 37 -185.759921437 120.579182804 -227 193.5 -227 c 128
 291.521130454 -227 361.681985466 -165.40231063 401 -98 c 1
 65 -98 l 2
 51.5916516376 -98 37 -104.642480942 37 -117 c 0
EndSplineSet
Ligature2: "'blws' Below Base Substitutions in Tamil lookup 3 subtable" tml_Na tml_MatraU
EndChar

StartChar: tml_Nnna_tml_MatraU
Encoding: 314 -1 130
Width: 1136
GlyphClass: 2
Flags: HW
LayerCount: 2
Fore
SplineSet
1 -115 m 0
 1 -82.646218454 37.9958222751 -63 72 -63 c 2
 723 -63 l 1
 755 -14.3043478261 771 57.3623188406 771 152 c 0
 771 259.644970444 735.341433932 377 640 377 c 0
 615.904761905 377 595.571428571 367.333333333 579 348 c 1
 632.648867919 302.88617925 671 230.01614882 671 135.5 c 128
 671 49.8851289057 617.961947456 -10 533 -10 c 256
 450.084606245 -10 395 49.1798409711 395 131.5 c 0
 395 213.452380953 419.333333333 275.285714286 468 317 c 1
 426.620689655 357 369.775862069 377 297.465517241 377 c 128
 162.202362074 377 56 302.978146772 56 172 c 0
 56 106.350765247 90.3409967663 49.6644483045 141 35 c 1
 117.666666667 51.0416666667 106 79.5520833333 106 120.53125 c 128
 106 202.231364851 159.843307988 254 241.5 254 c 128
 322.384378834 254 377 201.440688818 377 121 c 128
 377 36.4915515688 309.27193757 -10 222 -10 c 0
 106.108808489 -10 21 56.6186045344 21 170 c 0
 21 324.825235699 142.085354412 412 302 412 c 0
 420.5 412 500.166666667 395.666666667 541 363 c 1
 573.666666667 395.666666667 615 412 665 412 c 0
 813.535658634 412 901 301.240978546 901 149 c 128
 901 69 883.333333333 -1.66666666667 848 -63 c 1
 961 -63 l 1
 961 400 l 1
 1091 400 l 1
 1091 -98 l 1
 819 -98 l 1
 735.14739829 -212.745665498 537.354544457 -264 328 -264 c 0
 238 -264 161 -249.5 97 -220.5 c 128
 33 -191.5 1 -156.333333333 1 -115 c 0
430 142 m 128
 430 97.0685864654 445.229387253 40 484 40 c 128
 521.302211094 40 541 95.3790403901 541 137 c 0
 541 206.571428571 521.666666667 257.238095238 483 289 c 1
 450.690947022 260.56803338 430 202.427637422 430 142 c 128
141 121 m 128
 141 84.5188607769 158.229292726 40 192 40 c 128
 226.679155139 40 247 82.6320287701 247 120 c 128
 247 157.454525127 226.295237811 199 192 199 c 128
 158.141479009 199 141 157.689712704 141 121 c 128
36 -117 m 0
 36 -147.666666667 64.6666666667 -174 122 -196 c 256
 179.333333333 -218 249.5 -229 332.5 -229 c 128
 484.089941079 -229 629.523256588 -185.652033704 687 -98 c 1
 75 -98 l 2
 59.4547339775 -98 36 -103.543684926 36 -117 c 0
EndSplineSet
Ligature2: "'blws' Below Base Substitutions in Tamil lookup 3 subtable" tml_Nnna tml_MatraU
EndChar

StartChar: tml_Pa_tml_MatraU
Encoding: 315 -1 131
Width: 692
GlyphClass: 2
Flags: HW
LayerCount: 2
Fore
SplineSet
45 0 m 1
 45 400 l 1
 175 400 l 1
 175 30 l 1
 517 30 l 1
 517 400 l 1
 647 400 l 1
 647 -230 l 1
 517 -230 l 1
 517 0 l 1
 45 0 l 1
EndSplineSet
Ligature2: "'blws' Below Base Substitutions in Tamil lookup 3 subtable" tml_Pa tml_MatraU
EndChar

StartChar: tml_Ma_tml_MatraU
Encoding: 316 -1 132
Width: 920
GlyphClass: 2
Flags: HW
LayerCount: 2
Fore
SplineSet
22 95 m 0
 22 237.21929938 109.686968381 345.687261688 213 392 c 1
 223 364 l 1
 131.971012089 322.078755567 57 223.828660016 57 97 c 0
 57 12.3333333333 86.5 -60 145.5 -120 c 128
 204.5 -180 276 -210 360 -210 c 0
 418 -210 467.666666667 -193.833333333 509 -161.5 c 128
 550.333333333 -129.166666667 571 -90.3333333333 571 -45 c 2
 571 0 l 1
 297 0 l 1
 297 400 l 1
 427 400 l 1
 427 30 l 1
 571 30 l 1
 571 272 l 2
 571 353.014935236 651.614169819 406 736.5 406 c 128
 839.798177386 406 895 297.635067225 895 189 c 128
 895 127.666666667 884 80.8333333333 862 48.5 c 128
 840 16.1666666667 810.666666667 0 774 0 c 2
 701 0 l 1
 701 -43 l 2
 701 -99 667.833333333 -146.666666667 601.5 -186 c 128
 535.166666667 -225.333333333 455.166666667 -245 361.5 -245 c 128
 267.833333333 -245 187.833333333 -211.833333333 121.5 -145.5 c 128
 55.1666666667 -79.1666666667 22 1 22 95 c 0
701 30 m 1
 764 30 l 2
 834.649919682 30 860 106.434556555 860 186 c 128
 860 267.351286284 829.689290525 356 756 356 c 0
 720.712289442 356 701 313.082029521 701 275 c 2
 701 30 l 1
EndSplineSet
Ligature2: "'blws' Below Base Substitutions in Tamil lookup 3 subtable" tml_Ma tml_MatraU
EndChar

StartChar: tml_Ya_tml_MatraU
Encoding: 317 -1 133
Width: 710
GlyphClass: 2
Flags: HW
LayerCount: 2
Fore
SplineSet
40 110 m 2
 40 400 l 1
 170 400 l 1
 170 113 l 2
 170 88.6012582832 176.449915767 51 197 51 c 128
 217.624313562 51 227 86.973719154 227 111 c 2
 227 400 l 1
 357 400 l 1
 357 30 l 1
 535 30 l 1
 535 400 l 1
 665 400 l 1
 665 -230 l 1
 535 -230 l 1
 535 0 l 1
 245 0 l 1
 245 66 l 1
 232.469412893 23.3960038366 195.244139219 -10 141.5 -10 c 128
 115.833333333 -10 92.3333333333 1.66666666667 71 25 c 0
 50.3333333333 48.3333333333 40 76.6666666667 40 110 c 2
EndSplineSet
Ligature2: "'blws' Below Base Substitutions in Tamil lookup 3 subtable" tml_Ya tml_MatraU
EndChar

StartChar: tml_Ra_tml_MatraU
Encoding: 318 -1 134
Width: 827
GlyphClass: 2
Flags: HW
LayerCount: 2
Fore
SplineSet
24 100 m 0
 24 236.321453757 96.3525497407 346.281711567 192 391 c 1
 201 368 l 1
 120.569383406 321.691463173 59 223.80344542 59 102 c 0
 59 -103.051223478 190.07301407 -242 394 -242 c 0
 567.28983665 -242 681 -120.80391395 681 53 c 128
 681 140.333333333 660 184 618 184 c 0
 597.297297338 184 573 173.88295632 573 155 c 2
 573 0 l 1
 443 0 l 1
 443 370 l 1
 301 370 l 1
 301 0 l 1
 266 0 l 1
 266 400 l 1
 671 400 l 1
 671 370 l 1
 573 370 l 1
 573 205 l 1
 590.333333333 221 615.666666667 229 649 229 c 0
 749.328203138 229 811 158.423975894 811 57 c 0
 811 -44.3333333333 773.333333333 -125.333333333 698 -186 c 256
 622.666666667 -246.666666667 525.5 -277 406.5 -277 c 128
 287.5 -277 194 -242.666666667 126 -174 c 256
 58 -105.333333333 24 -14 24 100 c 0
EndSplineSet
Ligature2: "'blws' Below Base Substitutions in Tamil lookup 3 subtable" tml_Ra tml_MatraU
EndChar

StartChar: tml_Rra_tml_MatraU
Encoding: 319 -1 135
Width: 855
GlyphClass: 2
Flags: HW
LayerCount: 2
Fore
SplineSet
-14 -119 m 0
 -14 -86.1599153357 18.8474733254 -63 53 -63 c 2
 461 -63 l 1
 480.333333333 -17.6666666667 490 45.8333333333 490 127.5 c 128
 490 209.166666667 481.333333333 270.333333333 464 311 c 0
 447.333333333 351.666666667 424.666666667 372 396 372 c 0
 361.856850821 372 337 336.412535272 337 301 c 2
 337 0 l 1
 207 0 l 1
 207 300 l 2
 207 338.310213123 178.150395313 372 140.5 372 c 128
 102.850934438 372 75 337.253112582 75 299 c 2
 75 0 l 1
 40 0 l 1
 40 302 l 2
 40 361.789459175 101.794232059 407 163 407 c 128
 226.883520713 407 280.514199109 376.732094637 298 331 c 1
 312.393805499 375.489944268 360.923043573 407 419 407 c 0
 561.248531313 407 620 304.411532857 620 155.5 c 128
 620 74.5 607 1.66666666667 581 -63 c 1
 680 -63 l 1
 680 400 l 1
 810 400 l 1
 810 -98 l 1
 562 -98 l 1
 532.666666667 -148.666666667 487.5 -188.666666667 426.5 -218 c 128
 365.5 -247.333333333 299.666666667 -262 229 -262 c 128
 158.333333333 -262 100.166666667 -248 54.5 -220 c 128
 8.83333333333 -192 -14 -158.333333333 -14 -119 c 0
21 -117 m 0
 21 -188.923334461 125.574456199 -227 204 -227 c 128
 314.511298744 -227 395.524474399 -168.40493004 444 -98 c 1
 55 -98 l 2
 40.5170921496 -98 21 -104.059524208 21 -117 c 0
EndSplineSet
Ligature2: "'blws' Below Base Substitutions in Tamil lookup 3 subtable" tml_Rra tml_MatraU
EndChar

StartChar: tml_La_tml_MatraU
Encoding: 320 -1 136
Width: 995
GlyphClass: 2
Flags: HW
LayerCount: 2
Fore
SplineSet
-11 -118 m 0
 -11 -86.5421081745 16.7295213878 -63 48 -63 c 2
 492 -63 l 1
 498 -51.6666666667 503.666666667 -29.6666666667 509 3 c 1
 450.8700347 9.97559583599 392 52.2068665182 392 114 c 2
 392 247 l 2
 392 322.041492921 337.154943748 369 261 369 c 0
 203.666666667 369 154.833333333 350.666666667 114.5 314 c 128
 74.1666666667 277.333333333 54 233.333333333 54 182 c 0
 54 120.373577022 79.6878558436 68.2643579658 118 44 c 1
 100.666666667 61.3333333333 92 88.1666666667 92 124.5 c 128
 92 198.639235977 153.152226391 258 228.5 258 c 128
 306.122241178 258 360 202.068623642 360 124.5 c 128
 360 39.7287301191 281.82105811 1 193 1 c 128
 95.0106939799 1 19 82.1437980068 19 180 c 0
 19 240.666666667 43 292.5 91 335.5 c 128
 139 378.5 199.333333333 400 272 400 c 128
 391.470047017 400 522 354.895358532 522 246 c 2
 522 117 l 2
 522 75.4720725225 549.04717356 36 589 36 c 0
 658.053010344 36 682 124.918183376 682 204 c 0
 682 250.666666667 653.333333333 302.666666667 596 360 c 0
 586.666666667 368 582 377.333333333 582 388 c 128
 582 407.102184639 594.070771651 422 612 422 c 0
 683.415580767 422 717 292.197316453 717 211 c 128
 717 115.804277664 680.226020965 21.2554210344 607 6 c 1
 605 -20.6666666667 600 -43.6666666667 592 -63 c 1
 820 -63 l 1
 820 400 l 1
 950 400 l 1
 950 -98 l 1
 575 -98 l 1
 519.712514268 -201.832595155 377.993525618 -264 217 -264 c 0
 154.333333333 -264 100.666666667 -249.666666667 56 -221 c 256
 11.3333333333 -192.333333333 -11 -158 -11 -118 c 0
24 -117 m 0
 24 -192.214655049 129.860854421 -229 214.5 -229 c 128
 327.567276683 -229 424.792928574 -173.388258923 465 -98 c 1
 50 -98 l 2
 37.2614481079 -98 24 -105.023400301 24 -117 c 0
127 121.5 m 128
 127 85.6921390641 144.160631393 36 177 36 c 128
 210.117436991 36 230 82.304608403 230 118.5 c 128
 230 154.999744186 210.264104004 198 177 198 c 128
 143.824319536 198 127 158.051814184 127 121.5 c 128
EndSplineSet
Ligature2: "'blws' Below Base Substitutions in Tamil lookup 3 subtable" tml_La tml_MatraU
EndChar

StartChar: tml_Lla_tml_MatraU
Encoding: 321 -1 137
Width: 1239
GlyphClass: 2
Flags: HW
LayerCount: 2
Fore
SplineSet
25 129 m 0
 25 244.057070779 84.3193901109 334.9874511 151 395 c 1
 170 373 l 1
 109.979461597 317.509313552 60 233.839733781 60 128 c 0
 60 21.3333333333 105.333333333 -64.3333333333 196 -129 c 0
 287.333333333 -193 411 -225 567 -225 c 128
 723 -225 849.5 -197.166666667 946.5 -141.5 c 128
 1043.5 -85.8333333333 1092 -12 1092 80 c 0
 1092 132.827233502 1070.07458771 202 1023 202 c 0
 1000.84590944 202 984 180.658341243 984 158 c 2
 984 0 l 1
 854 0 l 1
 854 367 l 1
 722 367 l 1
 722 0 l 1
 592 0 l 1
 592 218 l 1
 565.102878233 293.087798266 497.140174391 367 403 367 c 0
 345 367 295.666666667 347.833333333 255 309.5 c 128
 214.333333333 271.166666667 194 224.666666667 194 170 c 0
 194 108.59338719 227.16001561 56.7165660765 273 41 c 1
 255 60.3846153846 246 87.3846153846 246 122 c 0
 246 208.666666667 291.333333333 252 382 252 c 0
 462.450870919 252 519 201.960801842 519 122.5 c 128
 519 35.9643525536 436.835953275 -6 345 -6 c 128
 245.063016252 -6 159 69.6820894067 159 168 c 0
 159 232.666666667 182.833333333 287.833333333 230.5 333.5 c 128
 278.166666667 379.166666667 335.666666667 402 403 402 c 0
 493.606060606 402 564.272727273 371 615 309 c 1
 615 400 l 1
 1072 400 l 1
 1072 367 l 1
 984 367 l 1
 984 230 l 1
 1008 241.333333333 1032.33333333 247 1057 247 c 0
 1102.33333333 247 1141.33333333 230.666666667 1174 198 c 0
 1206 164.666666667 1222 124.666666667 1222 78 c 0
 1222 -24 1162.16666667 -105.833333333 1042.5 -167.5 c 128
 922.833333333 -229.166666667 763.333333333 -260 564 -260 c 0
 400.666666667 -260 270 -224.666666667 172 -154 c 256
 74 -83.3333333333 25 11 25 129 c 0
281 115.5 m 128
 281 77.8706784149 298.760574151 29 333.5 29 c 128
 368.153780896 29 389 78.6875770502 389 116 c 128
 389 154.003403453 368.468504114 195 333.5 195 c 128
 298.520558479 195 281 153.67676104 281 115.5 c 128
EndSplineSet
Ligature2: "'blws' Below Base Substitutions in Tamil lookup 3 subtable" tml_Lla tml_MatraU
EndChar

StartChar: tml_Llla_tml_MatraU
Encoding: 322 -1 138
Width: 882
GlyphClass: 2
Flags: HW
LayerCount: 2
Fore
SplineSet
24 95 m 0
 24 229.66488834 85.3030135027 342.43784782 174 390 c 1
 185 364 l 1
 106.955062375 322.286326442 59 217.061638915 59 96 c 0
 59 0 97.8333333333 -81.8333333333 175.5 -149.5 c 256
 253.166666667 -217.166666667 346.666666667 -251 456 -251 c 0
 567.231882297 -251 717 -204.868179264 717 -106 c 0
 717 -89.9759246133 705.519430495 -74 690 -74 c 256
 675.976121474 -74 664 -85.2696120205 664 -99 c 2
 664 -159 l 1
 534 -159 l 1
 534 0 l 1
 260 0 l 1
 260 400 l 1
 390 400 l 1
 390 30 l 1
 534 30 l 1
 534 272 l 2
 534 353.281237258 604.178640342 411 688 411 c 256
 732.666666667 411 772.166666667 389.666666667 806.5 347 c 256
 840.833333333 304.333333333 858 253.333333333 858 194 c 256
 858 97.0992470936 823.121521236 0 736 0 c 2
 664 0 l 1
 664 -50 l 1
 686.666666667 -36 712.166666667 -29 740.5 -29 c 256
 790.083593176 -29 847 -58.8171751151 847 -106 c 0
 847 -156 808.666666667 -198.333333333 732 -233 c 0
 656 -268.333333333 561.166666667 -286 447.5 -286 c 256
 333.833333333 -286 234.833333333 -248.833333333 150.5 -174.5 c 256
 66.1666666667 -100.166666667 24 -10.3333333333 24 95 c 0
664 30 m 1
 737 30 l 2
 796.764869279 30 823 127.322309718 823 195.5 c 256
 823 269.596650746 787.611140959 361 720 361 c 0
 683.022954326 361 664 311.435641276 664 271 c 2
 664 30 l 1
EndSplineSet
Ligature2: "'blws' Below Base Substitutions in Tamil lookup 3 subtable" tml_Llla tml_MatraU
EndChar

StartChar: tml_Va_tml_MatraU
Encoding: 323 -1 139
Width: 819
GlyphClass: 2
Flags: HW
LayerCount: 2
Fore
SplineSet
21 182 m 0
 21 333.210740574 135.175145305 421 290.5 421 c 128
 440.974533953 421 560 342.379027648 560 198 c 0
 560 124.602765333 537.225257865 59.9663120336 495 30 c 1
 644 30 l 1
 644 400 l 1
 774 400 l 1
 774 -155 l 1
 644 -155 l 1
 644 0 l 1
 343 0 l 1
 343 27 l 1
 395.269554712 51.8280384883 430 119.441619894 430 196 c 0
 430 296.26046062 343.714965112 376 243 376 c 256
 139.625125488 376 56 286.146271905 56 182 c 0
 56 119.886819157 83.0080895941 69.3279402706 121 44 c 1
 103.666666667 64 95 92.3333333333 95 129 c 128
 95 204.957431262 151.176566674 258 229 258 c 256
 308.710277142 258 363 204.406840244 363 125.5 c 128
 363 39.1690639802 286.167628907 1 194.5 1 c 128
 89.337905253 1 21 75.5181814306 21 182 c 0
130 118.5 m 128
 130 82.4387232785 147.046684896 36 180 36 c 128
 213.117436991 36 233 82.304608403 233 118.5 c 128
 233 154.999744186 213.264104004 198 180 198 c 128
 146.948987416 198 130 154.780255597 130 118.5 c 128
EndSplineSet
Ligature2: "'blws' Below Base Substitutions in Tamil lookup 3 subtable" tml_Va tml_MatraU
EndChar

StartChar: tml_Ka_tml_MatraUu
Encoding: 324 -1 140
Width: 926
GlyphClass: 2
Flags: HW
LayerCount: 2
Fore
SplineSet
13 137 m 0
 13 190.809594756 57.2645967714 220 113 220 c 2
 138 220 l 1
 138 400 l 1
 523 400 l 1
 523 370 l 1
 413 370 l 1
 413 220 l 1
 526 220 l 2
 564.642502455 220 612 201.025890646 612 166 c 1
 635.04 202 672.04 220 723 220 c 0
 792.633438395 220 863 178.479713496 863 111.857142857 c 128
 863 81.0952380952 848.333333333 53.1428571429 819 28 c 1
 923 28 l 1
 923 0 l 1
 666 0 l 1
 666 29 l 1
 699.677863712 36.8581681995 733 69.1285997169 733 107.5 c 128
 733 140.32916067 710.934581861 160 678 160 c 128
 644.526522364 160 612 131.889545041 612 98 c 2
 612 0 l 1
 482 0 l 1
 482 150 l 2
 482 169.144216635 466.1503081 185 447 185 c 2
 413 185 l 1
 413 137 l 2
 413 44.3333333333 331 -2 167 -2 c 0
 85.6864824899 -2 13 57.2267217761 13 137 c 0
173 220 m 1
 283 220 l 1
 283 370 l 1
 173 370 l 1
 173 220 l 1
48 137 m 0
 48 72.6221995203 99.6273654011 33 165 33 c 128
 228.117167617 33 283 76.1200763204 283 137 c 2
 283 185 l 1
 116 185 l 2
 80.2594025053 185 48 170.207920267 48 137 c 0
EndSplineSet
Ligature2: "'blws' Below Base Substitutions in Tamil lookup 3 subtable" tml_Ka tml_MatraUu
EndChar

StartChar: tml_Nga_tml_MatraUu
Encoding: 325 -1 141
Width: 956
GlyphClass: 2
Flags: HW
LayerCount: 2
Fore
SplineSet
20 -123 m 0
 20 -97.6666666667 40.3333333333 -77.3333333333 81 -62 c 256
 121.666666667 -46.6666666667 179.333333333 -39 254 -39 c 128
 328.666666667 -39 413.333333333 -54.3333333333 508 -85 c 1
 508 -116 l 1
 403.333333333 -88 318.833333333 -74 254.5 -74 c 128
 190.166666667 -74 140.833333333 -78.5 106.5 -87.5 c 128
 72.1666666667 -96.5 55 -108.666666667 55 -124 c 0
 55 -146 96.3333333333 -164.833333333 179 -180.5 c 128
 261.666666667 -196.166666667 358.833333333 -204 470.5 -204 c 128
 582.166666667 -204 670.166666667 -189.5 734.5 -160.5 c 128
 798.833333333 -131.5 831 -93 831 -45 c 0
 831 -16.6454896869 808.820929919 12 782 12 c 128
 760.117261512 12 745 -2.34882499063 745 -23 c 2
 745 -120 l 1
 615 -120 l 1
 615 0 l 1
 218 0 l 1
 218 30 l 1
 384 30 l 1
 419.614076625 49.0789696205 444 93.3034556964 444 147 c 256
 444 189.753618046 422.153715002 240 383 240 c 0
 362.522839805 240 348 218.466580592 348 197 c 2
 348 110 l 1
 218 110 l 1
 218 370 l 1
 80 370 l 1
 80 0 l 1
 45 0 l 1
 45 400 l 1
 508 400 l 1
 508 370 l 1
 348 370 l 1
 348 257 l 1
 376 275.666666667 408.666666667 285 446 285 c 128
 523.803997391 285 574 226.893045801 574 147 c 0
 574 89.8005415927 533.7890627 47.2851563291 490 30 c 1
 615 30 l 1
 615 400 l 1
 745 400 l 1
 745 42 l 1
 769.666666667 58.6666666667 800.833333333 67 838.5 67 c 128
 911.165300459 67 961 24.3486418107 961 -47 c 0
 961 -105 917.333333333 -151.666666667 830 -187 c 0
 742 -221.666666667 625.333333333 -239 480 -239 c 0
 173.333333333 -239 20 -200.333333333 20 -123 c 0
EndSplineSet
Ligature2: "'blws' Below Base Substitutions in Tamil lookup 3 subtable" tml_Nga tml_MatraUu
EndChar

StartChar: tml_Ca_tml_MatraUu
Encoding: 326 -1 142
Width: 988
GlyphClass: 2
Flags: HW
LayerCount: 2
Fore
SplineSet
24 116 m 0
 24 240.780289931 84.7845467676 340.909518642 167 387 c 1
 179 364 l 1
 108.700503826 320.062814891 59 228.471683662 59 117 c 0
 59 19.6666666667 97.6666666667 -60.6666666667 175 -124 c 256
 252.333333333 -187.333333333 350.666666667 -219 470 -219 c 128
 589.333333333 -219 682.166666667 -199 748.5 -159 c 128
 814.833333333 -119 848 -63 848 9 c 0
 848 67 831.666666667 96 799 96 c 0
 779.540856791 96 761 82.6521736717 761 64 c 2
 761 0 l 1
 631 0 l 1
 631 185 l 1
 564 185 l 1
 564 137 l 2
 564 44.3333333333 488.333333333 -2 337 -2 c 0
 242.042164636 -2 164 45.6850803391 164 137 c 0
 164 191.673663337 210.823381778 220 268 220 c 2
 279 220 l 1
 279 400 l 1
 715 400 l 1
 715 370 l 1
 564 370 l 1
 564 220 l 1
 870 220 l 1
 870 185 l 1
 761 185 l 1
 761 113 l 1
 771.051282051 131.666666667 801.717948718 141 853 141 c 0
 930.231922805 141 978 86.0383141099 978 8 c 0
 978 -71.3333333333 931.666666667 -134.666666667 839 -182 c 0
 747 -230 624 -254 470 -254 c 0
 346.666666667 -254 241.5 -217.833333333 154.5 -145.5 c 128
 67.5 -73.1666666667 24 14 24 116 c 0
314 220 m 1
 434 220 l 1
 434 370 l 1
 314 370 l 1
 314 220 l 1
199 137 m 0
 199 71.5577871705 261.597127824 33 328.5 33 c 128
 396.549405354 33 434 71.1969477366 434 137 c 2
 434 185 l 1
 267 185 l 2
 231.259402505 185 199 170.207920267 199 137 c 0
EndSplineSet
Ligature2: "'blws' Below Base Substitutions in Tamil lookup 3 subtable" tml_Ca tml_MatraUu
EndChar

StartChar: tml_Nya_tml_MatraUu
Encoding: 327 -1 143
Width: 1279
GlyphClass: 2
Flags: HW
LayerCount: 2
Fore
SplineSet
-6 -112 m 0
 -6 -82.6461863561 25.1610517258 -63 56 -63 c 2
 684 -63 l 1
 709.333333333 -27 722 19 722 75 c 0
 722 136.324265415 692.198936397 209 636 209 c 0
 612.615589912 209 590 193.626237881 590 171 c 2
 590 0 l 1
 460 0 l 1
 460 370 l 1
 272 370 l 2
 215.333333333 370 164.666666667 351.333333333 120 314 c 0
 76 276 54 233 54 185 c 0
 54 123.757597597 76.9459055346 71.5470866016 116 50 c 1
 101.333333333 66 94 87.6666666667 94 115 c 0
 94 204.487705021 154.2271128 263 244 263 c 256
 329.887363399 263 394 213.619417519 394 130 c 256
 394 39.0874895699 309.087800169 -3 211 -3 c 128
 97.181427962 -3 19 71.4288090555 19 186 c 128
 19 244 44.1666666667 294.166666667 94.5 336.5 c 128
 144.833333333 378.833333333 205.666666667 400 277 400 c 2
 686 400 l 1
 686 370 l 1
 590 370 l 1
 590 228 l 1
 604.666666667 238.666666667 629.666666667 244 665 244 c 0
 772.128071339 244 852 180.590053558 852 76.5 c 128
 852 26.8333333333 840 -19.6666666667 816 -63 c 1
 907 -63 l 1
 907 400 l 1
 1276 400 l 1
 1276 370 l 1
 1189 370 l 1
 1189 -98 l 1
 1059 -98 l 1
 1059 370 l 1
 942 370 l 1
 942 -98 l 1
 793 -98 l 1
 708.639304983 -205.124692084 528.91563348 -267 335.5 -267 c 128
 236.5 -267 154.833333333 -251.833333333 90.5 -221.5 c 128
 26.1666666667 -191.166666667 -6 -154.666666667 -6 -112 c 0
129 117.5 m 128
 129 75.0180085375 154.437679762 32 195 32 c 128
 235.563441422 32 264 76.0165938249 264 118.5 c 128
 264 161.127416763 235.624020676 203 195 203 c 128
 154.450238418 203 129 159.955580028 129 117.5 c 128
29 -117 m 0
 29 -142.333333333 61 -167.833333333 125 -193.5 c 128
 189 -219.166666667 256.833333333 -232 328.5 -232 c 128
 468.947001448 -232 608.214891177 -181.677663235 664 -98 c 1
 56 -98 l 2
 43.3335673887 -98 29 -105.053291267 29 -117 c 0
EndSplineSet
Ligature2: "'blws' Below Base Substitutions in Tamil lookup 3 subtable" tml_Nya tml_MatraUu
EndChar

